<mxfile host="app.diagrams.net" modified="2024-06-11T23:00:00.163Z" agent="Mozilla/5.0 (Windows NT 10.0; Win64; x64) AppleWebKit/537.36 (KHTML, like Gecko) Chrome/125.0.0.0 Safari/537.36" etag="nxD9lhW3E-j4V2-gnYoE" version="24.5.3" type="device" pages="2">
  <diagram name="Buscador" id="kwYRUUmypK1Sft-GeLnx">
    <mxGraphModel dx="1400" dy="696" grid="0" gridSize="10" guides="1" tooltips="1" connect="1" arrows="1" fold="1" page="1" pageScale="1" pageWidth="900" pageHeight="1600" background="#fafafa" math="0" shadow="0">
      <root>
        <mxCell id="0" />
        <mxCell id="1" value="Principal" parent="0" />
        <mxCell id="93lspmUzpF4mhgVofKCP-4" value="" style="rounded=0;whiteSpace=wrap;html=1;strokeColor=none;gradientColor=none;labelBorderColor=none;labelBackgroundColor=default;fillColor=#f7f7f7;" parent="1" vertex="1">
          <mxGeometry width="900" height="80" as="geometry" />
        </mxCell>
        <mxCell id="93lspmUzpF4mhgVofKCP-3" value="" style="shape=image;verticalLabelPosition=bottom;labelBackgroundColor=#f7f7f7;verticalAlign=top;aspect=fixed;imageAspect=0;image=data:image/png,iVBORw0KGgoAAAANSUhEUgAAAu0AAAFhCAYAAADEJJRZAAAAAXNSR0IArs4c6QAAAARnQU1BAACxjwv8YQUAAAAJcEhZcwAADsMAAA7DAcdvqGQAACCzSURBVHhe7d1Nj2xXeejxNjMMM0DBLyJIODIckJCQsb/CZUDAvDiMkqmlizPOBOKEScZxInl6MwIH45AMyFewsSwh4QMoIJEI26DgGQapJ75+2ntxuut0Ve/3/ey1fj+p1LvB53R1ddn936ueveqe8/Pzt88AAIC03tN9BAAAkhLtAACQnGgHAIDkRDsAACQn2gEAIDnRDgAAyYl2AABITrQDAEByoh0AAJIT7QAAkJxoBwCA5EQ7AAAkJ9oBACA50Q4AAMmJdgAASE60AwBAcqIdAACSE+0AAJCcaAcAgOREOwAAJCfaAQAgOdEOAADJiXYAAEhOtAMAQHKiHQAAkhPtAACQnGgHAIDkRDsAACQn2gEAIDnRDgAAyYl2AABITrQDAEByoh0AAJIT7QAAkJxoBwCA5EQ7AAAkJ9oBACA50Q4AAMmJdgAASE60AwBAcqIdAACSE+0AAJCcaAcAgOREOwAAJCfaAQAgOdEOAADJiXYAAEhOtAMAQHKiHQAAkhPtAACQnGgHAIDkRDsAACQn2gEAIDnRDgAAyYl2AABITrQDAEByoh0AAJIT7QAAkJxoBwCA5EQ7AAAkJ9oBACA50Q4AAMmJdgAASE60AwBAcqIdAACSE+0AAJCcaAcAgOREOwAAJCfaAQAgOdEOAADJiXYAAEjunvPz87e7YwCAQd74/e2zN/7wk+6zq15769Xu6J3j3/24O7rbA+//1Lsf3/fJi4+H7nvvJ979eO+ti4/QItEOAJwUYX7xsYvziPFTEb60R//kL7qjd4NezNMC0Q4A/NHlQN86zocqMS/kqZFoB4DGlRGXvUX6TUQ8NRHtANCYWiP9JiXiP/OBL198hD0R7QDQgFZD/RgBz96IdgColFDvJwLeCA3ZiXYAqEzE+su//a5QHyEC3uo7GYl2AKhAWVV/6Tff6f4XphLwZCLaAWDHxPryxDsZiHYA2CGxvj7xzpZEOwDsiHn17Yl3tiDaAWAHxHo+4p01iXYASMwYTH7inTWIdgBI6pU3nxfrO/Lkree6I5ifaAeAZIzC7JdVd5Yi2gEgCaMw9RDvzE20A0ACRmHq88D7P3X2+Y98s/sMphHtALAhozD1s+rOHEQ7AGwkgv37v3y6+4yaWXVnKtEOABswDtOmL3z06bP77r3VfQb9iXYAWJFxGIzLMIZoB4CVGIehMC7DUKIdAFZgHIbrGJehL9EOAAsyDsNNjMvQx3u6jwDAzAQ7fcQrMPFKDJxipR0AFmB+naGsuHOKaAeAmQl2xnKBKseIdgCYkWBnDk/eeq47gneJdgCYiR1imJNw5zIXogLADAQ7c3v29hPdEYh2AJhMsLMU4U4h2gFgAsHO0oQ7QbQDwEhx0algZw3CHdEOACPYJYa1Cfe2iXYAGEiwsxXh3i7RDgADCHa29h//8/fdES0R7QDQk2Ang9d+9+OLC6Bpi2gHgJ5e/u13uyPYVlwALdzbItoBoIcYSYgVTsjCzkVtEe0AcINY0RTsZOTC1HaIdgA4wV7sZCfc2yDaAeAEF56yB+bb6yfaAeAIW+uxF14Nqt895+fnb3fHAEAnVi6FUH8PvP9T3dHZ2YOXjq/zq+76ANcJzO/JW891R9RGtAPAAfuxnxaBXsL80T/5i4uPU8UJUsT8miH/2Ie/1h1d9eKvv90d7ZNwr5NoB4ADLuy7Wwn1uSL9lDUC/ksf+9aVVwcue+ZHj3dH+xQ/o8984MvdZ9RCtAPAJfZjvypWox943yePBu7Slgj4+F4i2o/53i++sfvngNX2+oh2AOgYi7kjYn2NVfUh5ojpm4I91BDtQbjXxe4xANB5+bff7Y7aVaI2W7CHuF/H5tD7eizh97WUOAmlHqIdAN4RgdPyWEyJ9bhNHYWJx3GpxzJOJp769Auj4j2+r6nf25541aguxmMA4B0tX3xagn2Mi0B/69WL4z6z5/G1ys4zc8zKx8x7n91ehnyPtYzHhPi+P/+Rb3afsWeiHYDmtXzx6ZjZ9RLqc10gWkJ+ykjOTTu+DHkFoaZoD2bb6yDaAWhayxefDh2FKbG+5D7mZexlTMAfW3UfemLSd/V+T4T7/plpB6BprV58OiTYI9Zj9TluS8ds/P1xi5XziOchIswPZ93je5yygl8LF6Xun5V2AJr1ypvPDw7DGgwJ9gyrzmNGeMq4TFy0OlSNK+3Bavu+WWkHoFmC/biyup4hXuM+DP1ZRazH98odce0G+yXaAWhSi+MCQ4M908WYY0Zm+r6a0IpMP0+GE+0ANKm1i08jYIcEe1YR75nvX3ZW2/dLtAPQnNZW2SPW+4yKZA/2Iu7nTVs8cj2r7fsl2gFoTmur7H1nu/e2gi3cx7Havk+iHYCmtLbKfrgF4jF7HTkR7sNZbd8n0Q5AU1paZY+xmD5bJUbE7TnkhPtw9m3fH9EOQDOaW2Xvubf5ixVsfSnch2n1XYD3TLQD0IyW3v10yG4xtYxL2FVmGKvt+yLaAWhCBEpLs7wtrbIX8fOd4w2zHnjfJ7ujullt3xfRDkATWlplD31W2UNtJzIZ3sEVliDaATh7/a1Xz17+3389edu7llbZWw32wnx7f7Z/3I97zs/P3+6OAWhIhPrrv7/97u2d474e+dBXz+6/99bZ/TsaIYjRmJZGAZ769Avd0WkxA17zyUzfx+FQPCYtzcc/eeu57ojMrLQDNCYC/d//++8ubrGCPiTYQ/yZ8mf3orXRmL5aevUB9k60AzTicqwPDfXrRLQ/e/uJXcS70Zg2GZPpJ/49Jj/RDtCAEuxzxPqhEu9Z2Zv9eq2cyHg1gVqIdoDKlXGWpUW4L3FSMFVr29pZab/K3u392LM9P9EOULEI9jXHV9Y4ORiitRAZEuyvJTzBWsoce7fXzp7t+Yl2gErFqvcW8+aZRmVcgHrcrxoaG7F3OzUQ7QAVKjPsW8kS7q3NM/edZw8PNjZGY0zmZq+8+Xx3REaiHaBCGVaYs43KcFUrb9VfuCD1ZsaIchPtAJWJVfYMF4RufR9avLBuyEx7ixesCnf2TLQDVCbTCveWYzLm2TnUd0TGDjxkJNoBKpJhhT0Lq6ownLn2vEQ7QEUyri5vsYMNHOOC1NPMtecl2gEqknGlfYto90Yx/XzpY9/qjtrhFRj2SrQDVMJozB3m2fsxuw37IdoBKiFU77Ca2t9jH/5ad9SOZ370eHfEdcy15yTaAVicufa8Hh3whky0wVx7TqIdoBLGY95lnn24FlfbYW9EOwCLW3Ol/Y0//KQ7oq8WV9uNyLA3oh2Axd2/4lvmv+YVh1Ge+vQL3RGQkWgHoCotX4Q69XsX7hQuRs1HtAOwuPvvvdUdsaQ5XmVoKdxdcHmcV6zyEe0AlVhzBGUo0b6OF3/97e5omgj3Fi5OnevxqpFtU/MR7QCVyBzGa51Q2DlmPnFxagvhHqvtEaiHN8jmnvPz87e7YwB27tnbT3RHuTx567nuaFkR7d//5dPdZ21aYrwlwtaqdHvW+veWfqy0A7CoNcd2vCvsMnPasepeRmYeeP+nuv8VWJNoB6jIIx/6aneUxyMf/Ep3xBqWXBGPeP/Sx74l4GEDoh2gItmiPVbZV92j3Szyag4DnvrY9jEX0Q5QmUzhbpV9G9/7xTe6o3WU8ZkS8CIe5udCVIAKZbggNVbY//xP/7b7bB1ZL8TdQgR0BmXG/ld2ZdmdGH/6/Ee+2X3G1kQ7QIVef+vVs3//77/rPttGBPuaozFBtN8RoysZZ85F/L7YQSYP0Q5QqZf/918vblvYItiDaL8qy2r7KRf7or9zkinicxLteYh2gIrFanusuq8pZuq3mqsX7VfFSnusuO9NWY23N/z2RHseoh2gcmuG+5bBHkT73faw2n6TiHgr8dsQ7XmIdoAGrDEqs3WwB9F+vRrCvbAKvy7RnodoB2jEUuEes+uxteMWM+yHRPtxNYX7ZVbhlyXa8xDtAI2ZK94j0u+/99bmq+vFG7+/ffb9Xz7dfcahvc63DyHg5yfa8xDtAI2KcH/9ndAdOu+eLdYL0X6zeNOjeCOkFkTAG6GZTrTnIdpp0os/+a+Ljy/99Odnj378oYvjyx77xJ91R9BPhO9FAF+K4BK3F7cEoyOnlJX3uP+H4v4X2UL9MtHeX62jMtcR79OI9jxEO1WLOI8wDz/82c//GOt9ff2Ln+uO3vkl9/idY9Z37GdXfr5b/Xwi0F/+7Xd7rVZnuFCzZqJ9mJbCPYj3cUR7HqKd6pRQHxPpN4kV+M8+/JCAH+mZF37QHd0tfl7FmJ/bz/7fP3ZH6xkzGy7cl+VC1GFaGpcpxPswoj0P0U4VIvL++fv/OXuk3yRW4gV8P/Gz+ct/eKb7bH5rR/vUvc/9IlyGaB8nLlCNC1VbIt778d+qPN7TfYRdKiEYt7WDPfzTv/3g7OG/+uuTK8i8q4yx1ODiAs4JwR6GrtDDkr73i29cRGxL4hWG2nfToS5W2tmlKSvr5SLTGHO5zpSxGivvx5UTrKWsudI+12quFaz5WWmfLkZmHnjfJ5taeX/mR493Rxzy36k8RDu7MjbWyyx67BQzZGeYsoIeK+pDiPfrxasSS1kr2qeOxRzyC3Feon1etojEf6PyEO3swphYn/ui0Qh48T7NTReiDj0Zu2ytaJ87Cv1CnJdoX0Yrq+/C/W7+G5WHaCe9ocG+9A4vY+J9i51N9mrM4xtEO0G0L6/21XfhfkecpH3+I9/sPmNrop3Uhgbcmivbme9bDYaO0oh2gmhfV60r8ML9XaI9F7vHkFZctNg3imN1/V/+5qlVozi+1pBQjO/l1HgIV8VJTgvsIsOeRdjGzjNxIWeEbtxq0Nre9cfECRl5iHbSiTGYIVs4lmAfcoHpnIaG+5I7qNSklVcl7r/3VncE+xYBH7cI+LKF5Gu/+3H3/+5Pa+8YS36inVTGBvvWhoR7fG9L7qLCvtxvJYsKRaxfXoXfa8S3Hu73vfcT3REZiHZSiQtO+8oS7MXQmWrhfrOtXj1hv4w15HQY8WWcZg8R39J+9Yfu80pgKqKdNPa4wn5IuM/r2BtgbemRD321O5rOKjst20vEe9dUshDtpDAk2MP//cL/6Y7yEe51mzPaH/ngV7oj5vKZD3y5O2JvLkd8BHymiG95tZ08RDubix1VhgR77CqSfWxi6M4nLk7dlz//07/tjsaL+LfSDteLgL8u4rditZ0MRDubGrrXecT6HnYVGXof46TFdpD7EbE9ZcV96p+H1pSIvzxKs7bWVtu9upCPaGczEapDgj1kHos5NHRMZuhjwbYiuseEd/yZOVbqoWUl4MuuNGtobbXdHu35iHY2M3QkJFbZa99NxHz7vgwJ8Fhdj3/WCjvMp+xKs9Xqe81s95jPPefn5293x7CaoReehi3fQGmKoSEe32PGnXG2MGR8augrG3Mr72z6+u9vn73+1qt/nFePN0+6uFm1Ws0rbz7fXMA99uGvdUdXRdC2Jh6Lpbb+jOdVK4/pk7ee647IQrSzuoj1Mavsew3ZMavnWwdoFnuKdvJoMdqPvQlQS5F5aKl4j1X9Foj2fIzHsLoxO6XsaZb90JiYNCYD49n28Y6W32zK2Ay1Ee2sauwOKbXPsl9n6PgQAHeLeBfuw9g5JifRzqrG7JBSQ7CP+R7s3Q4wj7LqPocWgtYbv+Uk2lnN2FX2Gi7KHPs9WG2HcVoeCzl07CLVFs0R7g82EO333XurOyIT0c5qWl1ln8JqO4xjrv0OJzBXtXIhKfUR7azCijEAWUyZca/9JMg8e16inVWMXTHe864xh8ZuSWgnGYB5tboNZh/m2fMS7Sxuyip76+MxwHjGQu4w1343YzLXM8+el2hncf/8/f/sjhjLbDsMZ679DicwsH+incWNXWm3yn6HawIA5mf/9qvMs+cm2lnUlNisaZ69+PoXP9cdAazrSx/7VndEYbb9KvPsuYl2FjVlNMZK+1VGZGC4J2891x1hFZWbmGfPTbSzKGMdVz31+PiVdo8lMJVwv9trv/txd9Q2z438RDuLEZltiZ933OKdb+NWPgfyMCJzt9feerU76qfWyDcak9895+fnb3fHMKsItzHvglqM3dc8uyn7rmd6TCLIY/ypb5jHPP+jH39o0NjTkOdQtsfm0JrjXtd9/Zd++vPu6G5TXgE6FF/71NcKQ58Hc3j29hPdUZ2e+vQL3dHNbHV4VawwDzmZiWj/3i++0X1WD6Nk+Yl2FhMz2H2D7lD8Qv+Xv3mq+6wuU98sacs4LUE25WQsfrafffihXqG4drTH1zv0w59dDdAMz+m4D4fXi4y9XyFOqMaGe3lOxOM09D4MeS5MJdqvEu5XDXn8YseZ2i5gjROXz3/km91nZCXaWcyUOBXtx20R7SUSp4ThdW6KxbWjfcl3n53zOT3lhPiYoY/f3M+JKScOfbzy5vNVb+8n2qcZ8vjFKnttIzJW2ffBTDspxepbrSLe9iTCeYlIDBHk161uc9oSP4u+4mvH82Hu50Q8F+Kkaanngzdaumpo5HOHC1fZimhnEVN/mcfMa632ckJS4mzMKEycmJTbTUqs0d8WJ37xfFjyBK5wIsfaWt81xbvl7odoB+5Sgr1vnEVExnhDjH/EmEV8LLf4PG7x/5+KTeHeX7zxWDyeh7elxPMgRmHGnMCNsVS4f+GjT3dHBKvt73pwQLTXuMruVaj9MNPOIuIX7pRf8HPMJ2dVgnisiLMlZ3+H3L+I8DEXEp56flz+2Q95Hi3xnCknLWU3lDEXWxbxWM01037K2OfXscdv6vN1iiV+prVekDo2wGuczx4qdo7pu9pe2+PlAtR9sdLOIg533GAfhgZ7ROiYE4j4M8dWhrcKxOvE9xi3uL9xK68cZBb3N+7jHCvvNz0fyuNTVvoPb/H/TbHEqy+tj0Icsm/7MLWd4Aj2fRHtsLKpIbPUiMKQYI8gm7pqHBF8XQDH/cg+05w93MPQk6nDx/zU86GEejwHyonbdbdykhP/7Fhzn8SJlLu1PibT90SutmB3Ars/op1FxC989mNIsEewRZDN5br4X+rEZE57CPch9/Hyq2PHng/xs78c6n3FPzs23pf4b4lYudtjH/5ad9SWIc+FFyvbMtQ7oO6PaAfueqOeY0q0zams2h7aw4Wpcd9rcTmOr3s+lJ/9lO+5xPtQVtuX1+oOIo/1/L5jlb22Wfb77r3VfcZeiHZoXIxF9F3NjF1LlhAxd124Z19xX+rx2NJ1z4cyCjOXoX+X1fZ1tDgm0/d5YJWdDEQ7NCxiqG8YxwrrkivLc47crGUPK+1DRlKuez7En5/7Z1NW7YeYO9yttl+vpQtTh5y4WWUnA9EODes7FhPWWFXew5x4zQ7HUCKulzqZGnrCM/eITLDafrd4TFoJ9yGjMTWxyr5foh0aFSuXfVcvI7D2sKrMvOa+fuHQ0n//Tay2Xy/CvfYLU+N77HPSFsEee7PXIr5nq+z7JdqhUdlW2Qur7TmsEdROBPOKC1NrDve+ryaYZScT0Q6NGjIjLK7asuYrK0Nn7uf25K3nuiMO1RrufYPdjjFkI9qhQUvEz5y2Hpto3ZqvrAyZmX/pp8u80/IXPvp0d8Sh2sK91bGYYBxs/0Q7NGjIRX1brLJb2d9W1sd/qS1ArT6eFuFew3aQEeutjsU4Ma2DaIedmRpUQ1fZa9yLnONafZXDmMzN9hzuEezeSIm9E+0swkrpcdlHU2hby//utvquoENEuO9tXKassLc6FuPi03qIdhbx2Ycf6o7GEbbHTX1sh+waE7aKOLvItCPLicJnPvDl7ohT9jTnPmQkpsZgt8peF9HOIh79+LSw5Lipj60TIo7ZKp6nnojOqcUxmZd+852zZ370ePdZP2XOPXO8x31rPdhdfFoX0c4ipv7yX2qXiBq0PL7AsjLFM+uIWH3x19++OI5wj4AfosR7n9GTtcR9iWDvO+5UY7AHYzH1Ee2wsqHjKXOyys4pW71Clu2VuVZW26+L1Qj4oeEeYkV765X3EutxX1oP9vj+jcXUR7ST0g9/ZqV9CV7B4BSv4txR+xZ5p2I1wj1W3eOfGWqLsZkxsR5qDfZ4PFyfUSfRTko1rwhP+d6mRtXeToZEJFuJVcohAbg3ffYhj6Ads+oeSrxHSC8V8FNiPb6vGoM9mGOvl2hnMd7Vcn72TIf11LpaGbHadxV9yqp7iLAuAV9W4OMW/3vc+ir/fIn0ckIw9MSqrK6XOf7aeBOluol2FmOVdH5TH9O9vYLhwki2Vtt8e6wwjwnwCN0p8V5EZMctgvtyfJ+6Xf5n4s8Oif2ixHqtq+shHhdz7HUT7QBwQi3hHuE6dYV5rni/rKyiH7tNVUZh5rzP2cTjZCymfqIdVrTlPDsw3t7HDspK81xKvI+deV9afL9x3+I+1joKc5ntHdsg2lnUlHe1tD3hVebZYTt7vzC1z4WnY5SZ97FjN3MrJydxayHWQ5xQGotpg2gnrRq3J5yyR3uLK+22/iSTvV6YusZoSATy5dX3NVfgy6p6ifUMJw9rEextEe0s7utf/Fx3NMw//dsPuqN6jH31wGgM5JB1vr2E8uFt7vnzPiLgywr85YiP29T7En/+cqTH3x8f4+u1FOshXvkR7G255/z8/O3uGBbz8F/9dXc0zJTxmozGPg6xfeYc4T7m62/5M/jLf3im94nOVvez72MaP78ttkF95oUf9D4B3uoxjJ9x/Kz7yPLfhGdvP9EdMUVcQPngiYtNf9WFeGtBfhMXnrbJSjusZMoq+1wr7XtbsXddA1nVthXkViLGy8r8dbeyss4dgr1dop1VjF1hrCnaxs6zz3kBqn3PYT7CnbUJ9raJdlYxdoW370vmezBlpR3ISbizlgh2Wzu2TbSzmi3mebMYG+xjL+I95qnH5/37AG8dz/JKsLvwtG2indW0vGI8djQmQ2RvNaJknp29iJAS7iyljMQIdkQ7qxqz2h67X+zdmADN8srEVvvlT9nTHtYWQbXnN18iJzPsXCbaWdWY1fa979c+JtjjcVrqlYmhIzdbPf5W2tmbePMl4c5cBDuHRDura222fcyK8Zw7xhwy1w7LiXA3KsNUgp3riHZWN2YFeeybEm0tVouHrhgvucq+F1bZ2bMYlbGrDGMJdo4R7Wyitnc6PWbMKnvLu+wU5tmpgXBnKMHOKaKdzQyN072tto9ZZV8r2IeeNK29X76Vdmoh3OkrrocQ7Jwi2tlMjIAMvShyTzE3dLU481jMmo+7YKc2Ee4uUOWUeH7E9RBwimhnU0MvitzLO6TGNpVD4jNife2xmKwnCDW9Cy4UdpbhOjEOExcuC3b6EO1sLvuoxlAR60O2Sdwi2MPQr7nG4y7YqZlw57Iyv+5Nk+hLtJPCkICMKM78hktDxmK2CvZiyHjS0mMr8fcv/TVgaxHu5twxv84Yop0UhsZrrGRnDPdYKR4Snkvux97H0PGkpS4Gjsfs8GRn6xMaWJI593aZX2cs0U4aew/3ocEe32t8z1sbGsZLjLBEsF9+7MpzIcPjA0sxLtMW8+tMJdpJJSJtyIx7lnAfEuzZgnTo/Yjvc87H/LrHbswrEEucTMxpyAndnH74s593R3m1vC9/GZeJoKNeZRzG/DpTiHZS2lO4x9ceEuwRpFmCvRh6MfAcj3k8ZtcFe8zZj3l8toji7CcKQ23179GQn92W/64vKYLOqnt9rK4zp3vOz8/f7o4hnaEz1EPjc4oIjcOxjlMiRofOkK9tzMz6mMc8wivC/1DE+uG4TubnQOb7FuK5OfTEwn3c3rO3n+iO2DOz68xNtJPescA7Zo04HnKfsq6uHzMm3MsuNKce94izl37686OP23XBHoben2N/z5xu+l5OWSs4x8RwsdZ9HPrvdrHGz3hrr7z5/NlLv/lO9xl7Eqvrj3zwK0ZhmJ1oZxfG/HKfO95LqMWMcBz3sbdgL8aEe1EC/rKbHrNTEXbdCE0f8Xd+9uGHLo4f/fi7H4tTP49TXyt+/mFMaF52+Bgd3r9w03Pm8H6W+xam3r9w+fEL5T7G1+n771W5j5fvWzHHfbz8OA75Ge+JeN8Xq+ssSbSzK2MCLn6xxy/0sb/E44RhSKiHEjzZx2FOGbsKOlQ8VqdWTZe4H/H1jj0fppywzOmm1e6t72ef1fgt7+PcJ+1b+4//+fuz13734+4zsrG6zhpEO7szJeJKTIfrVjfLiuDQSC9qiPXLlg73PmEVP4exYx7HnPq6or2f7NF+08ngHll1z0essybRzm6ttRLcR22xfmjuxzoeryFjQ3PHn2ifTrRvR7xvT6yzBVs+slsRXREOEWB9429u8XXj60cc1Brs4fJjPdblx+rUeAr5+dltq+ztbovI9ZUtHO25zhastFOVNVbfI1hiVX3KnPzexeMc+lxgGqa+ClG+3lxO3Ze5v9ZYNz1eW97Pvs/9PdzHGsTK+2tvvWrmfUFW1slAtFOlvlHZx+XwbDnUb1Iec48RbOON398+e/m33xXvM4lQf+B9nzy7772fEOukINppQoT75W3nIuavE2FeiE9gr8y9j1di3daNZCPaAaBSRmf6sarOHoh2AGiAgL8qQj2YVWcvRDsANCYCPrQ2QmNFnT0T7QDQsBLwNa7Ci3RqItoBgCv2GPJl3CUiPbiQlNqIdgDgpNhO8o0//OTiOEL+4uNGMX8Y51bRaYVoBwAmKSvzRQn7U0r0lwgvSoxfFmF+8VGc0zDRDgAAyb2n+wgAACQl2gEAIDnRDgAAyYl2AABITrQDAEByoh0AAJIT7QAAkJxoBwCA5EQ7AAAkJ9oBACA50Q4AAMmJdgAASE60AwBAcqIdAACSE+0AAJCcaAcAgOREOwAAJCfaAQAgOdEOAADJiXYAAEhOtAMAQHKiHQAAkhPtAACQnGgHAIDkRDsAACQn2gEAIDnRDgAAyYl2AABITrQDAEByoh0AAJIT7QAAkJxoBwCA5EQ7AAAkJ9oBACA50Q4AAMmJdgAASE60AwBAcqIdAACSE+0AAJCcaAcAgOREOwAAJCfaAQAgOdEOAADJiXYAAEhOtAMAQHKiHQAAkhPtAACQnGgHAIDkRDsAACQn2gEAIDnRDgAAyYl2AABITrQDAEByoh0AAJIT7QAAkJxoBwCA5EQ7AAAkJ9oBACA50Q4AAMmJdgAASE60AwBAcqIdAACSE+0AAJCcaAcAgOREOwAAJCfaAQAgOdEOAACpnZ39f3NVtdtEa+H/AAAAAElFTkSuQmCC;textShadow=1;" parent="1" vertex="1">
          <mxGeometry width="169.75" height="80" as="geometry" />
        </mxCell>
        <mxCell id="93lspmUzpF4mhgVofKCP-5" value="" style="rounded=0;whiteSpace=wrap;html=1;strokeColor=none;fillColor=#92d050;" parent="1" vertex="1">
          <mxGeometry y="78" width="900" height="2" as="geometry" />
        </mxCell>
        <mxCell id="93lspmUzpF4mhgVofKCP-6" value="&lt;h1 style=&quot;margin-top: 0px;&quot;&gt;&lt;font color=&quot;#1e1207&quot; style=&quot;font-size: 48px;&quot; face=&quot;Helvetica&quot;&gt;Sensores&lt;/font&gt;&lt;/h1&gt;&lt;p&gt;&lt;font color=&quot;#666666&quot;&gt;&lt;b&gt;Aquí podrás acceder a la información transmitida por los sensores&lt;/b&gt;&lt;/font&gt;&lt;/p&gt;&lt;p&gt;&lt;font color=&quot;#666666&quot;&gt;&lt;b&gt;&amp;nbsp;de OdinS distribuidos por todo el país.&lt;/b&gt;&lt;/font&gt;&lt;/p&gt;" style="text;html=1;whiteSpace=wrap;overflow=hidden;rounded=0;align=center;" parent="1" vertex="1">
          <mxGeometry x="225" y="160" width="450" height="134" as="geometry" />
        </mxCell>
        <mxCell id="93lspmUzpF4mhgVofKCP-7" value="&lt;b&gt;&lt;font style=&quot;font-size: 12px;&quot;&gt;Login&lt;/font&gt;&lt;/b&gt;" style="rounded=1;html=1;shadow=0;dashed=0;whiteSpace=wrap;fontSize=10;fillColor=#92d050;align=center;strokeColor=none;fontColor=#ffffff;glass=0;direction=east;gradientColor=none;collapsible=0;arcSize=50;absoluteArcSize=0;" parent="1" vertex="1">
          <mxGeometry x="770" y="25" width="85" height="30" as="geometry" />
        </mxCell>
        <mxCell id="93lspmUzpF4mhgVofKCP-11" value="" style="shape=image;verticalLabelPosition=bottom;labelBackgroundColor=default;verticalAlign=top;aspect=fixed;imageAspect=0;image=data:image/png,iVBORw0KGgoAAAANSUhEUgAABtoAAAF7CAYAAABcn19nAAAAAXNSR0IArs4c6QAAAARnQU1BAACxjwv8YQUAAAAJcEhZcwAADsMAAA7DAcdvqGQAALkOSURBVHhe7N0HnB1V2YDxk97ovXcIRZrSq/SOFKWLohRBRFBQbIh+qGClKEhRpEqvCb333nuV3gMhlJD67XNy32Uyuffu3ZtNyO4+f37D3ju9nJm5ed85Z3qMGjVqfJIkSZIkSZIkSZLULj0rfyVJkiRJkiRJkiS1g4k2SZIkSZIkSZIkqQkm2iRJkiRJkiRJkqQmmGiTJEmSJEmSJEmSmmCiTZIkSZIkSZIkSWqCiTZJkiRJkiRJkiSpCSbaJEmSJEmSJEmSpCaYaJMkSZIkSZIkSZKaYKJNkiRJkiRJkiRJaoKJNkmSJEmSJEmSJKkJJtokSZIkSZIkSZKkJphokyRJkiRJkiRJkppgok2SJEmSJEmSJElqgok2SZIkSZIkSZIkqQkm2iRJkiRJkiRJkqQmmGiTJEmSJEmSJEmSmmCiTZIkSZIkSZIkSWqCiTZJkiRJkiRJkiSpCSbaJEmSJEmSJEmSpCaYaJMkSZIkSZIkSZKaYKJNkiRJkiRJkiRJaoKJNkmSJEmSJEmSJKkJJtokSZIkSZIkSZKkJphokyRJkiRJkiRJkppgok2SJEmSJEmSJElqgok2SZIkSZIkSZIkqQkm2iRJkiRJkiRJkqQmmGiTJEmSJEmSJEmSmmCiTZIkSZIkSZIkSWqCiTZJkiRJkiRJkiSpCSbaJEmSJEmSJEmSpCaYaJMkSZIkSZIkSZKaYKJNkiRJkiRJkiRJaoKJNkmSJEmSJEmSJKkJJtokSZIkSZIkSZKkJphokyRJkiRJkiRJkppgok2SJEmSJEmSJElqgok2SZIkSZIkSZIkqQkm2iRJkiR1ao888kg666yz0meffVbpI0mSJEnS1GGiTZLULfXt27e1U+fhcZv2eYzqc/90PJJrl1xySfrKV76S+vXrV+nbeVgmpj73+dTl/p62eDyq6477xW2WJKnjmGiTpC7kvffeS1tuuWX66U9/OtFT/fTfbbfd0jPPPFPpoylp/Pjx6c4770zrr79+/kfcN77xjfTwww9XhrbtjjvuSL/73e8q3zS1xPkT//j+0pe+lP7+97+nTz/9tDLG5OMc/NnPftah8+xOGr2WsX+///3vtx7LxRZbLB1yyCHppZdeqozRtXH9P/fcc9Naa62Vt5+/fJ9Wa3v997//zV17ca1k+6affvp0xBFHpOWWWy6fw5QTTTA1rmuaWFx/dt555/T+++9X+n7en3KrjvfOO++kX//61/l6P+uss+b9/+CDD+bfZJp6ytecueaaK/+7hOMTwzkPutt1us+2u3ZI15nEOv/q7CdT352umaj75JNPWofzuTz81GOuSj1+/ttOt83l7YiObazWxT4od5KkzslEmyR1Mfyj9sYbb0z33HNPpY+mtieffDKdeOKJ6bTTTsuB7cMOOywnzqZ2kH/48OHpm9/8Zrr33nsrfdSWmWaaKT322GNp1KhRORj69ttvp1NOOcVAXSd100035WP56KOPpq9+9avpu9/9bkNBbs7VXXbZJb344ouVPp0Hwfxf/OIX6YknnkgXXXRR3v7LL788JydJsIwdO7YyZtew11575Wsd20k3ZMiQHGSvpzMf32Z4XftiPP/88+mqq66qfJt87Sm3nAcHH3zwNJtc72js69133z0tv/zy+XpPUuc3v/lN+sMf/pAffNLUVbzmUF7nnXfedPLJJ3vN6WYO/cYv898jzz8ifbrFsLTW4Bnz93oY5+nV3kh733RG/n7SV7+Z/0qS1BmYaJOkLmbgwIHpO9/5Tjr77LPTxx9/XOk7dRDAsyZWyrXXNtlkkzT//POnHj16pGWXXTZttNFGUz35OeOMM6YzzjgjrbzyypU+ao8ZZpghbbPNNjmAN3LkyErfaQfnmjUjGjNgwIC0xRZb5Kfq//Of/7R5bVxwwQXzNXThhReu9Ok8CCqTbPvJT36S5phjjtxv5plnTnvuuWeu3fHaa6/lft1Z+fh2p3vX5F7XvO40bu+9985J7jfeeKPSp33K5bI91yVqFP35z3/ulE2pthcPD5x55pn5waJtt902X+979uyZllhiiXwMLr744pzwmVwdeZ3oTtccjsdKK62U7z3T4m8pTTlHXfZK6tHvW2nkdlul/hddnm595Nj0063nrwyd1Imrj0s3jr46LXHzNemZdTdO6/XZJO1zpyFLSVLn4V1LkrqgNddcMydZagXDeMKZYPOXv/zl/OQ/NQJeffXVPIynTS+77LI8jOZ3jjvuuNYmpupNx7KoMcITxNSq43s0DzN06NDcjCL9xo0b1/qd8crNKj733HO5X3n+nc2HH3440ZO7bAvbFdhOEqJsJ/vzvPPOS2PGjKkM/Rz7sNxUHk2sFQM07CPmz7yKzYKVm6mqd/zAfE866aT0f//3f7mpH47R3XffXRk68XJoio53InE8wdPj++67bx7W3qYyO4vi/jnggAPy/n3zzTdz8ob9VT5f8PTTT+f9EWW9eBwn59gyDuca51yxqbx65aorHyP2R63rXdGKK66Yz80XXnih0qd6M1bVjk1nQMCZGs2bbbZZGjRoUKXvBHPPPXcORi+wwAKt1/loWpLyQNkB5YWaB5TnchmqV97r3TuKuGZw7WA85sP5NGLEiMrQCSibcd5suummOXnY3poQTz31VNphhx1aaxJTy4Vziab8ise32r0LjV6jOzuu8exjtr14zefY0cwtNaM4FnFtKl934vyJ+3oc00hms8/Yd3G8999//1yOUJ6WfV+v/HU2Sy+9dFp99dXTFVdcUbX8NvObqnhdGjZsWK4xH+cjzSbSD4zPvuU4Nnu+dxbU0Hz22Wfz9vFwU9GGG26Y/vSnP+Xtbuv3J/vs8MMPn2h/sN/Yf9WOR739ilr372rzQlu/JzortuGWW27JyTaSbmVt/Tblt0vsF44dx7B8z+4Uju/TMV0nNGDoLJPUbisr12IbfNfc6banh+fvkiR1FibaJKkL4gnmXXfdNQdMiu8HAYEBgq33339/uv766/M/YHkCmODX66+/ngPQ1157bR5GAOKVV15pDXLWm26NNdbIzbQR6OHJYb7j5ZdfTg899FAOrNKPafkHdTSryD+ef/7zn+cgKE+6EuA49NBD8/w333zz9O9//7vTNXW2yiqrpAsuuCDvi5tvvjkHA9h/gf1Fk04cI7bz6quvzsFx9klxvEYwL44Bx4J5EbAh6HTOOedUxpigreMXrrzyyrTTTjvlfjQ/R2CIZtkoR3ynZt5bb72VnxBnvW+//fY8Hcdpq622yvM98MAD8/epXaOyo7HNp556alp00UVT//79cz/268Ybb5yOPvroNHr06PTLX/4y11gkKMT58sEHH+SmqghUEuD/1a9+lY81Zfv444/PzYiVkwq11Du2HAvKF+dcNJXXVrnqiseovUg+sa8aPQadDddeAu2zzDJLpU91BKVpVpL3tlE2t95661xOuNZyjaCpr8cffzwnCG644YYc2CdBWa+817p3lBEkveaaa/JfavqQFCxerzhvKNs/+MEP8rr94x//yB3rXA33DB4sIWBdDFovueSS6etf/3o64YQT8jWY7SNBTu2+omr3rrbOpc6seF376KOP8jWemk/cj7mu/Otf/2o9P/jLNevYY4/N77uqdt0B93mSBBxTjhM1V9hf4J5y+eWX5479SlLvyCOPbE0glH8j1Cp/ndX222+fbr311rydRW3dk6uVyyLOR2qtUruNc4bfUPPNN19OzpR/MzVzvncmUV7LDxeU1fv9Ga677rr8rkf2wemnn57H51pW7XjU26/17t/V5tXW9bWzYd1JLnJN5vrM/YHkfFlb5wH7hYR/7BeuI1wvyudTpzJyXBp/1Ttp/NUt3eNd87dIGPLTZVu7tZeaKQ097M9pxNFHprFLD66M8bl5114uvfPn36e7dt83zbvO8hNNK0lSZ2GiTZK6KJ6k5onY8vtB+McvQR+CmAQcaV6HZg75R+wDDzzQOg4BAZ48/eMf/5ifIG1kumpmn3323JwPzVURiCAQd9BBB7U2q8gTrjRjRXAHBBT4xzR/+cc2T2v36tUrD+ssCGDylPMGG2yQgzYEkrfbbrvWJ51JTpGMY7+yH9lH++23X+5PUKE9Yl4sg3mxn3/729+mPfbYozLGBI0eP5Kbiy++eB6+wgorpD59+uREG0Gn6aefPidqevfundeZACLBogg8E1wleEqNymOOOabNoNe0qBgcWnvttdPgwYNzk3vxlPzXvva1tOqqq+b9w7v4SMCxH9gnbC/jElAiQERToexDjk8c53322ac1adeWRo9taKRcdYVjFCiTXD84VlHLhs/FGoH1UEOH8anpRbKGv3yPRE1XRpNqBJB5bw5lhXJDwJcO7777bk5OzTnnnOmf//xnvp+0Vd5R7d5RxD2AYCq1ctjfcQ8giRM4b1gfzj/WjevpuuuuW7PpXWo/FN/RVkxIcL0ioM44Sy21VD63G9HIudSZ1LqusV1nnHFGHsaxIMHA/TbKAceZWn0cq3oYzr2D4859guMVTVNyvKlJG2WNYSQiIlDOOsRvhFCt/HVW88wzT77XkmApJkya/U0V4nzkwRgermLfU85J3pR/MzVzvnc1jfz+xHrrrZf7x7WHGsDsn2rq7df23r8bub52JsV3tH3yySf5txOJ4fLDf22dB9X2C9cLrhud1cgZt0w9LpspfbjD+emzL++YRvbbvDKk69nitwdP0k1/4KFp0BF/TjPuuldlrJQ/02/2g3+e1vrZgZNMI0lSZ2GiTZK6KAItBGB4Er/4j3SeFiXYE0+ig3EJrPBU8CKLLJKTAQRJCboRICPx1dZ0tRD8iWA+tWcIWMw222z5e1hmmWXyk/X8Y5ogCO8RoikennznqfjOWIOA7SagSBNad911V060nXjiiTnoQIKAp9AjeQOCcUxTDMQ1otq8qmn0+E033XSVTxOwvgSoCPbQbGKx5giBVWoxMJwAH8eQYArH7rxO2txXMTjEX56q5riEeOcV2CcEmIvDmZ4gHvuk2rEhIEryshGNHtvQVrnqKscoEOS877778rGKWjZ8ptZNLVyDSMpwHpDcYXxqVbFv+Mv3YqKms+Gc5j2dBDbrIdnK+RxNnhHUpGzgK1/5Sq558OMf/zj3Z99SS66t8l7r3lFU6x5QvO5Qjmm+jXMlrjU0ExZNQLYH68q193//+1/e1o46lzqbWtc1toWaZNF0JAkDau8ExinfE6rhmsb0RZQnjjcPmEQSnI5zj3shiR2wjGLCv1b568zYv+yHJ554otKn8XtyLdXOx1qaOd87E347gvJdS1u/PwPz4jgEaq5zfaum3n5t7/27retrZ0aCbJ111snXEh7EKGrrPCAhX94vXC8aKffTrLEpjV/r/TTwr39IvW97utJTkiR1BSbaJKkL40lcnl6nWZt4lxZPgfKP3ghygUQWTQfxJDpBAYIGNB/1yCOP5KDzWWed1eZ0jeAfxwQ5yk8HE0CNYB5NHxFkpfYCzVnRDA9PvHZm8WQ0NSs4DiQI2G/FBCL7lWAD+7iIacv9iqrNq5rJPX4E0WnSk8ASwazoaNKNgAdN1ZEkpQYf5Y2alM0ExjsT9gnJGfZJIJhH4Ihg3YILLjjJsSHJE+N31LENbZWr7niMykjik4jiOtMVEeyltiJNwHG9KaJs/uhHP8oBYJIr0QxXJF+iRhFlhSbQqPFHc17Mk1pJbZX3WveOIq4VLKd4D6C80hxtoBxzXSleZ+jqJVBrofYEZX333XfPTbeyvo1ozzW6M+M+S1mhGVnKC8eX61ZH4Z5PIoNyVD6etRLatcpfZ0ZNHd4XyO+ZKIMdcU8un4+1NHO+dybUxOMhmOI7ZQPJzUMOOSTfb9v6/dle9fZre+/fbV1fu6q2zgP+HVPeLyTgGr2WT5PI4y7WN/X+5OnUe+XnJ/Tromgqstjd9oejc/OQH//y4DT8rJMrY7X8Nm75TD+alWSc8nSSJHUWJtokqQsj8EnTWQQaCK6CJ2RJvvEeD4KQJH54hwqBUZrLoakWmnApPlHNP/Lbmi4QFKA2RST2ipjPFltskf72t7/lp+b5xzQ1UgiE0lQMSQhqRBCsCNRqIEDSWdAkFs0DEWyOwABBAt5BQRCafUAgnAAnzRWxn9hn7BNqwEWQJhCoJBBBAIlx2W+8/y3QNBH7kGaKGM4yaQaPd/AUNXr8aiFoxLKpNRTL4T07BK8JMPGeE4JzEVTiieRGa251VjRFx5PmF154YQ7AE/jhfVAEzKj9stpqq+XAJceafUY5INDKuOiIY8s8KXPs93rlinLXlY8RSZh6NdHYdwRFjzrqqHx9Y98HnqQnsVN8or4z4z2KlAkeVIhmDjnnqUVEuaR8UutirrnmyjVU2TdcC2Jc3r1F85vFRB0JsrbKe617RxFJTmo3cT2k7FJOKbM0tRso97zrjfcmUVZZd96tRkKoPdgHJJAoF9/73vfyNhAQj/JfVrx3teca3ZmxvSTgKfvsL64PHJe2FK879XD8ue9x3eI4Mj7HldqkxZpzRbXKX2fHfuA32dlnn52/T+5vKu7JnIM0h8j5SEf5Zt9xbIqaOd87E34n7r333vkax3WCfcH+ohbhX//61/w7mGRnvd+fjSoej3r7tZH7d3FebV1fOzO2j+Yh2V/FVgHQ1nlAOad/7Bc+c10vJuY6DS6XLV3/kVekHivPlHrsP7D1ewxrqOtEtjzq0dbutVseTqudfkJuHvK1Wx+pjPG5Xk88nZuVpOnIW5/8YKJpJUnqLEy0SVIXxz9qeZo/EOjh/Tg0F8Q7xAj0X3zxxTkoS8CAJr/oVl999TyM9xXtsssubU6H5ZdfPgfvaerm3nvvzf3KmPbb3/52+ta3vpWDIwS+eb/SkksumYMVvA/m4IMPzk9VE1zlO/07C7afZrkIAqy88sp5O77xjW/k4DJNmIGgCfstagoS5OG9IDzxzn4uYnqSjwSiGff3v/99DgIHah/wsnwSBQxnmQTMaDa0qJHjVw9BKprBJBHE+tNEEk8hcxxZR47TKaeckp8YJ6hFRznoygi4H3HEETlwTA0pyj9BI2qNsW94RyLvJKEpLvY37xvkfTBRW2Fyjy3liuAU7y6h1me9csW51h2PUTRZR3kl4EkCnM9dGUlEyhLlkyQT28+xptYGTTBSNimHlFvKCe/C5G8kkCgzBDupiUQZ5DP92irvte4dZVwHV1xxxZwQJIhKQmvXXXetDJ1Q7kmcsg2UVa5XXLc23njjyhgTI3jNPYLtjI5lk8AmoE5TqSR8aMryoosuSk8/PWlTXeV7V3uu0Z0Zx4rywj4nMUAgm9pB9ZSvO23hHVUkmSiDXIe4DtJMYa1rT63y19mRvOK3D83gYXJ/U3FP5v7Awy+cj/yGIrFDOWeaombO986G7ef9ciQb2R9sI7Xw+f1LIgf1fn82onw86u1X9mW9+3d5Xm1dXzsbrg3xXki2/4wzzsjXdcptUVvnAeNznG6++eZ8bSKhygMP1HTrdL4/umO6TmatwTOmp1d7I+190xn5+0lf/WYafNek7/0cMHSWdOg3fpk/H3n+EenTLYblaSVJ6kx6jBo1qpM9FyNJ0uTjH/+BGlnqHDxu0z6PUX3uH5VZJqY+9/nU5f6etnSW48HDEjywRI18Ene8M49aiI8//nhOkpIw7UhTcr/02fbzB0omx+iLJ26SeXJNyW0+9Zir0nfeuif1fvLp9My6G6fvvr9kuu3p4XnYB/9eK8246175M01HzvSd2/JnkGTrf9Hl+TPJt//bZan8uaNMyW3uu9M1lU8TY3uriX1Q1tHHWZI0dVijTZIkSZIkSdMMavxRA5aasCTVll566dwkKMm3jk6yTXHUhu6IrhPZ++Yz89+T1/tmWvLuudPtzwxv3Yzc8nDlC5+jP93AK2ZJP9vhl/nLkRf8Ls+jsyhuR7GrqdrIdJKkTskabZIkSZIkSZIkSVITrNEmSZIkSZIkSZIkNcFEmyRJkiRJkiRJktQEE22SJEmSJEmSJElSE0y0SZIkSZIkSZIkSU0w0SZJkiRJkiRJkiQ1wUSbJEmSJEmSJEmS1AQTbZIkSZIkSZIkSVITTLRJkiRJkiRJkiRJTTDRJkmSJEmSJEmSJDXBRJskSZIkSZIkSZLUBBNtkiRJkiRJkiRJUhNMtEmSJEmSJEmSJElNMNEmSZIkSZIkSZIkNcFEmyRJkiRJkiRJktQEE22SJEmSJEmSJElSE0y0SZIkSZIkSZIkSU0w0SZJkiRJkiRJkiQ1wUSbJEmSJEmSJEmS1AQTbZIkSZIkSZIkSVITTLRJkiRJkiRJkiRJTTDRJkmSJEmSJEmSJDXBRJskSZIkSZIkSZLUBBNtkiRJkiRJkiRJUhNMtEmSJEmSJEmSJElNMNEmSZIkSZIkSZIkNcFEmyRJkiRJkiRJktQEE22SJEmSJEmSJElSE0y0SZIkSZIkSZIkSU0w0SZJkiRJkiRJkiQ1wUSbJEmSJEmSJEmS1AQTbZIkSZIkSZIkSVITTLRJkiRJkiRJkiRJTegxatSo8ZXPkiRJkiRJkjqBU089Lc0///z5c48e/H/qh/h6tCx4/PgJy42/gWFFMe748T3Syy+9kr7z3W9VhkiS1LmZaJMkSZPlzrvuqnxKafXVVqt8kiRJ9XD/vOuuuyvfJrj77nsqn1JaddVVKp8mWG21Vb3PSprI5ZcPTV/72tdSz56R0PriQ3zFZFs50fa5HmnokCvTJptuWPkuSVLnZqJNkiS1SwQGCQYWk2xlB/7wgPz3oAN/mP9KktSdFRNr3EMjkdZIAu1vRx+T/0Yijmm9v0q6/LIh6WvbbJN6ktDqMSG8Vzu5NWmNM1Qbv9p4qDfvspgHfyedrke68spr0kYbrVf5LklS52aiTZIkNYQg39HHHFv5NgGBweIT9wQLi0/nRzIuxjMoKEnqbooPqBTvhXF/xE4775rO+e9Z+XPgvhtJuOK4YFh5fpK6nyFDrkibbrppGjZsWBo3blyabbZZU//+/SetVdbyPf/X8pfxxo4Zl/r07ZM+/vjjNGjQoNSzZ888bOSnI9PYcWPTwIED07vvvptmn332PI/Ro0anjz7+KE033aDUu3fvSuKsmDz7PJlWTKyxrFEt0zL/Tz/5NM0ww/SsUMuQHunKK65MG29ijTZJUtdgok2SJNVFcO+YY47LfwO11drThFU8iU+ijmkNCkqSuoNIiP3whz+Y5J7JsLgfLrjwoumlF5/Pn0PcO0OMS1KumGBjWu+tUvd0xdCr0jrrrJ3efPOtNONMM+Yk27D33mv5PFP69JNP0rjx41OvXr3SLLPMnEaN+iy91zIsJ+LGpTRq9OicFOvdMpyE2Mwzz5xeevnlNOOMM6b55psvPfH442nuuedOn3z6afroo4/S2LFjcqKNJBoJuLfeeif16dMnjW6ZT9++vdMnLcubd9550zvvvJMGDBjQsrxRLeNP1zJ+r/T+++/nZcwyyyxp+PDhaaaW9bvzjjvSxptsVNkSSZI6t56Vv5IkSZMguUZAL5JsBAl54p5gXjFgyHA6goKMHx3fI1DINBFEJChYTNxJktTVcB9E1FQr3/d4YKWcTCtiOEjUFZNoMZ+Yf/HeKql7GTt2bOrbr19OmFGr7Y033kg9evZMDz34YE6qjR0zNv3vxf+lTz/9JNdQe/bZZ9PAgYPS++9/kPr07p1rmpEMe+WVV9Ibb76ZE2Q9e/RMPVr+G9My73fffS8n01jO9NNPl2vAUdvtqaeeygk1km4sm+QdyTiSaczzueeem1BzrmU6kmwk3ag599Zbb+VpmI9P/UuSuhITbZIkqapImoVIspUTbMXkWrFpyWhSkgAhHQHAYlCQZrTqBRglSeqsuN9Riy0SZHwv3/e4n5abZC6K4XE/BffdeAdqsalJlkN/k23qzrrjQ1yR6JpjzjlSv379ciKLpNdCCy+c+vTtm5uHpCbauHHjc80zxsnNRLb8N2DAwDRu7Lj08iuv5KQaTTsyvFfvXhO1Ctm3ZT4sp0ePnnla5v/ZZ5/l/ozfv6XjL01KkrAbOXJkGjNmTE7Q0Y3JNd765ulIvlHDbnzLXzNtkqSuxKYjJUnSJAhURFIMkWQrKo/TSHOSBBhJukWgkMAgQcFyc1nSlEbTSJdeelnlW/d1wA/2r3ySauuOwevJQXPL5Xencf+Le16xmcdIvNW6f8a+j2Ft3TOZH8m58j27I9S7v2vK4bdWRx7PZn93URYp29XWJcpxscw3qlzG2yu2h/mQzC6vw+TOf1p3+eWXp4022ignuKg9Ru00kmAktEaMGJETXXynqUaSXfRbbLHF0osvvpinp9+nn36ax4lmHeeYY440zzzzpBdeeCEPZ1pqy00//fS5VhzLmXXWWdOHH36Yx2Vaaqu9/fbbef4k1KjFxvgzzDBDTsC9Waktx3fWKY3vke699/608SYb5PWQJKmzM9EmSZImQkCiPUk2hhffPROBjmpP6cdT+ARBmD4CkRGAlKYWEm3rrLte2nDD7hvgueWWW9OzTz9Z+SbVRiC7qwapOxr3wGr3TbAf6c89sj3vOS2KhAbivsky412qJBxYDjrymMW89Tn2CdjPxYRpJKOKx4r+HPf4HOPEsYvywjTFshHLQEwfv5sYD4zLbyp+i1UTySfmFb/Pyomp4nIQ/UMMj3WN5cV6sj7FdxEyfqPbyLwYh3UqDotllrevPKyYaIt+fI79VZxfvfXorC699NK07bbb5sQaqHFGIgyvv/56TmpFko1hoHZajM9nap+RDKNmXNQ4K2KcwDjF8SfUdJt4OPNgWfEXfGZY63SpZ7riiqvSJptumIdLktTZmWiTJEkTiYBHICBRDEIwjHFA/3KgJRJs1Wq4MRyME0m3ePK+swc61LlEou2xRx7O7xzpbh586KG0w447m2hTQyKQrfri/si+4m8E9EOxXwT943MjijXhQiwz7rmRIOnoY2YZmFj8niG5xDFl//CXYxpNfcbvmzjuDOM3E8eIY1UctygSYYhywngsi79MG8c8+iGWF+PXWkbMn3mUh5WnifIW45aXF+vJ/mAYyuOFetMWlbcDMS1/Yx/GPGrt+/L+iWmL+4ftivXorC677LK0zTbbTJTsQiTEkGuQdTDmj3KirRrGLY4/Qc905RVXWaNNktRl+I42SZLUioBOMeBH8qucACNAEYpJNoIVBDb4TtCC4AyBEPoTBKFjOMpJNuZZDrRIktSZcC/j/sZ9lEB+3Nfivsr9js/cF+nK99y2cM+M+2lgmcyXJAKf+QvuxcXx1PHiNw3HMH4LRVInlH9DFX8zgd9KzIekD5/j+FUrF+V5M01R/LZiWubDsvidFutJP6ahf8y/OI8YVpwG1cZleHnbWL9Yx5gHy4xtpB+qTRuKw5gX09KhvL2MF+dY1F4rYvxqx4PzhXkWf892ZuSv3nn73XTttdelq6++tqW7Ll1zzXXp+utuTDdc39LdcGPLd/rTXZOuuurq/Jm/THPHHXemJ554Mr388svptddeS//73//So48+mm666aaW4ROmuaZl/PI8mPbhhx/OzUYiEm7lDrwf7uGHH8nzuOqqa/K0r736auLdcZIkdRUm2iRJUqty0CGCIoFgSwRcCFZEMIRAB/0jgMHnSLwR5KAfyTe6CJQwjKAQwZEIhJhskyR1RnF/JIAfSZRImsS9Ne6N/J1ckUTj/hr3Yj7TxWdNWfyGid8v7T2mcXyYjt9GlBF+AzG/OJ7tFeWtmHBjvvG9mHSKZZQTVOVpUG19isOrKc6juI2oN21xGNvDPqn32zB+U1ZLwrFtkaQLrAvnIPMs/8btvHqkYcPeT3fe2XINuvPOlu2+M/+948470j333pvuuvPunEy7s6XLf1vGu+eeu/M703jP2sILL5zmnXee/HnmmWdOs802W5pvvvnSQgstlN/ddu+996Xb77gj3XF7y7xb5nt3y36le+655/P72WgKsi09evRMs88+R3ru2edbjuvd+di89dZbLf0rI0iS1AXYdKQkSWpVfvqdwEhRMUBYHBbTRb8IMhLEINgRgZuYNgKDBDoIpBSDP+WgyOR477330tArrswvaO9KPvnkk9wET1fZrpEjP01bbbllfkH+1DItNB3J+VAtgDk1TM2mI9nOagFPdR5c48v3A00s7nuRQOH+Fg+URBIgxkHcGxvFfDiHYr6B40I/llG+npTvzZPDMjAp9gn7nGPOseUvxyLE8QfHh99BUT6YNo4p00bSJ34rxe8kPsd0Me/ivGK5xfIX4zHvWEd+Z8WyEOPxG4xlc42OMkT/WPe4bsd0MZ/itiPWE/SL4cXvMb/ytKAf5as4LNYvPsf6F+fP52r94jPrVTwGjBvfmTfDO3u5HnL50DR48JLplltvSYstumiacaYZWn4fTp8GDuyfRn02Ot16223phRdeyFXfxo4blxNja6+9Vlp99dXy78iePXtVTXjxTrVRo0alRx5+rOW39NDWZijRq2fPtMd3vpMWXHD+/A62YtOQTEdNtug/oVYb74Ebmx555JE0dMjQNHr0qLTV1lvnZNumm26cp5MkqbMz0SZJkjKCDRFIAYEKghRFBC5CBCZiughuxHc+oxh4KWKcSMQxX4ZH4KijXHfd9enF/72YvvLlL1f6dA0ff/xxuujiS9I3d/v8eHVmZ5x5VvrN4b/uNok2zhFQ3vlM0K9akHxKmpqJNgKkU3v71LG4RlcLRo8dOzY98MCDaeWVV8pluZhQLX/vyor3vXI5LyYI4tyP+xz9GhX7P5IgoZgMCdRAGTL0ipbr6mE1j117ddR8uhP32ReHfc+5EYm6ruzSSy9PSy+9dHr66adz0qp///6tCa4RIz5OV199dct1+oGc+MIqK6+cNt9i89SzV0o9W8aZkAjrmRNkiPGYB/3GjBnX8nv6unTbbbellrHT+Jb/llhiibT77ru3jEtttZZ+LeOOHTsu3XLLzenBBx9KM888U9pwww3TvPPOm3r1allQC2b/3rvvpksuvTQ3T7n11lunt99+20SbJKnLMNEmSZKyCBSGagFDAhegfzFQyLQxPuPEcIbF088RdA0RGIxAFH+ZpiMDs9dff0Pq0bNHWn+99Sp9uobhw4enf554UvrpTw6p9Oncjvrjn9K+39unSybaonyXxbmE4vlUxPlTrX9HaCvRFudrnIvF720NK143YhiK5zXJAkS/asm44rShWOOiPL/ivEK1eaLeOqE4XbF/KE5X3P6uqlY5JtG20SabpRuuu6b1eh+BbaYh0E1SKKZlXxUTzIiaM+zzGMb4Me6UOgc6Utw7a60r2xLjgPGiHBeTZtUwHvu1uH/K2F8ExIcMGZouvfzyNG7suLTVVlum7bbdJh8H5jG5+7FWGeiuGjl2mnzF6/eUEr9TO6vLLhuSllpyyfToo4+lzTbfNP+mmZA8S7npxxtvvCndccddORE23XQDW7b1wNR/QL+JaqK9+8576eVXXkn9+vZN888/f5phxulbE25c53l/2wXnX5Q++GA4ldPSti3Xli9/eYXW5cQ8/v3vf6fhH36Ya82tsMJyabPNNksDBw5sHYf3ud122+2523yzzdObb73ZMs4mebgkSZ2d72iTJEkZAbyiesENghIhgn7F8ampFv0JXhBgjEB0dASp6AjcRQCvGIiUOrMo3/G5HBwvBr2L51Ng/JimPO3UwPlaDCIXv3OtqDWMczi2m890JF7oOM8D4xfnwefyNQj0j+npWFb0LyrPK8Zn+cXlsoxYDuOV16k4XWxHsX90RYxbXH53FeU0rv/cE7jWc22PfQnKe5R/9iXD+cuxZVgk4KqVh2kV2xvbHWWneN5HuQXb157kQSQBmG/Mr4xlvf/+++nue+5Je+353XTqv0/JSTawvFrTSdO6uF5Mya7Ty8mylEaPGZ1Gjx5d6TkBybI+ffrkz9RGW2655XKNt0iQ4aOPPkqXDxmSLrroonTxJZeke+69JzcZSWIMjDvDDDPm97GB+fEOt+I88Oqrr6aRI0fmxBzNTPIOuHfffTfPJ+bVt2/fNPvss6d+/frlmnETz0GSpM7NRJskSWpIMVDHk/VticBiTEegkM8RgOQ78yF4WEy2EXAtBr+/KAYmNbki+VItCUMSgQA4Zb6M8s95EZ+LQfppBYmCeucp5w9dOZhZnia2s57iPLhuNKI4TYjER8wn9j39Q3Ga4nErB3tD8TrRyLZ0ZZRnrt/sh0iahUhOUm7Yr5FEq3WdjePUGcQ2sG1sF+sdZSfO3WrXANTqHyIhxzIiAVkN85l11lnT7474v7Taqp/fn+NeK6nrmpDIGpdri5EgK2pNtOU81/i02GKLpZ69JjQXGQkw3mf8xhtv5M8jP/00vfbaa2nEiBGVZiPH5OQdf0mSMU7/fv3SgAED8vyLSNhRa25CTbjxufWFDz74IA9jedHNMP30abrpKi0JlJJ1kiR1ZibaJElSVivgOTki0BpP+hN0JOhHF8sjKBnJtgh4Fz9PbVNiP6j7ieB2BMrjb6DcxzjlQHg5+VYePi1p6zwtbnc5UcA+aOR84/oQXaNYLzoSH7EOJHvKxwHFZAfrQ8d4xXEZp9p6xPwb3ZaujP3LfgBlNvYrx4F7QKB8x72h2vFArf7TokgagjIQ5wT7gK5cLuol16IssY/ifGH8RpLt5eXwvbis9pw/6n4oe3SUOzrKYbGL/p3p3Owuxo0fnxNWJMTKiTYSW71798q1x6g+NrA1QTbhHW50JNBIjpHyIh/31ltvp5tuuiU3RXvhBRel88+7IF166WX5ncfMh3F571pMHx1JuKiixseRn45KH330yYT+BQMHDZzQnGSpvyRJnZ2JNkmS1JBicKWtoF9xeHxm+mLCIII65SAsAR1qvUzN5EIERyNQyV/Wm37RP4KnUiMoMxGs5G97cW40M93URDKgVtKgkcQA4nyvh6RMdI0i6UPHcYjp+ExXVry2kTSJxEnxusQ41dajOP/uaqaZZqp8mpDMiXLLX45tOcEZ/ajRzL7jO38jOcewzoQyENsXSfLYdlQ7FxgWw4vYDzGvcpKurZrksRzuVRyHYpIZ1cq+RBmhvEZCjXJHR/9iF/0Zp5gIbg+ma6tjWUVcE+J8qXXeNKIj5jGt6tljQlhv9KhRVRNtPXv2Sr2oZTZ+fBo9ZkxlyOdoynHxxRdvGbdnHn/EhyPSww89nO6559708MOPpCeffCq9+OKL6aMRH+XxI7FW1q9//9Z14e/YceNy8q+caOvXr/+EGnFV5iFJUmdmok2SJLVbMbgeQZFiEI/hBAUJmBKYaSvozjwIfDAuQUICOVNTBJEuuPDCiYI8EViKzybbVEu5tkiUKcTf9oiAJ4HH4rk1tYLl5aB+reQH21kt2RbbXDxnygkXlL9Xw7yiq6baPomgMcHgWL/ydSWmKyf6oyuuWySCiusR0zP/OP5dLYDbFmo1XHTBeflz7LfYP/yl/NKvKPrFOcL3mKY8fnnaaVWxDLEtsV2odu6wXbEPiornUvHcaSvJhlgO48b86SinzSRF1LVR9qKMxPnXHlHGmb4jdfcHF5rRs1cl0TZmTBozZuJ3tJEQo+nIXr16p3Hjx6UXXnghJ75yDbcKhm+77bZpiy22SHPOMUfq0bNHbiqSd61RQy3Gjb/UoCsnz/g+YED/PG1uOrJluePHjU9jRo/JTVAWUYOO5ierJeskSerMTLRJkqTJEkGWCDRHQI8gTjEQXQvBmnJyjWm/iID117ffPq8zyy8GNiMYWm871D1RXspdR4vyh2IzdVNSLJPzkHOb7aoWrK8XZI0kF+d3XB+KCYkQCYlaWIdih7hGMF+64j6qpbhNsU70a2RatqO8DjE9609nMqP7ifO9VhmqdU3g4RO6asMiwRaJacoWf9t6YKXWuvC9mUSKui6uVVy7a5Xb9ogyqi8eyTG6MpJa/fr3S7169kqPPvLohARaJU8Wya5evXqm1VZfNe21995p992/mdZZd5208MILp0GDBqYelfYgY9xxLdOXk2fI710bP74yrGUBLaN/Nuqz/N62EIm//gMGtNZ+kySpq/DOJkmSqqoWAGxEMaBHMKecRKuGpBbBmggwfhFYNoHMWI8LLrwo74NT/v3v1uEGk1RGmYkkEn/bCoY3i/JHR5lkOXye0iJ5RA0DzuE4t0mWFWsdMCySTHyOJDXjR/+YRwR2o3/gezkJx7j0L3eIZcZ86UKMg+I6oJgQ42+t6YroX+6if7kmUwzrLgjYnn7GmflzlNFAWS33q4bx4n4Tf6upN+yLUjzfOS8jidvWNpO4rVVLNPpHuWa7mXfxQQ/KWbHsFtXbT22tl7o+yk7xd1pHKV5bNXWRsCIZRpJt9OgxE9U2I7HVt1+/1LtX71wjbdj7w9Ljjz2Rxo2tjNBiQgKNd7alNGBAv7T44oulTTfdOO26685pm22+lpZbbtmcRGO83CRky3WfZeWacZVlMWzQoEET3vXGjHKerUcaOXJky7ifNx/JX8Yh2daz54TEnSRJXYWJNkmSlJUDJNUSBhEkbwQBR4I5BAfbMx1BeoKBtYKIHYVlFAOSrGskCKafYfqW/4/P673M0kvnfsXA1DbbfT3tuPOu6ZFHH630UXdVDlhOiQAm4lzC1Ew4sFy64jnM5+J2Fr/zuThuTF8cH3wvj1f8HorTRxfie3m64jio9j26ovL3UBw/uujf1rK7g/+cdnr+GwmiYo0/FBNEKCeKqaXJ/YZyzeeYjr909I9h01qiqJgs455FsoEyEP1r3UcZr1oTedUSaGx3nPNtJTPYP8yf/Ra1L+N4oHws1L1QNqbkNaraNVFTDwmwUaM+m6S2WT9qtLV0JL9IdF1zzTXp2WefbX1/WiTBiiJxtnTLb+CtttoqrbXWWmlm3sfZo2U541qW89mEd8FNSNJNMHDgoNSDZiNbkNTjPxJtuQZdAdP07dOndVxJkroK72ySJKmqagG5YgCwGLyL/tGPYCAIDhIULI4LgoERMGUcAjMRSAxTOljDy92jGT6WTUdQlHXlRfDzzTtfXsdysBfrrrN26tOnd3r33Xfzd3VvlFXOAcp6uRx3JJYT50V3TOho2hZln+s/nymrlFO+cw0NxQQT19iYjutvDIt+fI9kVbXE1BctthNxX6NfvXVlOB37ppg043P5vI5xEcsJfC8n5QI1LRkenVSvvHSkqbGMwLlRPO/K4vxp77DOaXxOaI0cWSPR1r9fTpJh+Icfpquuvjrddttt6e23386100h+1eoGDBiQVlpppbTCCivkmmhjx4xNIz4aMWFmBf369c3j94oE2viUPv3k05b5j839EfPs1bv3hHe5SZLUhXhnkyRJ2eQE7qsF8uhHcDWCicVkG/1ieTEtSS9qlFWrAdDRCKzssce3Wpt9Yx1iPQgKx7rxl+8RtIx1Yz2/v9++OfhQTTHww9/Ydj4PGTo0Db3iyvyZZinZR3yOQDTj8j269orpmN81116b/u+I3+X+fD/n3HPTX/92dOvw+Bvr+cEHH6RLLr10ov5qG4FFygflJcrRlMKyIpEhTUsol+AaVi1pFqLmMKj5VUw2hTiPYtwpfV51pHiAox72D9dYrhnF60c95aZV64l1YN6R+OhM+1Adrz3lZ3JVO6c7EtcUzh86Hgqj43P8fgqcBzFeWfSvNqxT6tEj10wb9Vn1RFv//v3T+HE0D9kjJ+RIsN16623pvPMuSFe0/CZ94okn04gRH7UMG5fGtXTFWm68Sm3gwP5pyaWWTHPNOWee/oP335+kNhzvgMvJs0pSDaNHj2pZn4lrtMEkmySpK/LuJkmS2qUYrCsGNCKYF0ml4ncCiAReaiUHCHQQlI1gY1sBx8nFcmol9IpBF9Y9Ajrl4A3TVwtcMj7BYQLIjBOBVKan/4MPPFgZM+VmKWN8xL4jaMR0xWbJ2qMYyEasO80EgXmzv8v7+f4HHqh8+vz4adpRPCYGzTWt4ToZ1x6uLVzHuL5xvawX5Ge84rWuWBus1nV6WhLryzbTcZ7GtbXeNZzp2Gecy0zDvionCmL7GSfOeeZdvsaHWB7zK1/Di/tVnVOxHIDfVY0ktcrTtYVySVksdsVy2ZYo/1MK68f5Ug3Xk/asa1fz2WefTdJUI8009undhwpmuZZZrlWW35/2WXrzjTfzdeOcc85N//jH8en88y9IL7/ySp7HRMm2lmlmnXWWNNvss+Uk2VtvvVUZ8jnGIalHmo35M31O3I2btHlKkoHlfpIkdXYm2iRJUk0EM8qKwTsCGqEYxInpooYD3wm81Ar0FAOTU0t5fQjMRGA4EMCKmgHFwCZB41rryzwJjhLUZBq2nXlUG//xJ56YaBnsL6aPoGszgVGWyTxYx4EDBqQVV1whL5t5LbzQQnkc5l3cHtaX7/fee1+abdZZW9dbktqyeuVawjWGa1kE/uPaRv961346xuE6RcA3rk1cw/he61o7rSheS8tqJQMiIcZw7j38jWtu8b4a847xAvuzOI2+eFHGi+U/MKz8PcaPzzG82rjF71Gmiv0Q86mm0dpszJukWiyjiHLJsEaV129KqLW95d9y3QWJq09HjsxNQQaSX7379Em9aaqx5fO48RNqu1HLLKfbeqTUq1evXNuNVg2eePyJdPbZZ6f77rtvkne40WzkDDPMkJt9fPW113K/GMZyevbqmeabb76cWKtk23I/llFEkm30KGq6TVzzTpKkzq7HqFGjfIxEkiRl1QJ3kSwrYpxiEKM4TgRiCLJEgDT6VZvXlHT99TekHj17pPXXW6/S53PFoCXrWdx21pPhxf4EgyMhxd/pZ5g+10irFehpC/MtTxvLRLXhYfjw4emfJ56UfvqTQyp9mlNvGUVRE44gy5Rw1B//lPb93j45gDO1vPTyy2mddddLjz3ycJp++ukqfduH/UcigbIxtTV67Gp58KGH0g477pyeffrJSh+pNq7hU/v6Pa3jHIx7A+ci12/uD1wTSGzQrz2JicB0xWtKcR7F5AXJOtahKKYt3t9IOsQ9LT43wzIwsdifobjv43cC9/PYb7XKB8Pies535lFt2iKOfcwjhjHvmEdZo8et/NuulkbnV16XRqYr79dq2M7YfsS5WFZcXr11YZnx26szGjrkyrT4Eounc889Ny266CJpyy23SLPOOmtlKL/hxqTLLx+S7r/v/jR23Ni06CKL5KbPeW/bgP4tf/v1S4899lh+7/DYceNSz5bfzQssMH/abrvt0uyzz57nQSKNWm633HJbuvWWW3MC7cc/Pig3SckwkHN7+qmn02mnn55rvZFwW2aZpVvWZ/M044wzto5HTbprrrk2zTPPPOmNN95Im266ce4vSVJnZ402SZLUKoIWRdWCLsUgIIrjRPCCQEkEgKIfgY5ywKi9Jnd6RFCFwFQgsFUM2jCcv5FIiWERALvu2uvTT3/6s9yvjPnHehbXl8/Mk7/MN4Ja0R/xl+U0i/mxr5lXzC+WQRefWQbjRYCKvwyLLtZvx5a/1153Xeu8NGF/cgzZJ7HfpiaWPSXF8S92zWp02ih3xW5aYvlXLZQN7ieUde4X1co89xCG1epCtdpHMQ7LiI7x6Fe8b0cZ5f7LfSoSa5xLcb+zHE857NtaSSL6c8/luPGXYxLHrng9p195HnyPWpAozgMMn9x7AuveaNn4ostQudzzuZg467bGj08jR46cpOlIEme9ek1IcvEetR122KHlGrVj2n777dLmW2yWNthw/TTf/PPn4fHutI8++ig3Q1lGTbjx48fl5Tz33AuVvmF8WnChBdLcc8+ZevQYnwYO7JcWWGC+lr8DC8m48enDDz9Mw4YNyzXaor8kSV2BiTZJklRXrSB5MTBYHieeuif4E4EggiD0p9/kJtwmZ9qiY449LjetiAhcxrpHIKkc0CF4yfIZd9ttt6n0nVg5iVdUDKLRXBrBsvjOdHyPZTcbzGI+xZoPRSyfdeOYFccrBuzoH1ifQCCv/FR4d1Y8PsV9NiVx3OhYNsciEqpTQgTyo2tWo+sXZa/YTUuK54IUuKZSNqJ81Ls/MW6tDlyP43NRedxix32kGtaD4fytdT/SlMF+JzFW7fdT8ToSx66Ra2TxODP/IspNrXLQqPZc36bVa2F5v3S33ys0VUVyrNwkI8ms3HQkTUS2/MdwEmp0kehaZJFFUg+SbOPH5yYlp59++lzTDTEOTVKSgBszZmxe2P33359GlZqAZJott9wyffWrX03rr79+WmqppVpbQyDJRhLw9ddfT2+//XZrP0mSugoTbZIkaSLVAurVAof1AhoEyCOBQ/A8pqd/MeFWLQhVTSQVOgpBx7xOLf++JygQQS6CR6xXBJEuuPCi/PeSSy9NV1x5ZWuwMsaplQhgfjGPYoCTzwxjH5PEYHr6sU9if8b4DGs2mFUMrJbnwTD6FWs5xLoQqCv25zv9v/zlFfN7N1hvhuvz40RZbiRI2lE4BsXl8b18Lk5JlA3O22KCj8/Rn79gGJ/jO6JfcbxGFM/9+Bzzpqs23/gc6xr4Xu5XbbxQnHexRkm1+aj7Kl4Pin+LiudEtY7zuHxPYRpUGz+6YrkMcZ2O+/nUvEZowvUhHlQIlAnKSTxQwOdqxw7l+0pMG5g/36NfsdyUj3Wjx77WunQmk5ts7OxIh5H4KtdoQ9++fVPvXr1yUuyVV1+t9P3c4MGD08orr5zmnHOutPAiC6dVVlllouYeSYiNGDEivf/++7n5SbqXX3opPf7443lYJMwYf6GFFkrrrLNOy/FYdaImLMH0jzzySPqoZV4tE5lokyR1Kb6jTZIkTaJa8LhWgqU8bnE8AkUEhALBonIgsRExD4JWBBbRyHxqvaON+UVAhvlEQIsEFEGwCGrdccedafbZZkvDP/wwBwNIOK215pp5fMYlMFUMpE0t9d7RxrqVA2vRr9bfIvoRpFly8OD07HPP5X6LL7ZYmnGmmVKf3r3zOzweevjhNGjQoEnmhfL8GtEZ39E2Ods7ueJ8YB2aPafaekdbtQA+gWNqNUaZ59znfI+/xX6sY3m8Yr/i58B45f3JONXmX7wOVJsvf1nfmB/jR1C6Xr/islCcT3E7oh/HgGtBM8egMynvF03AfqG8RfkpY3ijmEfxnKB8cj+Kecc1p57yPIqYnrLb7HG0DEwsjk8tXJu5hsZx43uMz2fE8Y1reXF4TMtwfq/EsOL4iPHK30O9MlFE2ShOVw/LauSaV55nI+Wnrf2KevMpn3Mxbq3+YJmd+Roe72g755xzWn6bDUi77rprmr/SFGRK48hnpdtvvzPddOPN6aOPP0pLLLFE+ta3ds9NShYTaTQHSY04arrxDjdqwU0w4f1sDz/0cLrq6qvTxx9/nJNkLROnOeecM22yySZp8cUXm2h+iCRa/ju+R/4tfdVVV6Wnn3oqjR4zJm299da5ZpvvaJMkdRXWaJMkSZOoFsQgYFJNedxiMIMAD8P5C4InDCeoUQ7o8J2O5ZSXRf9IjJWD/80g6FQvqMJ6EjwnsXbhxZekl155Oc0+x+ypV69elTEmBPgJtk9r2NfF/ctnxHf2LdtGf5Imsd9jOFZdZZV09TXX5HnREVhZbPHBeZxbb7stnXjiyXk85sG8EO+HKc6nK4t980XgXKAMc25NyeAg5ZvlRBf9GlEsB7Gfiv2YT7WyUlxeLLOW2PZa8y0eH64blH3KaVxj6Mf3eseRecXwCGTTL+bD3464JnVmsT+L15o4BvGXYcUOMV1xWvA9FPsXP6M8jGXxN7roX/x+3XXXp/0PmND8b3lYTB/4Xl63yUVZivJE+Y4yhWJtHJYZyYbiuRDTxN/i9G2Ja7WmDo5flH8Uk0d8ju8xTnl49OdvcVhx/OJ45e+hWK7UVX1eM4xmHUePHp0/B5Jf0003XerZq2d+R9tL/3spPfvMs63ThP79++dabDQbGc09Yty48em1V19Ld9x5ZyXJ1tKzZZ5M/84776ShQ4emO++8q2XYp2n8uM8TbCyX7x988EG67fbb0yknn5KeeOKJ9NmoUROG5zp4kiR1HSbaJElSQwje1Ao41ku2IYKCEWAkGEQAk/Gii4AryykGhiLoGjVPGB6fp7Rnnn02TT9oUPrSMl9KO++4Y6Xv5+oF6L9IBP6rrRv9Yt+SpIjPjWzHc88+3ZpMC5FgKB7v8jjqeFMyuVYP5STORzRa/suBX7SV4CpqdDwU5xvLjb+RoKAjIUfHOVBMtNRbVjGhVp5Pd8Z+Yx+wf2JfxnWA5A7DGcZ1m47rf4j9WEya0sV8mI7vKE6H+B7zj0RSLAeME5/jOkUQOPrFeoGyXVwG39ku+sU6VFMvgVUuT5Q35hn3Q7a7WrKskXM81ludG+WgWAbic7FftXGiQwwvjtNecS420k2rZa/eedodkNii5hnNR0ayi790AwcOnPCetp490ugxo9Nll1+Wm3CkOch4r1uMy2eSddRwGzZsWHrggQfSBRdemN54440J41QSez1Z3pgxuaWDK6+8Mv31L39NJ550Uvrv2eem//733HTqqaelY487Lh177N/T1VdfnT4Y/kGeN0m8CbXlxk9UA06SpM7ORJskSaqqWq22cqCziOBLEUHNYmKOwCHjMF+CQQSG6EIEihinHHQtjzu5WK/iulVDAHa5ZZdNe++9V5p7rjnzekRAlb+RFJwWFQP/sS/Zf2wz3yNIxt/Yr/yNfY0111gj/wXNZYJjs+IKK6R99tkr74M4VhxTlhn9uptptRxMCZyjcf4Uy1kZ43ENKO4bygbnTb1zj+HFDiQnyteTIuZbbTjJHvrxN8pqjBcJOfpxrtOP8lvepph3cTso7+X5dHdxbawXgI9xitiHdLF/41jVu9eUMU0ct0i4VVtW8TjxOdY1+lc7jswn7lfNiIcZGkFZLJYzllvG+jBenBvl/VRveewbTXsouxzTEJ+L/TgnEL/LGFY816L8F6dpBuW80U7TkglNNpKyGjd2XPrkk09zsu3TTz9NIz76OL3//gc5ccY4o1r+0jTk8OEfpqFDr0iXXnpZuveee3NNs2eeeTZ3TzzxZLr33vvSddddl84++7/pspZx3nv3vZxcYyl5WS0dqbyevXrlz7T4wGfewfbcc8+lRx99LM/r7bffSaNHjckJtpbR0pxzzpFWX321tMwyy6R+/fvntZckqasw0SZJkmqqFugjwFwNgZcIBgWCgBEQLCIYxLh0BI7o+Ez/COAQcIxpI4gUQciOCPIQdIzAY3l+fCdgSVCzT98++d1h9COwxTowHX8J8E6Lqm0PIggX32uNx9PGvMw+8Jn3s8XnDTfYYJKAHtNObpCvs6IcUFYpE1FGp5Ra519HK56LRfSPLoZH8BfFQDCfGSf68TnO8/K1AnEdKHaIecXf6BdiGeX58rncr954dOVtjnnHuodq8+nu4ppZC9fNthKT5fOnXuKIfR/nXb15sk7ci+odK+bBshgnzrEoa0xb77xuT1KwjGUxfdxr2Q4Sj/UwnHWrdm+tZ0pfm7o7jh3HsVjO2voOpisfm+I4MZxyUiwbHP8oe4zD75OpdX+YVpV/k7FfupUePdKYsWPTY489nm688eZ03XU3pGuvvj5dddU16bbbbs/NPpJkG0/ttZbuo48+zkm1K6+6Ol1w/oXp/PMuSOecc27L3/PT0CFXpDvvvDu9/dbbuSnJeeaZJ807z7z59zBJtfHjSLql/HmB+edPa6yxRtp44w3z+9a+ut46afASi6V+/frm5Bo118aPH5vfh7vGGqunjTbaKK2wwgpp4IABOXknSVJXYaJNkiTVVC3wjHrJNgKAxQQdASLGL9ZaqIdxCCBFEJF5xTp0dGKrHMwCyyPgWu3pf8ahI/EX46n7okxTtimzdFMy8cr8I8jK32LAVZPy3Jy6uFcQ6CfwzzUyrvXF6yjXTa65MQzFBCf9+UtijL9RxmudV8VpAsc95hnic3G5ZdxvIhEYOLeZlnXuyHM71re8HxDrUQ/jsm8iEdgexX2ljsc5QPmN30Dl7xy7clmiHESZD+UyHYpJXY5/lAHKKtPEcroj9mP5HI+HtLqL3KzjuHHpqSefSrfddlu644470v33358ee+yx9OKLL+YmInv36pV69+mT+g8YkJNms806W06izTf//GmRRRZOSw4enGaaeWbmlqYbNCitvc46aautt0pbbrVF2mor/m6Za6PxEBrvbpu3ZdrNNt88rb/++jl5tuyyy6Y111wzbbzxxmnxxRfPtd3mm3++3G/zlvGWXnrp1Ktnz9SvX7/Uq1dvVnrCykuS1AWYaJMkSXWVn74OtZJtiOBkEQEigoiRdIuOwEh8jgRbBEsIGkUAMoIoHREorLZ+oH90DOcvyysvk+8xnrovjn8xsElQryPKZzVRKwf8JYCr2jw3py6u6yQQ4rrKeRD3iHrnBOPQcd1nes4hjh3zoZzzmes+49SaTzkREfMsaqQGGMss3hc4t5lPrFc1bSU2ap2nxfIZ2xX3w7j/VcP2MZzp2Z7y8tu6LpiAnrK4TpMo5fjEcY3voXh8GSfGKx4bykI1xXOA418s53wuLqcrK/5OBJ+rJcOL+6tbINHW8ock2MILL5w2WH+DnBjbdNNN05e+9KXUv3//NGbM2LT5Zpul3XbbLX3zm99MO++yc/rGN76Rtt1227T5Fluk9dZfP09LMm6NNddMa66xZlpiicXSbLPNmuaca/a05JJL5qTabLPOmmusLbfccmm+eefL72rjPWw333xzTq7NPsccafDgwWlAyzIHLzE4rbvuunla1oFqbvTv3ae3eTZJUpdiok2SJLWp1pPz5WBmEQEOpqsWiCRYGB0Bk/gcgROmZbpi0CiCKN3tCWVN2wiiUlbp2grkT444FyJw2O0CiJpmRc0aklRRLvkc/eJ7DIv7SYwT4xXHQYxXHKeM/nFu8DfGpUP8BZ833HCD9I/jPm9uL+ZZHg8xv/J6FRXvUdWUp+M+F0jKIBIsxWHcC0maMT332bjX8p17IcNZr+I0qLWecW81QT/lcTzZ37HP43stMaxYlorHlc9xXKudA4gyyrxqlYGuhO2MRCNdOfGGWvsqxLRxbnVuNM04PiewpptuUNpss03STjvtkNZZd6200kpfSauvvmrabrttcq2yfv37pTnmmCMtuOCCuSYbn2edddY0yywzpZlmmiE37zhwYP8099xzpsGDF08DB/VPHw4fkU477Yx0zz33tSxnXMu4M6dVVl019enbPy22+GKpZ6+Uhn/4QXr5pVfSHXfclcaNo0nJnmn22WdPM840U3rnnbfT008/mx544KH0yScft6zvuNS3X9/Uu1fvNK5lfpIkdRUm2iRJUkOKgciitoIUxWBltaRbEQEixmHcYtCJAEoEkLpDEEmdR9TAiXI+JcW50dZ51BGilmnUspnaeJ/M9TfcmG6++ZZ04003VfrWxjpO7jrfcOON6fnnJ+8YMg86dS+UuVrK96wI7heTKcXp4z5HIo7zvXhdIWlDP4ZRxovXgnr3xkjqef+cskhkci+IB4PY38XvZdw/GFZOspbRj+NeLCfFssE8+I5mrn2dSSP3P8Ypl/WuXfZ75FpkdMsu+6Vce23AgAHpnXfeSY888nAaNWpUrkm25pprpL59+qQ333wrDRs2LL3y8svp6aefbhnnkTRixIicrBs58tP01ltvpRlnnDHPAx+2DHvzzTfTyy+9lN/z1rKY/L7evn37poEDJ4wzZsyY/H640aNG58+sy0wt82A+Dz38cLrwwgvTNVdfnd5//4M8fr++/VKfPr1Z8/xdkqSuwESbJElqWL1kW71AIyLgxDzoCArRRfIg+jFOEUGjqClkbTZNa+oF7yanhlu1YGmcG+VzZEooBn4J0n8RT/0/+OCD+e9DDz2c/7al+G4r1rmta1LZsPeGVT41b9y4cenJJ5+sfFN3UTxfyopNApbFfbGoXg0oEjkMY5pInoV6y2nrvW/qGHGtjOMXSdXi96JiTawYFveN4rj0o4tyFvONcZgHnyfnntNZUPb5vVjt3ks/flNWu0fy+7Le/bpzm1CjrU/v3mnOOedqTZBde+21uXv22WdTT96L1rdfGjTddOmqq69Kxx13XDr5lFPS2Wedld/lRmIMJNleeuml/A613i3zQwwb+dln6bORI1OvXr3S9NNPn5cXSLr17EF4cXz6+KOPcr9+/funQYMG5fF79eyV74+ffvpJHka/Pn36tHyy7UhJUtfRY9SoUd7ZJElSuxQDQGUdGcwgUB6BJebJvNvjuuuuT+++925abdWu1VwWTx7/95xz09577Vnp07mddPIp6dCf/iS/mH9qeenll9M6666XHnvk4dxUUkci6EnAlbIbT9+3NznGOVYrsd0RHnzoobTDjjunZ5+unhQqL58ALoluzsPYPsR2ca4SzCfYX+wX6FecjoRBcR7lcanRdtfdd6eVV1opPfDgg5NMH8sIMazYP7ah2nT0oxZIJO/ZrjPPOjs3s7Xk4MFV1x1MU9zGmHc083fd9dfnGgLf32+/PLyrqFcei9fpemWW8dhvRx71p7TeeuumO+64M5eZjTfeKDcxttWWW1TGnBT7mf277377p7/8+Y9p4MCBlSFfPM4N1q/WtjOsWgIk7mnl4fRH3O/Kw7mmROKMYaHevZfjF8tr1pS+JnU2xXIf2MfFYzItqJV4KqtWRidXeV/UKp9F5WnKZbY4D8aNa3tcgxtRvL6HRvbRtGrokCvSYosvni65+OK02uqrpcVbPo8ePToNGXJ5+uSTT1qusRu33NtWSuPGjm/5vXVyTqSRmCMx1rNXz7TF5punlVdZKY0dO7ZlmqH5IZcVV1whTzfddNOlt956J51wwglpjpbrNO98W3DB+dOoUWPSv045Ne2y6475t9vw4cPTmWeend5844303T2/mxZeeKH8Prgrr7yq5Xp1d8uyJzQXue22X0vLLbdsbl7ys89GpetbfqdvutnGlS2RJKlzM9EmSZKaQtCtFgI77Ql6lEXwpJhkiyB/e9AM3AUXXpRmmWWWSp+uYeTIkenTTz9NM888c6VPZzc+7bjDDl0m0VYMwNYqu5TxauU5gvaBcSYnOF5LexNtEZjkvI5myuhHwJ/tK/YrJqFY/5hXjF+eFpEkoz/LGDtm7ESJtuJymW98DtGvWKsnrkHs0zgGsS7V+h3268PTLrvsnA4//LeTDCuuO9PGehTXGzTb1d0SbQxjfxSPT+wXPuPxJ55I1117fd6vDz74UJpjjtnTBRdclI8XNSew377fy/uxWH5C7PP77rs/7bTjDum5lmt7eRnx/YtQb/+A4WWUryhPxW0NcR9leFtiXtUw79h/jNestraxu6GslhNt06JGE23Vyui0YHLLbSOK153OKBJt559/fq5pxjV17Jgxadj776e55pojbb311mneeefNia/jjvt7blJygh5pjtlnS9t/ffs033zzpg8//DAnz4a9Pywtt9yX0qabbpp/lw0b9kE6/h//yLXhttp6i7T4You2zGtcOuOMs9Lmm2+a3/PGb9LTTjstvfLKK2mHlt9zK6ywQq7BdtVVV094b9vY8al3n55p0002SauvMeF4Mo+rr742bbLJBvm7JEmdnYk2SZLUtEYCTe1JuhEQJFhanCfTRdBb6ihTMtGGYtCyWnA6gufVynbxvJpSge1mEm1RiwaR0GI9GY/xOdcRAUumQYwT3xle/BxJgMC8zjrj9IkSbZGUi31VXj+uHcVEG8uMAG1x3WJdistkXViPSLRtsunmrfOO9URcxyIpEp9ZLn9ZRndNtBWHsW85VuwX/sa+jkTcQT86OG211Rbp4YcfyePzPp955pknvf322/k7x7qYMEUkOVdbY8103TVXpz332meiZRSP/RcRMI8yVmvZlKM4pxvBtsY1ohH1ls18KJ+1jl+j6pWB7qi9x/SLUq9sFHF8p0WcC+V7ZEeLe0BnNXTIlWnxJRZP5557bk6wEeCjsceBgwalLbfcPC299NK56cinn3omXXDhhTkpRm22cePH51rcG2+8Ya65xr3r7LPOSWPGjkmDBy/ecp3eKj/Q9dGIT9IJ/zwhL2urrTZPSy21ZBo7dnw668yz02qrr5oWW2yxXBvujDPOSM8991zafPPN01prrdWaaLvzjrtbho9LPXultPbaa6WNNtpwQnOU43ukK664Km1sok2S1EX4jjZJktQ0AhNtBd4IRBHoI4jDXwIadAT+4jMdw+iKgSuCK8XgutQZRNKFc4O/RZR1zgXGoSNBUBZJBco9408LItGFnCxpOffj/I8gPt/j/OVcJjFFv7bO33JSpdr4jNPIfIrrVdy30Z91Z32L2LZa2Aa6ajg2PBjAPMvHuTuK/cpfjn9g3zR6DWdfsz/5y3GpdWzKx7BchqY2trFe0qVWGSpiH1Fu6YqfGylb9ebPvmp0/0vqvEhekTzL72vr2zfXSFtqqaXy+9B499ott9xSSbJNeOda75b+NAfZr1//PA1JMh58IFP30Ucf5eYn0at3r5yI4zsJtTCq5fubb76ZP7Ps/J62nj1zgg38pWtZown/tSyD5fMX+ZVulXWRJKkrMNEmSZImW6PBQAJ+BCMj+Raf6cqBUwKDJtnUGVFmSeog/oZI9oTi5xDlnmHl6aemYhIcsU6RKGRYnLfRj3H4S+KDJFSME+NVwzayDMbhbyT0ihinuNxq+60slsk6xXqQfOM761dr3biWxTC2gfERf4tIBDEe17DuLPZt7MtGjk81zIMywH7nGEUCrXyMwhedYAttnaeUnWrlp4htpIzTgTLI57bKVr15T+7xkNR5kMAih9WnT5+0zjrrpBVXXD4n2YYNG5ZuuOGG3KwjNdl65Nps49Kg6QakmWeZKfXu3Sv3e+l/L+eEGcmvD4d/lD75ZGSeb8+eKc3SMh5/GW/8+B65RtuHw0ekN998O3/v0aNXGjx4cF72/PPPn9eF6T8c/mEaN25sy/AJybVPPvm05XvLfHKdO/5OSMpJktQVmGiTJEkdgkBjJNzaCijWw7QEBekmZz7StIpkAucJXSSxiqaFcs/5Ry0ZOhJfxUA95zmJEIaxrnRsC/0iSRiJB8aJ8ekX/YufwfyL0w8aNDBtsP56acaZZkzrrffVPE55uUV8p39RrHNsC9NGv+LyWXdsu+02+W/0j3VGcV1j2fSL+bFuLGPWWWdNa6yxRu7XXcRxiWPHd8p4fI/jwncSP0sssXj+Tn86akqA/UnijPGK+5txOEZMu/s3v5n7sd9ZBsNiGdF9kaqdzyHKShnbxj6jK48T/asNA9tea75gH0V5ldT1kShbcMEF06qrrFpJdn2S7rzzzvTss8+m3n16p779+uYkW8+ePfL9io5peH/bhx+OyNPQffTxx+mtN9/KNdh69+6dllxyybTooou2vhv4g/ffTx8MH55rtL3++utp/LhxacUVV0z77rtvTrQxP5b58iuvTEipjZ+QCPy0ZX2GfzC8ZdoP08iRo3INPEmSugrf0SZJkqYYnsiPpr9q1UgAgcComVAMsEpTypR+R1s9nAtfdPC7rXe0dXXUFCLBEdeneskK+X6uRrW1nzj3ayXXSTCSGCteH/gcieBqNdsot/WuJaxPW+M0yjIwMX7fdIaarJSfRn5XcXynFspjsTZq1AyupqPKbz0cy87827P4jjZqnG299VZphRVWyLXISITdc889uWZbnz79Ut8+fdNNN9+Uxo8fl9+1xnvYeNjh448+SX/+y1/SqFGjclIMCy60YH7H21xzzZW/k3QjKffhhx+mG2+8OT304MOpZ68eafHFFk8rr7JymmmmGXLTkZ999ll64403WpZ734QkXCWZxrTTDRqUk3s0O7n2Wmunl195OW222SZ5uCRJnZ2JNkmSNNURUKlVM0WaGr7IRNu0oLsn2tQ+Jlkaw37intZW4nZykxosI2oM1hIJvY5KIlsGJmairTm1zo9a+9NEW9uGDLkiLbHEEjnRNmjQoLTzzjtVmm8cl5NcdCTASKCNHTsu/f73v0+jx4xOyy23bNpyyy1zjbV33x2WTjjhn63vYKNpxx49Ulps8cXSUksumaabfnqqpKURI0ak/730Unr88SfSuLHjczKPBNoMM86YZpxxhtSnZV7UhnvvvffS6NFjWpNsWcvnHi3rQe035r3VVlund959J2266caVESRJ6txsOlKSJE11BE0Iakzp4IkkSVMLiahaNXOKGI8uaqs1gvtlJCnaSj6wDnQk46RpRZTfavhNaCK3OSSuaNJxtVVXTaussnKaYYbpE0k2kAQjyUbCiyYje/RMaZVVV841ChdYYIFcO+3dd99NH3/8ccu0q6TVV189d6utTq3DVdOss8yahn84Ig17b1gaNuz9NGLER2n66abP4662+qpp1ZZjynhLDh6c5ppzrjTrbLOnhRZaKH35y1+ZcM2qzK/Y0bzy6i3dnHPOmddRkqSuwhptkiRJ6naiRtuGG25Q6dP93HLLrdZoU0Oo7VIrQK6J0fwj2tpf9WrRkCSrlkiL2uA0tVdv/tRmY9yOPGbM00TI56zR1n6Ux3oJYpTXo5FpJldnr9F2+WVD0lJLLZX++Kc/pQ8+GJb69OkzoQZbxUS1ylqMHDky92McEnF8zt24CYm50NKH/01Abz63DmZYy5fi99Y/n/enZlzrsIrxLf1orvLQn/40vfb66y2/w9avDJEkqXMz0SZJkqRuh0TbpZdeVvk29RWDWV+kH+z//conqbZq7xVTbSS56iU4ys06EugneUYtk5iGeTBecT58j3e51UqixbymhI5M3HV2Jtrap15ttqLyfmW64vvcppTOnGgbcvnQNOdcc6UdvrFDevudt1r6tB3iKyffqonfKYxb/FzWyLAwYZweaeaZZ0kXnH9B+uSTj9MGJtokSV2EiTZJkjRF1XoyX5KkrorERa0kB8kExLCoMVhMoJFU4zPDijXJ6E/ioVqttkiyNZLQ0OSL4zgta8+7cKfk9kwr61FNZ39f8OWXX56bYdx+++3TW2+RaJvYPPPMk3bcccc0xxxzpCOPPDINHz68MiTl2m+DBw9Ou+++e24OctSoUemmm25KF154YXr++efTmDFj8ji8A26nnXbKzUSSLLv77rvTv/71r/Tqq6+m6aefPu28885p+eWXT//+97/T/fff3/qutxlnnDHttddeadFFF01nnnlmuuOOO/L0NHV58cWXphEffpQ22XTDPK4kSZ2diTZJkroRAnYRTCgG8KI5Kp4ijsBgMZjH8JiG6WMYYlyGlQODEfRjer4XA4Yxbjy1H/1jHePJ/lg35hP9GB/FcYrzkCTpixYJA+5TRdyvqJkW92O+cz/jHly8j8U9lHtliGnLtdqqjSup6xsyZEhOolVLtPXq1Ssn2Y444og0++yzp3XWWSc9+OCDrcM22GCD9Ic//CEn1O5q+S09YMCAtOaaa6bXXnstHXzwwemxxx7LCbhjjz0210679957U+/evfM4TEOCbtiwYem4445LW2yxRbr11lvTRhttlBNtjL/tttumv/zlL2m++eZL++23X07Ojau8Uy4n2kZ8nDbZpPs24S1J6lo+b7hZkiR1CwTh6CIxRWKLgF0EAgn0EbCLRBpimvITvzFuUXwn+RVBP5bD8vgcwwgUgmUznH6B8Vgf5hXrRr9oToh1K36PgCPLkCRpWhD3Ve6zxXsc97Di/ZRh1KopKt5Di5iWh0+iP+PFva88rqSuj4RWuYnGMMMMM6QVV1wxPfHEE7n22UEHHVQZktICCyyQvve97+VE2Te/+c087Ac/+EE67LDD0qBBg9LKK6+ca6QdfvjhafTo0Wn//fdPBxxwQNp3333z3759+6Yddtih9X1wr7zySp6GhB5IyFEDjoQcyTXE32w8b2uTJKnrMNEmSVI3Q0COLhJd1GCLzyDpRXCv/AR+NUwbyS4Uk3NRK62IfpHY4zMBQjoSauUkWQQe+RsiMMn6MR+WD8Yh8FgcV5KkLxr3Uu6r3KO4b3G/K99fY3i1pBr3teK9jWm5N8Z9M6Zr5J4tqeup9m40kHxbaKGF0hprrJGuvvrq3MQktc5IhJEcIwFHbbWzzz47vfjii3k+NB15ww03pF/+8pfpvvvuS4sttljL9Wa13I8mIUmU0d1yyy3pkEMOSUOHDm1d/rXXXps+++yztMcee+Tacix7qaWWSjfeeGP65JNP8jgTMcsmSepiTLRJktTNEJCjKz5NX/yMcrAvknPVElkECIvKwb4IBhaTeSFqohE0jKQZGD+ScQyP4GQk7vjLcqNGXXEeJtskSdOaSLgh7qncv+i4b5VrtHH/K/aLcem4P4J7nwk2SdVQo2zZZZfNzUE+/vjj+R1pNOn4ne98JyfhZpppplxz7c0338y1zkiY0b3//vv5PW2PPPJIWnjhhXNS7tlnn22tmcY41HAjyRbvXAPz4d1t1I7r169fXvZcc82VHnrooTztpMy0SZK6Ft/RJkmSJEnSF4DEWRE1tkO5VjiJt/KDMZK6NxJevKNtu+22a31HW8+ePdIMM8yYTjvttDTrrLOm008/Pdcq431pJNJWWGGFtNNOO6Wjjz467brrrunKK69sTbSRJCNBRjKNph+Z9kc/+lE6+eST87zB/BdeeJGcuAPz4d1vJOguuOCC3KQkteUWXXTRdN5556Vzzjkn/exnP2udR7yj7aMRH6eNfUebJKmLMNEmSZIkSZIkdTLVEm3UZqPZxrvuuivXQovaaPTn84477pj69++f/va3v+XulFNOyYk1Em00KUnijGn/85//pFtvvTUnyg488MDWmmnTTTddevrpp9Odd96ZfvzjH6djjz02PfDAA+nPf/5zeuGFF/IwknCXXnppbmbymmuuMdEmSerybDpSkiRJkiRJ6mSi6cYi+n3jG9/ITT5utNFGad55500LLLBAfudanz590j777JObebziiivSAQcckNZaa61ci42mInmP2zzzzJNuv/329Pzzz6fzzz8/rbfeemn77bfP/eeff/48PYm6m2++ubLECUiuHXfccbkmHM1SknwjOVdtHVt6Vj5IktQ1mGiTJEmSJEmSOplqSSxqnG222Wbpvvvuy006fvrpp7mj2cirrroqTT/99GngwIHp1FNPTffff3+u1UaC7B//+Efadttt8/vcqK1GLbff/e53eRxqrp1wwgnpxBNPTN/+9rdzk5JMTyKN+X700Ud52TRX+corr6R77rknPfroo3n422+/nZuunIivaJMkdTG9fvWrXx1e+SxJkiRJkiSpE3jmmWdy7THehfbxxx/nftQ2++CDD9J1112XXn755ZyMo6P5yKeeeiq99NJLORn23HPP5YTYq6++mkaOHJmbfWQ+F110UXrvvffyNCNGjMi13xiH+TMOtdxobpLkGbXYGPeJJ55Ib7zxRp7Pa6+9lpuc/N///peTda+//npO+g0bNiyv34ABA9JOO+2cRo0anRZdbJHcT5Kkzs53tEmSJEmSJEmdzGWXXZ4GLzE4/eqwX6Vhw96r9G2/Hj0mVDGr2sxjRSPjVMN0MQ1/qFH3uyN+l1577fW08SYb5v6SJHV2JtokSZIkSZKkTubyy4akTTbdNL355ptp3LixLX1IhkWYr9rnCcmyzz/zly7eLBPjF/uNa+liuramj3GL48Vw/rZ86tEzzTnXXOnmm25KG2+yUe4nSVJnZ6JNkiRJkiRJ6mTOOOOsNM/cc6cePXvmWmNR6+yLFOm3elhXmpT85jd3rfSRJKlzM9EmSZIkSZIkSZIkNSHqdkuSJEmSJEmSJElqBxNtkiRJkiRJkiRJUhNMtEmSJEmSJEmSJElNMNEmSZIkSZIkSZIkNcFEmyRJkiRJkiRJktQEE22SJEmSJEmSJElSE0y0SZIkSZIkSZIkSU0w0SZJkiRJkiRJkiQ1wUSbJEmSJEmSJEmS1AQTbZIkSZIkSZIkSVITTLRJkiRJkiRJkiRJTTDRJkmSJEmSJEmSJDXBRJskSZIkSZIkSZLUBBNtkiRJkiRJkiRJUhNMtEmSJEmSJEmSJElNMNEmSZIkSZIkSZIkNcFEmyRJkiRJkiRJktQEE22SJEmSJEmSJElSE0y0SZIkSZIkSZIkSU0w0SZJkiRJkiRJkiQ1wUSbJEmSJEmSJEmS1AQTbZIkSZIkSZIkSVITTLRJkiRJkiRJkiRJTTDRJkmSJEmSJEmSJDXBRJskSZIkSZIkSZLUBBNtkiRJkiRJkiRJUhNMtEmSJEmSJEmSJElNMNEmSZIkSZIkSZIkNcFEmyRJkiRJkiRJktQEE22SJEmSJEmSJElSE0y0SZIkSZIkSZIkSU0w0SZJkiRJkiRJkiQ1wUSbJEmSJEmSJEmS1AQTbZIkSZIkSZIkSVITeowaNWp85bMkdQl9+/atfJIkSZIkSVJnMGrUqMonSepcTLRJkiRJkiRJkiRJTbDpSEmSJEmSJEmSJKkJJtokSZIkSZIkSZKkJphokyRJkiRJkiRJkppgok2SJEmSJEmSJElqgok2SZIkSZIkSZIkqQkm2iRJkiRJkiRJkqQmmGiTJEmSJEmSJEmSmmCiTZIkSZIkSZIkSWqCiTZJkiRJkiRJkiSpCSbaJEmSJEmSJEmSpCaYaJMkSZIkSZIkSZKaYKJNkiRJkiRJkiRJaoKJNkmSJEmSJEmSJKkJJtokSZIkSZIkSZKkJphokyRJkiRJkiRJkppgok2SJEmSJEmSJElqgok2SZIkSZIkSZIkqQkm2iRJkiRJkiRJkqQmmGiTJEmSJEmSJEmSmmCiTZIkSZIkSZIkSWqCiTZJkiRJkiRJkiSpCSbaJEmSJEmSJEmSpCaYaJMkSZIkSZIkSZKaYKJNkiRJkiRJkiRJaoKJNkmSJEmSJEmSJKkJJtokSZIkSZIkSZKkJphokyRJkiRJkiRJkppgok2SJEmSJEmSJElqgok2SZIkSZIkSZIkqQkm2iRJkiRJkiRJkqQmmGiTJEmSJEmSJEmSmmCiTZIkSZIkSZIkSWqCiTZJkiRJkiRJkiSpCSbaJEmSJEmSJEmSpCaYaJMkSeom3n333fTyyy9XvkmSJEmSJGlymWiTJEnp1VdfTYccckhabLHF0qyzzpp23nnn9OCDD6bx48dXxpjUp59+mk466aS01lprpb59+6ZNN900XXLJJWnMmDGVMSb13//+N3d45pln0ne+8530/vvv5++Nevjhh9M3vvGNvMwvfelL6e9//3tel7awvJ/97GcNjVs0duzY9Pvf/z5dfPHFlT5TDvv7xhtvTOuvv37ePvbteeedV3Wf/u53v0t33HFH5Vtj2Ae333575dvExo0bl66//vp8HGPf/vznP09vvvlmZYzq3nvvvfT9738//y1+bg+2hWXSUQb/7//+L40YMaIytLpiWZoamik/TLPSSiulY445ptLncyeffHLacsst29xXxe2c2ttcxHZzrlEu5pprrnTwwQenYcOGVYZ+7rPPPsvbFuNxLD/++OPK0JSnOeyww/IwjvWJJ56Ypwks57jjjsvDGOc3v/nNRGWhreEsi2UynI5xqx2zjjg27TE1ryOSJEmSpKnLRJskSd3cU089lQ4//PC044475s/UevrLX/6SLrroopzkqZZsI5h96KGHpo8++ihdccUVOVD+73//OyeJCMYTVG7LEksskaeZeeaZK33a9sYbb6R//vOf6cgjj0yjRo1K9957b16Hc845pzLG5CMoT7Iokli9evXKCadtt902f5+SnnzyyZysPPfcc/P2XX755em2225Lt9xyS2WMKYNjzLG+8MIL8zHheD700ENpzTXXTL/4xS/Shx9+WBlzyrnpppvyNj/66KM5gXLGGWdUhnRu8803X05aFxPKw4cPT3fddVdOLHYWV199dfrggw/yOffSSy+lJZdcMp1++umTXB+uvfbanKCK8WaaaaZctkC5+uMf/5gWXnjhPIyk+dtvv53OPPPMPB+6U045JS+HYYyzwAILpD//+c852dzIcMpvnz59cjmi41pV6/owNY/N1LyOSJIkSZKmLhNtkiR1YySVSJQR/CY5ts4666TFF188J5modUJNkWpNDd588805gH7AAQekGWaYIfXo0SPNM888OSlz//33p6effjqP99xzz+XaZ9SSO+igg3JQPRRrCPH5Rz/6UfrrX/+aa6GsscYa6e67766M+bnRo0enQYMGpTnmmCN/HzBgQE747bHHHvk7wXaC+l/+8per1nYJ5dpJURPr9ddfzzV1qNHy1a9+Nde0QrH2GNNEjRq6Yo0cahuxDfvuu2/e5r333ju98847eVjUtGG92CePP/547l80cuTINMsss+QOJCGPPfbYXMNtSiJhMWTIkPTLX/4yH0eOZ+/evdMWW2yR/vWvf+VjzHbEdrE+1Y5PWXGbmYZEbDkxU8YxJcHHsWB/XHbZZa3Hs1w7KkT5IUHMeN/61rfSCy+80LrsXXbZJb322mt53Ea3o7ju1PK77777KkMmYDqmZzjnSrXaXaCMzD777DmhE1hf9vOcc86Zv7NPGtnOonplnfn/9Kc/Tf/5z3/yeUeZLZfbWEajy95mm21y+eD49OvXL5+jcYyKqAnGORnjfeUrX8njgXJGMnWHHXbIwziXqdVKUo7kGechyeY999wzD2Oc7bbbLg9j2raGkxB+5JFHcjKL5dNx7DnXql0HGjk2cW3gL9iPXDsYD1wbSFBT5rhGlI/L/vvv33oNKF5HmjmfJEmSJEnTJhNtkiR1YyTRVl111ZwoImF02mmn5aA3zQtSe4zEG8myIhJyd955Z9pwww1zMqaIBBjNsRHYppbI0UcfnQP+BJX322+/XGuplgceeCAtv/zyOYD9j3/8IzdLSe2SIoLSBLoJShPQLrvyyitzDTCaQIzaLn/7298aqmEHAvfUjtlrr73yupI4LIoaNSQiqC0TNXLOPvvsyhgp7ztqrrDNK6+8cuswkkysP0kHkkLUvCknKeaee+68vx977LHclOPUwjIHDx6cl18L60tyhe0i+cf38vEpYp9T+5B5ciyotUT37LPPVsaojuNL4odkB8kxavhRs4959OzZM+/Haig/K6ywQm4GlbJJAob15ftmm22Wy3bUeGprOxiPJBU1nlguiRPWO5I17K8TTjghJ2Q5ntTuIiFZrZxRu4rkE+cMw5n3rbfempMrbA9ICja6naGtss7+4Hz805/+lPr37z9RueX85LiwXc0sG1w7OEbMuxbO0eeffz4n70FtWc4BkmSBpDIJZY4HycoZZ5wxJ/ED39mOt956q83hnDMk8orY/yTgyv3RyLFpBA8eUMuWclU8LpQNkrRcy8plo73nkyRJkiRp2mWiTZKkboxaGtReIoFADQ4SCwS9CdgTuCcoTvC5iIA1AW+aQquGoDcBdhJm1OigRgtBa4Ltm2++eWWsSa2yyipp9dVXz+OybJpuKwfHCdD/6le/SjfccEMen5orp556ak4gkLQiwE2SjG0gaUYtHALwUZtpclFz5oknnsi1V6gtw/p885vfzMnJCJKzTvPPP3/ejmWWWSYH+WMf8r4zxmM7qX1VTlKQ/Pj1r3+djj/++JywpDbOpZde2lpjbkoh2M/6UhZqIWHKtjIe60mStVqyM7DdJKSoFcexICmz3nrr5eRkNdQg5Jgvu+yyed7s40UXXTQnIOadd948j0UWWaRqzSRE+WFakscbb7zxRN+ZjjLSyHZwnGlGlSQMy6VGH4m7OF7UgKLWHevHfDbaaKOceKrVxObSSy+dj/srr7ySywDzZ9rQnu1EI2WdZa699tp5+8rllvGpFbbHHnu0e9lgObxrjP1Tq8xQu3PgwIG5BheJTjBdPeyjarXpQlvDScBx3rBuUYuPZGLUqKumrWPTiK233jqXpfJxoWywj0jYl6+X7T2fJEmSJEnTLhNtkiR1Y9NPP30O7vKX2iZ0BNkJAlMTJRJxRSRDqIXyySefVPpMjBpeBI2pKUPAujj9dNNNV/k0KQLRxXFZj+K7kwLJu9///ve5xg4JAtaRJtkYl/e1kdAJJEZIkpRrjjWLhBTB/GKNGvYd6x1B8nJAneA9yycZs+KKK6bdd989J0CotVVOYiKao6QJTmrXUcOG2lJTEttAbaBq6xNImpFAYP+TGKD2Uz3sKxKQCy64YC4zdDQTSCKjmnhHG8uh+U6SmCQYqVm21lpr5elJFNVSLj/l76GR7WDdKavF8koSihpQIIlMc4KxXSSpSMzVKmfMZ6mllsrvvaPpQ5LPxVpd7dlOkGxqq6yT5OI8RLVyG5pZNon43XbbLZfVWnbeeee8LiQojzrqqLycaI6xFmqnFfdLWVvDOd6UMZqY5T1wG2ywQd5HJL5raevYNIJ9jWrHpZb2nk+SJEmSpGmXiTZJkroxaq/w7imC9Lw37Gtf+1pOBtGEI7XbbrnllkmC6SQwqJl03XXXTVLTimQXNZaoycX0BJOLyRuC0B2JWiPUJmEZbAOJBJKFgUA/tYyiJlItJHgIzreF9zmxDcXtICHI8iOpUQuJGmq70UTfOeeck/9Si6YWkgYE7ElUVEs4dqQlllgivfjiizkhUw37kCYISRJSO4hmRUmg1UNtSJrGoxYT+zc6kguNovk9amLxHkGmpfnHydHodlCuInEbKOtRRjhvzjrrrIm269prr80Jk1o4Z9gemhbk/Cpq73aSCGpPWa9WbkN7lk0iiSQ3tedIFreF2lq8qyz25WyzzZYT48VaaSRe6VhHEvjULismYzm/KJck6doaDvYNtV5JcFObjmsR+6pe8qzesSkjoV7rIYNqx6WaZs4nSZIkSdK0y0SbJEndGIFhmnM85JBDchD7nnvuybV1aHLvt7/9bQ4a04xjGU3x0SwbNa4iCUSw+PDDD89Nt1FDhAQd86JmFrWlSOjRnNzkICHwwx/+MC8LrAPvRyJRRHJktdVWS7zfjXUiMcK7pwjAU+OoiGQENUh4fxfjXXPNNbkmXgyjlglJh3ItL/YHy6KGGcsmYXDGGWfkd7FR26aeY445Jo8b714jMRc1pAJNYrIPCcSDv6wbx2NKouYhCYkjjjiidd+y/byra//9989NhZL4i2QAtX9IZNTDvqJW0dChQ3Nygv1FzUO2sVHs34UWWijXOuKYkjiZHOz7RraDc4Ek55AhQ3L5IJFDLcOoLcbxJtFMopTy8cgjj+T37hUTSGXUqiLRxLaUa1i1dzspo42WdVDTjfnzvkCOA8fj9NNPb212tZFlMx3lfvvtt8/LroZ5UdOPpBX7muUwP+ZNR4KS2pM058g6Mz7vjuOaQXkhOUuNsnifHONccMEF+dzimLU1nDJ72GGH5ePG8tke3hNIwrdesr3eseE85bhTY5H3rFHDlOtQNSyDRB01BFk260AClnJffEcbn9t7PkmSJEmSpl0m2iRJ6uaWXHLJnNw599xz82cSDNRa2XHHHXNQnYBwGQm6I488MtdC2WqrrXKTc3vssUeuXfa9730vT0PtHpIPv/zlL/M8Cb7vuuuulTk0hwQetWlYFssk4QHeZQbeBUUTeDQZRxCb92YddNBBkzTnSDCd7aOGGUksEl5RG4l1p4YL637ggQfmYH5gGO+2Yvt5lxhBdd5JF8uvh3FIOsQ+Y11J6BWts846+Z1RJD/ZPv6usMIK+f1lJAaZhqB8iPeaRcf8qfHDskg2NIr9Q0KN945Rs5F5UROJGj6HHnpo3pesC/ueRCPvKCOxWQ/z3HvvvXNNOWo3sr/YV2xjo9i+Rx99NO8zEjj8nRwkZBrZjtgfJNAouyR3OWYkiUASmSYKaWaRmor/93//l/bbb7+6taaYJ9tOVy6PzWxno2Ud9GP9qGHGceA8J7G8ww47NLRsEkO8N5AmPUmyRXljfBJwge3/2c9+lpNf7DeOO+8sY73YTyStmAcJbhK7cf7QDCXnFh2fOS9I5sd2MQ3TtjWcdWI7Se6yHewb9lG8I66WeseGMkM55mGEwYMH5+WxD2uhBiq1gqPZShKyTF+cL0nF9p5PkiRJkqRpV49Ro0bVfhmHJEmSugwScSTseH+WJEmSJEmSJp812iRJkroJmrajeTxJkiRJkiR1DGu0SZKkTuO1117L72Hi3V/V0KzbwIED8/uWJEld20cffZT/+gCBJEmSpC+SNdokSermPv744/wetaeeeiq99957acstt2x9BxMd3+k/JdCUIe9Puvvuu9MxxxyTPvnkk8qQ6ni30SmnnJKee+65Sp+J3X777emZZ56pfGsb7187+eST05e+9KX83ifetcX+KKO5Rd5l9bvf/a7SZ2LM58QTT8zv7uLdZuedd14aM2ZMZWjK76Taa6+90qyzzprWX3/9vL3h6aefzu9FYxjjMG41b775Zn7XU6wD82c5vIOKab/5zW/mRCMa3S6wfJqSrLZuTMO0bBfdcccd1/pOLvbzSiutNFFZqbV/JKnov//9b+t1g2sU70TkGtcWpqMD16ff/OY3Va+ZvIOQ9yjyjsgpgXsi7yicUvdGTMlt4PrNvN9///1Kn4lxLef+3F7NTidJkiR1dibaJEltGjt2bA7cE2DnbzGBoM7vhhtuSIsuumgaPHhw/r7gggumN954I9ccoxsyZEhOwkwJjzzySDrssMPSsccem+aee+5cG62eQYMGpW222Sade+65uVxOrmuvvTYHSu+9996cTCORR/KqiPJ+6aWXptVXX73SZ1LXXHNN3mcPP/xwuv7669Ott96aHnzwwTzsnXfeSUcccUTaZ5990rvvvpuTVaeddloaPnx4DnL+7W9/S4ccckgOqu6www55OOdZEUnQX/ziF2nllVeu9El5/izn8ssvz8vYcccd0z/+8Y88bSPbBdaBBOfPf/7zvG4kC+nYlvHjx6d///vfqU+fPunRRx/NHYHtc845pzJ1ShtttFGeR5QV1lGSGsF1kOsGibJNNtkkHX/88fl7o4YNG5YfBFlyySXz9W633XZrfdBijjnmyNevWrWfO4MpuQ1LLLFEnvfMM89c6SNJkiRpcphokyRNhOD6Bx98kB5//PGcXPje976Xa+gstNBCad55500LLLBA+spXvpJr3lx00UU5+E6gnenU+ZA4IVmz3nrrpR49elT6Vhe1m6h9QA0sygioXXDSSSdNNIyEEygXl112WS5D5ZpVTEcNttNPPz3dfPPN6cYbb8wJI5DcokZW1KTicyR4CaqSoKIZyfYgUczT9sUaCARpDz300DRgwIDUr1+/XLZff/31ytAJ2BaGLbvsspU+kyJhuPHGG+dEIIHLNdZYo7XWHTXEWGfmzT5eZpllckB5xhlnzNvL+My7V69eeT/RFFo0hxZIdB599NF52kDSjaQc0/fs2TN/51xk2ka2C6wD68LyWbf55psvzTnnnGnEiBHpww8/zNu17bbb5vnQ7bLLLvm4M1ySOkLv3r3TKquskn97cH/gWs21La7/JP/LDx/gtttuy9c1runf+ta38sME1OLl3kK/Yo2zYq1iagFzX+L+VO9eU1Qcj+v01VdfncaNG1cZmvL1vq2aybFOQ4cOzbWHmVexlnDcS3/yk5/kh0mK23Dqqafm5QcehjjwwAPzNZ/7yL777lu1VjL3L9aLmoObbrpp6zASkj/72c9al01/puU+fdRRR7XepxHbxjz4W6xRXm86SZIkqTsx0SZJakWAhNpL1G7ZYost0re//e0c7KE5upEjR+agFE+b8/2CCy5I3/3ud/NT6IxPrZpaTRBp2kVTXSRpeHK+LSTCCOQR2PzRj36Un4anXIBaTjQByTBqZxFwIxD4wgsvpEsuuSSXD2pWsSzmE2jqkfJDmSJ4efbZZ+f+999/f3rggQdyrS06Ej50mH766dPss8+e59eRCKQ+//zzafHFF6/0STnZREJ5q622qpuIXG655XKtNs4hklD33XdfrjEAAp0kr2j2kf1XDFSyHZw3JKwJ2rKNjFN+3xDjsd31sL+rTVttu2ohYMt6kLzjb7l2CbXb2CfR/5VXXkl77rnnJNslSY3iGkUt3BlmmCHXaqZ5YK6lXBe5flLbN+4N1XD9oXYcNYIfe+yx3BRuEdfYX/3qV2mnnXbK17iLL7441zx+8skn695riq688sp8v2R9uG+RoIpkGvPknse9j888kPCXv/ylNYlVxL3uoYceyvdE5sX4xVrC7AfuFWxLEc30sl6RyOKBBx6AYp9xL+bhDuZF7XC+k4DjHsnDJdQaJ1FJjef//Oc/+V5RxHhM869//Svfw2km+ZZbbsnDuMefcMIJ+aErPvOXcbkH1JtOkiRJ6m5MtEmSMhIiP/jBD9KPf/zj/FQ1QZpGEEgiAHbwwQenn/70p3k+6jzeeuutnMApNtlI8IxmHOP9OcX3rRBopGzQjCKBxP79++f+BDYJBEbNqqWWWiq/V4YmKQnEURuSmlWLLLLIRLWhqC01//zz5+morUUSh4TuqquumoN7rBsdT8tHUg/UrKxWY6AaagNQw4vaW7zPJ7atuF2UefZBvDMuUGuBbZ1nnnkqfarjiX7OBRJUBH1pfpOaFWwLCStqTxDsJBBKoJLgJ8FfxufdagRW2Zf0J0jLvmoPgq9nnXVWTpAXp621XWWxj2gKkpp5s802W25ukmNKUJptozvvvPNyQDVwzP7+97/n7aJGCWUiAsGSVA/XDK7F1KQlqfbDH/4w13J+4okn8jBq0VJLmGskzeA2+rukjNpb3GdIBHGv4cEFmsxdeuml27zXgO933XVXTn6xPqzX5ptvnu8l4HcPn6k5zPyZJ9fh4rUyMB7vRmM+dLvuumtuGjiSclx/qelWfrCDpBrzpiY3zSZTk2zNNdfM4/Hbi33EcOZPDUGSl/fcc0++pkeNZe7HbGusd2C8tddeOzdRyTy47lPLHdyXuK5vsMEGeRj7kfsa61BvOklfLBLz1JjdY4898rVvhRVWyB2f6cewag8VdITuumxJkky0SZLyk9086U3NIwLmzWA6av6QOCFIps6r/I42npQHAbsVV1wx7b777jm4Fk1voViLioAegUISdjxFzxP0NNVFQJXgaRHNJRaRyCOoSTLuz3/+c05WMR0JsmaR+KKmJkHaX//6163bFtsFEoUsd7vttss1E1hvgqTUPFhnnXUqY1VHwJFAJMFMgsQsh0AsTYCBACS1PyOhyHIJ5nLOcK7QHNjll1+el0kQlO1m3zWKgOo///nPnOAsv0eu2nZVE/uIYDJNxlLDg+NIQHj06NE5kEqglYQj2wFq7NH0WDRdue666+bgMsdQktoS72jjmsH1iQQY10WS/HSBBBjXI651zSARxsMf5fsNGrnX8PAAzVryAEJgXGr4gvkfeeSR+bpPf9ad+yP3gzKmYZzAPGnuN8Yt10gO7APWkRp4PKTB+nCfBTWJaa6S+wpJtLh/kGAsNjdcC+PxEExgP8VDNNzjSep9/etfz/cJ1oEHYlBvOklfDGqVklAiic/vUFpY4GEqfqvS8Zl+DGMcxu2omqjdddmSJAUTbZLUjfEPj+uuuy43d/Tss8+2Jk2axfxoFomAPO9OKb6/RJ0fSRQSqSSFaOqKvzQdiOI7xShHNFVIAI4kLsmkK664IgdUCaw24owzzsjBSGoxMB0JsiKWR+CxI5EsovlKgpjM//zzz09/+tOfciCUdSFJSBCWd+ZE7QMQ8KRmIDXGqElAsJWkE4k6klwETvlbDU2H0fwqySsCyTTvSFKr0ffPEXimOTBqKtB0I/MoK29XPSTNSNYRQAU1LmhyjUA4teII2hJEpn81bH8EnyWpvUi2cZ0qXqtIhnFf4frSDO5F3JOq/cZp614DrunUDH733XcrfVIel4cQwMMpvH+UftFx36v2Xk+mYXhgnvWuqUWrrbZabhqT2hizzDJLno6kF/cpHoDhnsODJKwPeBiikVYGGL84Hr/l4p5FzXFqLVPbmnVl+TRXiXrTSZr6fvvb3+bfqCSUGsW4TMO0k6O7LluSpCITbZLUjRHk/8Mf/pCb+KuHp5QJMhEIqhbILyPQQhOUBK4mN3mnKYt3h1HLqZHgGE1tEZSMBGoxqUIThfGeMQJxPFFPwoiaADR5RbKJRE+xucZ6CKzytD5Px5PMo4ZVIJhHYiuCiY0iWPqLX/wiP5UP1o1/ZJMMZL1JWrF+rCsdzZgVA6ckCQnCkthiXoGEHwkq3uHDPEjC3Xzzzbn2F+tPbT72D9vBclgGiSsCyjRdRk0yhnGukPDmfKSpzbawLN6huOSSS6avfe1rredmW9tVdMMNN6QDDjggHxsQpOUJX/Y920xzl6wf82Ecas5RI4/tYpuOOOKIvL0MZ5vpT5mSpGaQPCJBxHu/uLZwPeO+Q41dmv+thWsytblIZHGPKIpE26233tp6LeM9oyTD6t1rAr9/uFafd955eX3oaBI53nXGAxJct7kHch3ngaP999+/dXgR/c4888y8bXQ0zUstMZbfFu6lTMO+4WEOrvlsK3/jfkgt7KhVTA107ku8z63eevEgBuOxDewfmkxmvcB9gGPCe1xZFs1Fss9QbzpJUw8tKVBDiwfEmsW0zKO9TfR212VLklSNiTZJ6qZIrvz1r3/NL/+vhUTK9ttvn375y1/mgPvhhx+efv7zn+cmBHkCnEQC7wYhyVBGUIt28ButmaMvRryPptjcX/kdbXQkanh3GH9JEG211Va5BhfTg6ZHL7zwwjyMp0MJ5hGY450IBB/pT/KHv42g3J166qm5NhnltPhOGYKhPMVfbLKqGSSOafrwggsuyGWZ9wRRE/Oggw5q1zvS2D8EbUmSkfSiFgP/YKfZRQKgBCN33HHH3Iwj209tQGo/cN4st9xyac8998zNfrHMn/zkJ/kdbo0kEWmqlSQZx4JpWQ/es8bxbHS7aBaTRCDzYHqa02EevGuI7/vtt18aOnRoXm9qqjJuvOttm222yYFvtpflXHXVVTk52Z59J0lFXDO5JnJ95tqy/PLL53sJ9596SLTxbjQeOqApyCKuX1xzSdjxmfvLhhtumJuTrHevKeIexzWR2sNMQ+KPd4WCefKeWu59XP++/e1v53emVZsX05C043rK9rGdXEsbwUMd3Bu4/5GMBEkw3hfHPOjHb7r4TUYCkXsKv91YL67PrFt5vdgP1Nhmu5gHTazRVCRYHvcptneVVVZJb7/9dmvtu3rTSZp6DjzwwHbV5qqFeTCv9uiuy5YkqZoeo0aNsqqBJHVDPI196KGHtjZ9VEbQ6uijj861f6jJQ3CF2ksEiWiijtpwBGsI7tDUXLXmiXgKnBovu+22m83JTcNoApImoQjARa2o9qBmE0gkTWk8lc873wiKkhwqY10IDFLrSpKkaQWJKB5aIiEXNaslaXJwPZmcGl3V8O88rlVt6a7LliSpFhNtktRFkZColTTh3Sc8UR3N/5QxHS/254lvaiSVx6MmEU+MM4xxeW/I008/XRk6MZ7YpuYNiRFNm2gG66ijjso1BqiR1V5TM9H23HPPpUsuuST94Ac/qFpziqQhzS5Si0ySpGmFiTZJHYmmvmktohpqnu6www5p7bXXnuR6QzOwNJ172WWX5eZgq6GZdFo9qKXWsmmGkQfheO1AW1gHHsjk3yFFzS67I7S1bEmS6jHRJkldDO/e4EX51EDjHVk0u0RzQ0UnnXRSbvKxFt7rcfLJJ6ff/OY3OXFRDbXYqPFGc0H1Em0k4miWieacJEmSJEmTh6RWtaYTeZ8jD9DR1C3vUKRJ+OK7K2n2m6ZlZ5hhhtxkLk2al6200kr532+11Fo20/BvxEbwvmX+PXrXXXdV+kzQzLJJLO6zzz65ifN4t/gss8xSGfq5YcOGpU8++SQ3wXvWWWflZs+L2lq2JEn1+I42SepCeM8W71Pj3SC8i4N3RJ1++ukTNQ/Ji/R5eX09vJifpx9rJc9w77335nc3Me96Ty1Ssy5qPEmSJIUHHnggN/d73XXXVfrUd/bZZ0/yDrZmPfPMM/l9lvwumtKozUYNDP5K0uTiocpa7yfjvYlzzjlnvr7RHCLvkCShFd2tt96ar3/8O49ab/HexSLmzTKqqbdsjBs3Lv8bkYRVrVcU1NPMsnm/Mf/upcWWwYMHp/nnnz9vV7mjP8N57+SvfvWrSWqv1Vu2JEltMdEmSV3IzTffnG644Yb8jxoSXO+8806umTZy5MjKGCk/1UhXDy/X56X/9ZrfGzNmTG4bnwBVW+/1uv3223NzlZIkSYHfB7vuumtuCqxY46IWmjgmaCxJ3Rn/5quFJtSpsXXttdfm7z/5yU/yvw9pJvLEE0/MrwAgEffYY4/lVk9o5r+aWsuot2zwb9APPvggP1jQyHW9mvYum4dEe/fuXfnWGBJvtMxS1tb2SZJUi4k2SepCaC6y/OQgTUnyZGF4/vnnJ2kLv4wmNUik/frXv07LLLNMpe+keBLy/vvvr3yrjSQb7fBLkiRh+PDh+TfJ17/+9fT666/n3zDg9wK1v+L9sARqacqa2m/UkI9a8ryzk9oac801V/69QmAXPAB03HHH5abR6Agsf/bZZ3lYo2Le1O7fa6+90quvvloZktLLL7+cE34MI4BNc9yxTjzgtO++++Zh66+/frr77rtzf0nqSFwPa5l55plba88edNBB+RrLv9e4VpFk+8pXvpJ+/OMft1mbt9Yy6i0btHRCrTqu43369MnL4aHP999/P19biw+A1tLeZffv37/y6XNcj0kw1rr+RxOTZW1tnyRJtZhok6QuZIUVVpioPfqePXumNddcM/8jJ9Aeflv/wHn88cfzP04IXl166aU5YLX55pvntv7nmGOO/I8S5k0Cb6eddkpPPvlkZcraeEeAJEkSSLLxe2KppZZKc889d/7tAZr2wiuvvJL/koDjvTq8dzaMGjUqN4196KGH5iQdtTKovUFNilNOOSU/UPToo4+mhx9+OE9Pk5ON4vcP7zc65JBD8meSan/5y19ysJhAMUk9km8Mo6nu4vuN/v3vf6c11lgjDzv22GPzdxKKktSRGv131XrrrZffgcb1jGvj8ccfnx8E4N+Hbam1jEaWPWTIkHT44Yend999N//de++98/Vyyy23bL2e1tPeZZffRw7+ncp9goQfrzyoVruOf8+WNbpvJUkqM9EmSVMYwSCehOYJbYJKPKFNIKgR1ATjiUTevcbn4nQEnQgg8Testtpq6YADDkirrrpqrom22Wab5X9YFZ/yo7ZaW814PPjgg+mCCy7Iy+QfY7vttlv+hwrt7f/rX/9KP//5z9O2226bE2/UfCvWmKuF4JQkSRJ4T9Aqq6ySBgwYkH+30Iwkv08ImPLgEL9xwMM81MKgWesifn/w+4q/NCdJDTRqtfF761vf+laeL02DEdwlyNpowuuFF17IiT9qfRCEZd369euXE3q814hEIO/1YRhNru28886VKVN+/xHLYxjzoCkz1k+SOlLU4G0L1yL+7ReYjmtS+XpaTa1lNLrsIv5dygMPxxxzTHr22Wdz05b1dOSy+XctrbAU90M9zSxDkiSYaJOkKYRgES9T/sMf/pCfaKa998suuyz96U9/SpdffnlDL4e+5JJL8vQ//OEPc9MXkSAjWccLpkmq/eIXv2jtT821PfbYI/3973/PtdBYFkGsak/r1UMTG//85z9zQo31Znk0r0F7/muttVbab7/90p///Of8jyVeot3e+UuSpO6L3xUktJZeeun8nffr0KRYNB/Jg0M0dUbNNP5SS6z4PljeI0uTaARPSXqR7GJ6apIRQC4GkUncMW2jCS/W68gjj8yJOpbDvPj9RpCWYdTA4zdRmG666SqfJjQ5SW03WgQg0dbWO3ElaUriGsn1k+YjuS7xEALXwttuu60yxtTBw5kzzDBD7qaEaGq4jHvLxRdfnN8FWqvWmyRJHcXIqCRNAfxo50ntH/3oRzkAs+eee+YgEE85886Oo48+Or/Xo61mMzbZZJO0xRZb5Cf/CNZEjTaetOO9HyTyLrzwwonmQ/CHd5KsuOKKOchTDAaBZprK/aphGTx5uM8+++R/nP32t79NN910U+5PwIrAE82OEIyiHf628L4ASZKk//3vf7mpR4KgJLOWWGKJdMUVV7Q22bXQQgvl31LUTqMJyWKzkWH22WfPv6XuvPPO/DuLh5pmnHHGXBufLkRLAtQua8SCCy6Y/u///i+3SBAd60HtNYaRTCu2MBDLooYGDzjtvvvuufYb78hlfEnqaPVqpPHvQlokAdckrl80eXvjjTfm2sE8TBk1huuptYx6y+4o7V12tdcicI/gXXQLLLDARA9qtGVqbJ8kqWsy0SZJUwBNGf3sZz/LT+/x5OA888yTf7TPNtts6atf/Wo68MADcxLrj3/8Y92abfwDgSBN/GMp8ETiRhttlJZccslc2634NHVbmGe1F0YHaqfxHjae5KamHO90u+eee9Lf/va33FwkgSaCSFdffXUOXhHUIqFY7SnBIoNNkiQJ8c6gYjKLmvI80EMSi98U1Bz7z3/+kx8aKv8OohlIHgR67LHHKn1Sbt6R8Uja0cw1wWZqxJ1xxhlp5ZVXzr9XGrH44ovnhB/veGNdXn755bT//vvnxBnDqNV2xx135ETgfffdl/773//m6fjNRDA3fu889NBDuelvSepo1R4+CFyreLBy+eWXz9eg733ve/nfb1xTqQHMQ5rgWsV1rNZ1qtYy6i27o7R32TzcUHwAAvybtl6CjVrKNAdcNjW2T5LUNZlok6QpgBprJKiovUZyrYxaajytfemll+YkVnvRRCRPbxOQounI9uBJRpJotfAPs0MPPTQnBKv944Qnt2n68tvf/nY67LDD8neSiPzjrRbmWW+4JEnqHnhIh/eurbfeepU+E/Cd2mK8mxa8I42HetZdd91Jfo+QNPvOd76Tm9AmwUYNDZoGo9Yav494NxuBZQLNPDy0yy67VKacGLXqmBe16ui+//3v54eXeOcbNfmZN793aJGAhB8PK/Ebid95PER1/fXX5+WC30Kbb7552mabbXKyj/cCWZtf0pTw5S9/ufJpUlzXaL3kd7/7XW5i92tf+9pE3U477ZSvmRtssEFuQpIaxtXUWka9ZYctt9wyHX744fnfwfzlO7iuH3/88VX/fVzU3mXzSgUefOD+Eq9UqIZkHA9hcJ/hFQ1XXXVVZcjnGtk+SZKq6TFq1KiJH/uQJE0W3i/Ck9MEZI499tj8jrRqqPFGM0fUBqMjeQbazWce/AOAmmv8g4Gntrfeeuv8RCL/cKL5Rv4RQUfQh348Dc64vF+NQBOBJZ7Ue//99/Nw/kFDf/rxXrXbb789L6+MANPvf//7PD9e6l/vHyus83nnnZdfcL333nvnxF81JO1oH1+SJKmzovbDUUcdlQPH888/f645QhPa/E6L981J0pTG6wMiyV8NDxnwb7MVVlhhkpZMqMXGA6E88HnyySdX+k7qrLPOSsstt1zl2+fqLZtmdzfddNOG3t9N7WBqNldL9DWz7I5Sa9mSJLXFGm2S1MEeeOCB/J4Omj2aZZZZKn0nxdPOJLN4epsmkED78vy4J/FGAounqYcOHTpRUxgk0371q1+l7373u/mJRF78D/6R8te//jU368h0Tz31VH7qmn9kMR7/8GH+1C7j3W9t4YlHEn310Ozl888/n//GepTxFDrvp5MkSerMaDpyt912y82CUwOOgC812Ky1L2lqIhG00korVb5NinewUUOX92lTi6zY8UAoNczqJdmYd61kU71l829U5l9eZrXuG9/4RtUkW7PL7gj1li1JUltMtElSB4t/MBCAqddEY7xomdppNGGBW265JSfLaKboN7/5TfrLX/6Sn9x79tln83DQxBE15TbccMPcn2QdSNyRYKPW2jXXXJPfSbLvvvumCy64IP+Dge9XXnllHpcgEQm3eqgBx3Kipl01JNF4YvKll17KzUBVw3qVm4eS1Dm8++67+f1EkjQtovlquqmF3z38prnhhhvy7y/+8r1aU9uSNCXtsccelU8dr615d9dlS5JUj4k2SepgNNMIaqGVX8pcTQRnGPdPf/pTWnLJJXPb8DS5QbKOH/zl+bAMEm7lJBj9SeDRPORGG22Un7Am2feHP/whN0nJi/nBO0N44rBeEg081ce0CyywQOt2Beb79a9/PTeRSbNJNENSxjjUvIukoqZdr776am6+ZbHFFkuzzjprroXI+2XqlWESxCeddFJaa621clmlqRjed0BZq+W///1v7kATXLxjh+ZN24OndHkKlmV+6UtfSn//+99bk9X1sDyabG1k3CKaT6U51anR/Cn7+8Ybb8zvd2T72LfUbq23T4cMGZKbLHv00UcrfSbVzHzBPqvVzOzHH3+cjjvuuHwMmCfJ///85z+5+dp6aBaXp6z5W/zcKNaZdWcbKKu8O2lqJgOffvrpdMopp+TPPMDAfuf6d9FFF+XrbrUX6+PNN9/MNYx5Zwr4y34rdlzvqbXcDM4Lzlv2CfuGBy447nR33nlnPj9ZBucONakb0cg5/uKLL6Ztt902rbbaannbGzlXpsQ5VW1/3nHHHZWhEyteh84+++z05z//OX+mHNIEIPvw7rvvbvgaVZyHGsP+j+NE7fn9998/nyNtKR47rkE8lMT9q4wmuDl2lM8poZlr15RC2a9W1i2XUte2zjrr5Ht6R2OezLue7rpsSZLqMdEmSR1soYUWyn8JRNYLOEdzkSShSEgRXCURRgKt2OQk72BbcMEFK98aQ+Bq1VVXrXxLadCgQTlwSAIuUGuOl2DXegr7tddey+8goV1/asoRsFp99dXT4MGD89PbBMUIrh5xxBG5Jl4ZiTnGIzDbVkJPXyyaGeVY77jjjvkztZioTUnigIRGtWQbAU6aJqUmwRVXXJHLOu8cJJlD4qveu/0CtR2ZhsRvo3gfDi9wJ7lLbYJ77703r8M555xTGWPykVwggBqBS8ryz3/+81zepzRqhpLIOPfcc/P2XX755flF9dXOMcQ+4Dy76667Kn0n1d75toXjzz6hZiwJCeZJeXnllVfSv/71r8pYUwYJ4FtvvTVvA03WUm7/8Y9/tJng6ygE8EkMUMaHDRuWr9nURCagX+sdTZxXv/jFL3JzSoHv7LfoONcI8NDscHuRCOK8I5HM+XvaaaflIDu1jTkmp59+em4iin104IEH5gQpx7CeRs/xxx9/PD8cQjKPc7qRc2VKnVO8J7S4T9dYY43KkNp22WWXdPDBB+fP7C/un+wz7qGNXqOK81DjKKccJxJlNGl9/PHH5++N4vyj+TMeUCLhRW39SHTznlqO3cILL5y/d0eWS6nrO+ywwzq0KUXmxTwb0V2XLUlSLSbaJKmDrbLKKjlQSuKMIFAtBIMI6FGDiGQbTUiSnCMAWaw9xud+/fpVvjWG+ZabrSy/lJoEGjWYCJAW8b41AvYEQamd8utf/zonMVgHgqJ77bVXWnvttfOT50cddVQ6//zzK1NObJFFFkk/+MEP0nzzzVfpo2kRSSWC6H/84x9z4JxAP++gIcnEPzgpx9VqC91888253B5wwAFphhlmyAnbeeaZJycP7r///lzrB9Sc4QlREr0HHXRQTlIEzoGoYcZn3k1IwoJzggA5CZwyyieJY4KooJyTDKAmEKK2E+WaZAi1HarVECouG1E74fXXX8+BSZISX/3qVyeqfRSJN6YhUcF60p144omtSR5qWrANNNvKNlODKd5fSOKCdyWyXuwTEhRlvEeRRHsk2wnw04QrNdGq4TxkvjvssENO1NeqDdXe+bbl2muvzQkm3lPE8QDlgJqy++23X/7Odsd+YDnVjmdZsbxwralWU4VkFfufbeC6xnceXCg3H0dZ4DhyjFg+ZRa1jj1/GfbTn/40X/sorzFO4PjygMJ2222Xyx7X0O9973s50cnfWk3ysj1HH310WmaZZSp9JsZyqDlYfEAiNLIf2RdsK80Ecy6SXOChD8ozNZJPOOGENP/88+dhJCXYN5SJeho5x9kf7AvKNceB/Vc8V8rnIw9oxPlQHI/Pp556auuxJ/EficBmylFZvetQ1JBiXaiVx/nMdvO9XFaKtWk55rEuMQ80eg3S52jymt9O/A7iuNe7xhbxsABlnHOXaxH7nRq2HIvieQ2uJVxTKAPU0LzsssvyQyTF6wQdn+lXVhyPY3v11VdPVJO/kWsXaq0HiuWLv3EfRXE6zgMS2+WHYPjO7zVqsbG+5XJZXH/2VWxnrDvlld98HAdJnQe/Lzoi6cQ8mFd7dNdlS5JUjYk2SepgBJ932mmnHBzkqfhqCIYQqCYJxUuqCTKROCBoTICpWPOM4FLUfutovF+NICJJscDyeK/b0KFD83oSpCKgRPNhBFPpqO1E8IagULWaSyTlSDYQOKtVY07TBpJoBPc57gQzqWFADSmC/tQeI/FGEK6IY06Qj6YCKbtFlGP+wUoSiVo2/MOVxAXnAwkYapzU8sADD+QySXCbGkqUuXLZJ8jIOUKAu1owlPcQEny9/vrrc+0Ukgx/+9vfqpbTaii7BCkJaLKuJBWKOCdoNpBgME0Gcg4QtKf2UGDfkahmm0k+xDBqArH+BIZJKlLbopzsoClW9vdjjz1WtTnWMt7hSAKFBA7rVu2l8mjvfOthX5JooZnE8vEvYvtImLIfSOrxvd61jPFI3pO84jO1MbjWRJKjFsop+3W66aar9JmAfUP5pixSlmjmsZFmSimHlGOa8i0/sMC1nfLBvqR8MQ416wjulx9mKKJmcr2aatSG4+GHRRddtNLnc+3djyCxwzgkxoooI9RWZn/Ve09no+c4TVVyzSA4f9999+UaYEXF85FyT3KKY1HtfGS/M4zxGM75gma2v6jR6xDLoD/nPvPnexHHm4QgDyBwveQaRUKW8lc0udeg7ohrOb+JSOhSLtu6xpZRnimHPHDANY5yWUQZ4CGA+G1Gk6UcH2r6ci2j7FFTlo7rBl0Zx5UHG1gfrvFclyKZxjwbuXbVW49i+eK+QHmlxQDKV3k6ag1Tq7T8blxq+rI9JKbL5y01jjn3WX+S6DxQxTlODUJqvPLACuce1ymOhaTOg397xsMqzWJa5sG82qO7LluSpGpMtEnSFEAQnSfiCdqVa7UR6CS4QgCYJo8imEeQlaeUCeQQDAHjPv/88zlhx2e6UPzciGrjU1uO2hkEi6nFFEkxAi/FoCDT0i+CtwTAqiU5mB9BRYI0PKldL/CsaQOJVI47x3bOOefMyV9qxxAY5lgSwCyXHcoC5bpY87KIQDzlg4QZT8h/5StfyWWBMrb55ptXxpoUiVmaJ2Vcls1T/eVmxKg9RcDxhhtuyONTy5J/IFMmCU4S4CZQzjaQNNtmm23SW2+91XpOTS6e9H/iiSdy7QmSMKwP7wgjORnBf9aJ5BfbQQLsww8/bN2HnN+Mx3YSiOW8LyIhRtKCJtRIZhCwvfTSS6vW5mDfUOuGawjBUZp1JdlRTXvm25a2jn8gUMy+YT+wfAK/1a4b4YUXXsjjRXkhAcwxJPhbC8f9rLPOSltssUUet4xmFCnjJLAI3lMu2kLzj9TarZZEJHDOPiMgw7ypIdjWfmgEgXu2u9o2tHc/UtZICnAOUQ4D5yOJ3z333DM3t1lOIhY1eo7XUz4fWX/ueSSvq82XJEmctxyDqFXTnu2nFirXDTqSFmjvdaiWe+65JyeXl1122XzNpExRU5B1ClPjGtSVcB3lWHHfIan2wx/+MD9o1NY1tr0oA5wLlA/KAInvY445JpczrjMcR66hdJSV8gMQfCcxRRllfVgvylAc+0avXfXWo1i+GMa86EiclaejxirB4WJCjN+K1GajRnbUMg6sP/PZfvvt8zC2k/tUseYpSUP+Mv3kBK0lfXFI1PMQCL/zGsW4TDO5zSZ212VLklRkBFSSpgCCkATRCXwQ3CVIQvCIYNtVV12Vn0Tefffd009+8pOJanzRRBfj8WQ2TxxTU4JACAF0nrQm0ENgmSe2mSfN6PFEMjULCEoSSOHJb4LBPNnMk88E9pkXiRSSezy5XQ4ikeCjhtrXvva11qbl2ouEzFZbbZUuvPDCHChS50DAjeAaf0kc0FFWCG5TfiMRV0RglHJSrHlZRBkkGE7wkWB0cfpyraMigu/FcVmPajWQCIT+/ve/z2WZ2i2sI0F1xqX5wGItHhJZ1JIol/lmcU6RRKcL7DvWO4L/5SQC5yDLJ4i64oor5nOfRE6xybCiaCqN85naU5zL1d57xnaTDIl3EJFwI1jLNaKaRufbFraPWidt1dCh1hcJB44XQWhqbNRDeeHdewSxKWPsY/ZRrXLG/uZ9fSSPSFyWrbDCCjmh9OMf/zgHrGs1CVfGtlVLsnHNpYYniSIC5Mzzu9/9bmvTbEVcg2m2ju2IYHYtlFua/aQ5t2raux85rtTIodnSYlmkthmJWGosUzOs3nwaPcfroRyWz8d6yudNrF97tp+HW0gS0kVt1PZeh2rh+Ndq+jNU2+aOvgZ1JfGONq6R1AjjvGrkGttelIGlllpqkjIG7jNcD6mVSrmnqc8yjiu/sWabbbZKnwnnSLx/ttFrV731KJcvtpeHX1i/atPxO7PYXC7LI2HJb7Ey1p/fiVyzWD86HrJieuZJc6o0U8n1jdqAnHOSOifOYx5A4yEkfgeQUOK6wLlOx2f6MYxxGJdpOkJ3XbYkScFEmyRNATxxTI0ukgEE9Eg+Edg888wzc/LiwAMPzMPKTx3zFDRNMzINAVECsATledcZQRaeOCYoxZPxBPII5BL84TtBPGq+bbzxxvldQSTVCKJQm4ZmyfbYY49cA4hxSdCVEYhkHXlXF086NxqIJGDDO3qoFUdHMF+dB82GUtYIBvMUO8lWkkE04UjQ7pZbbpnkmPIP1vXWWy9dd911k9SIoszSNBUBQ6YnYFdMJhUDgx2BWiNbb711XgbbQICTZGHgvOAcKNccK+O8qnZelBEIZhuK20EglOW3lXighgPnFgl0ah7wt1bzsiDQynnO+VUt4UjglEQj43Ae0gwttT7aqjnT1nzbwrJICpFAqpVsY59zPeD6Ra0Omj9bcMEFK0OrYzjXv0iU0FGzpVrinoA7TyJz3aLcFpMogeswNUBIhPGwQa0m4Ro99iSqCM7QLC7TkLTk4YdyM3Ug4M76MV65CcIyzhGOx7zzzlvp87n27kfOV7aVJFP5/hKo6UZXr5w0eo7Xw/LL52N7NVOOyjrqOsTxJ+FRT7VtbvQapAkm5xpbC/c5fnsVy0A444wz8jWNayfnKzV/yzifScAXj2vxutHotaveepTLF+PwcBZJxmrTkewu/k4jGc25WS2xz7rz/kaamiyuI+vMuc4+58EvHtyixiv3FYZL6rw45/n3IwklHkLhgR46PtOPYYwzJXTXZUuSZKJNkqYQghckKwh+kOSiZgUBWT5T8yuehC4i2MPTdSTimG633XbLtdlIflDbjcA4TZYRPCYYQhOVNK+07rrr5qebN9tsszwtTyfTRBDBVAI0vNeDcUnMkYirlUQjoEMigKe7eUcbNUBo6otaBNGkGetI4JJ1ItDM+9sIhPK9+LS3OgcCwzSBxbtlqMFCjSierKeG0G9/+9scNKYclZEUptYOZSWSNQTBDz/88PzEKIlhEnTMixpUvBeMhF612j/tQfCS5sVYFlgHEgsEKUm6rbbaajnBwTqRILjkkktyrYByEoOgNzVjSF4z3jXXXJMDlzGM2jMEGlnvYnCT/cGyqAnGsqkpQKCWWlVtvd+BJsIYN96RRtC4fB2gSUz2IYF58Jd1K9fYIsFFUoUashE0ZX24trC/yxqdb6N4dxeBC7aH5YJ9ThNs7H8SYSS/IinCuNRaqYcm/XgogCbk2Oc8LLD//vu3HuvAvM8999y05JJL5utOtSQbhgwZkms6RqIo9ne9Y98WxqM8sf+pTTi51zzmQzOPHAfuGWUMb3Q/UsOT4eWm4wgsUduG48R+ffbZZ3NHco/yS2KhWi2xRs7xetjP3AN5jxnTU+5p6o5jUitBW9ae7a+lo65DPIDAsSLBXat8ss2NXoNUXbPXWJJh/FYh+VUuX5GoorYnZYBjw28i7ick8SgjHDsefOA8KiNRRfOO5513Xl4fOpJRcewbvXbVWw8ehKJWGvNgGOWVjlpo7A+m4zrOMJZ1/vnn51rSgd91nPs8DPDUU09V+k7AvqGGLw99sU+5hp5++un52kBznPvss09uKSHwe6/a9UiSJElSbSbaJGkKI7BL0J7m3QhsEgCtFRgGwwiK0NQUgQ6+R3CYjloaBEHiOx3fq/VneoLLxX6MU2/5zIeEC0/7ff3rX88BLgI/BGKpUUAAiWYsCZ7yvhKCN4zPdOqcSFgQPI/kBeWUGpckh0nYVisvlGOC9zwJT3KHBCxJZGqXUaOSaQh6EkT85S9/med5/fXXp1133bUyh+YQ3OedRyyLZRJ8Be8cA8lmapPSLBbBecoriedy0JD33bB9JJZJcnCOsb5g3anNw7qTuI5EDRhGkpvtp7YCiQSS3LH8ehiH2gaxz1hXrg1FJNoJ6JL8ZPv4yzlGcp1zkGlINpDwIUBK8D+wjYx/991352AqQVuS9YzX6HwbxTZQA5aAL/uBeVKzjHX4zne+k5OeLINjRZCYawb96mGeBIpJ8HKd+va3v53fzRTHJVx00UX5wQP2IeOxbB4IoCnNIo4hQWnKAfuJ7af81Dv2baHJz9hOmqSsloRuD44jiaNaT1eTdGhkP1Jji33C/iMZwT6ho7zxoAVBeM4V9hc1V/bdd9+8Xwjwc4+olgRq5BxvCw+HsO85H7kGUEOOZpvK52MtjW5/oDzHttOR1Ouo6xDJGPYd10r2Iwl/ymi57DR6DVJ1zV5j+d1EcpjkO8nhIsowtbf4PcNn7ms8LMD1gM8knEiaU1u11rWA84gyRS1apuF8ivO/0WtXvfWgrFATlXnwW42mNCmzzIMyz3TUhGY6mqwlkVdOdpPQ5eErxqU2XBHnIvNhn/KwFNd9fsNxveCazfWDdac5Xs4Py6skSZLUPj1GjRo1adsVkiRJ6vZI1BCQrdY8ojo/ag2RPCSJJUmSJEmSmmP1A0mSJFVFzYpG39eozoeaMSbZJEmSJEmaPNZokyRJqoNmGHnnjwknTS00N8h7oXzvpSRJkiRJ0z5rtEmS1M09/PDD+b1TvH/mS1/6Uvr73/+ek0udwbBhw9Jhhx2W33VGx7unXn311crQycf72XhfHe8ia8T48ePze6RoanHWWWfN73XaZ5998ju0Otp///vf3OHss8+e5L1EXdXk7GPe4/b9739/kve5TY625vnMM8/kdyC9//77lT5tu/322/N0jWLclVZaaZL3k1XrT8e70sqefvrp1n26/vrr53f9gf195513pjXWWCM3JRqK5x7H4MQTT5zofYZFI0aMyO+NYjy6k08+OY0ZMyYP43zlvGU+XH/OOuusPIzuvPPOy+87Y5145xUJyGq4Xh133HF53sznN7/5TV5mqDWc/hy78v751a9+lZPrtfaJJEmSJElFJtokSerG3njjjfTPf/4zHXnkkWnUqFHp3nvvTR999FE655xzKmNMuwiEn3DCCWmVVVZJr7/+eu6+/vWvpz/84Q/p448/row1ed5999204YYb5gRAI2699da8fAL577zzTmuShcD9K6+8Uhmr4+2yyy7p4IMPrnzr2r6ofdwsmmb897//nWaeeeZKnyljo402SsOHD8/nMd0vfvGLvOz77ruvtd9bb72V9t9//7TMMstUppqA6Y455pj085//PJd5kmZ0XB9I4l5zzTVp9dVXr4w9IQH9xz/+MS288ML5HX4k699+++105pln5sRc2X/+85887lNPPZXHffbZZ9Mtt9yS50MCbLvttsvn74033phuu+22nEil41hffvnl+TjvuOOO6R//+MckyTyWd8opp6QPPvggz5v1WWCBBXLimWRdveF9+vTJ84z9w7z/9Kc/pfXWWy9fB2vtE0mSJEmSiky0SZLUjY0ePToNGjQozTHHHPn7gAED0qGHHpr22GOP/J0AN7VNyjU6yrV4qBnys5/9rLUWTrEGCR21WSL5Rc0jatAxz7322qu1BhpBcWq6MD7Luvnmm3P/Wki0ERhfcMEFU8+ePXO3wQYb5MA524RibT3+UkMFsf5Dhw7Ny2KZrC/rjahNs9VWW+UA/29/+9uJashUQ40lEgokfEhwxDqtuuqquebZ/PPPn/cP+ymWU9yPdOxrkgJf/vKXc3Lv0ksvbU1cFPfbQQcdlBMboVi7jWX86Ec/Sn/961/zdlETKY5bcR/TFWsWUQPq1FNPTdtuu20edsEFF6S77rqrdf+QcGGfI9Yl9mvUJmPZP/3pT/N+YB3ZTo4vx5n1pnbSZZddlrep3rrU0sg+Rq3jXlZcN7aTmluxv9uzP1AcVixLxWPezDaXMR/WLc699njyySfTTDPN1Hq+hxlnnDEdf/zxadlll009evRI8803X5pzzjlzmV9zzTXz/p5lllkqY6ecrCIxtcMOO6R+/frl841kJ4l6ElplP/jBD9Juu+2WevfuncddccUVc9KPaY866qicJOQ4zj777PlYUp5WXnnlvB9JUDKM7yQESYAVsR/Yrj333DPPm3mSuGM9WM+2hhcxLmVlqaWWqrtPJEmSJEkqMtEmSVI3RoKBwD2JmGoBf2rikKgh4Xbsscfm7wS764kaJCTWHn300fT444+nueeeOyeumA+B9UMOOSR/pibWX/7yl7wOjzzySG4ajvFPOumkdMYZZ9Rtbo8kCrVkSJZVq8FGEJ2EBM3bjRw5MieAjjjiiNYaKSzroYceyjVmSMywPlGT78orr8w1a66//vrWGjB/+9vfJkqslJG0ITi/6KKLVvq0H/Po379/uueee/I6XHTRRbmWFvvh6KOPztvAeu63337ppptuqkw1qQceeCAtv/zyOclD4pH9yXG7//7787CoMcQ+pwsM4xiT5CSRxP648MIL83dqNT3//PN5X1KT8Hvf+17+zF+mIfES8yCRQ80ghpOk2WmnnfJ6X3zxxXmfkvhoa12qaWQft3XcA/u0uG7/+te/crOprFtoZH+gXlkqamabG0U5IZnEOV1MfgbKLjXGNttss9SrV69K3+pY/3HjxuUk10ILLZQTXUXU8GI5kdAGiTjGZ9p6ONdZVxLkZVyDXnjhhZyELOP4sczyuxJpwpIyQQIx8J0ySDKvreFFHIvBgwfn5iXLivtEkiRJkqQiE22SJHVjBMpJNtxwww25CUZq71CLJxJXJCl4NxKBdpJl1EhpqwYONUWeeOKJ9K1vfSvXkKMGCQkAaskRRGc+X/nKV1prIjGcZuNAAJ9aJSRSSNa1FdQmUUdQ/Gtf+1pae+210+GHH95aS4VkFTVlqJHCslgmHckOsB7UwmEf0O266665aTsSMCTZqOnE8lm/bbbZJgflX3vttTxtNdR0IdlE7ZdmUWtmk002yft5ttlmy9tGYoKEGZ9jvy2++OJp8803r0w1KY4lTf0xLklCkpKsG/ubJNn000+fO+ZJMipQQ4ltnnfeefOytt9++9bvLJPjQyKQ5Ci1B5k/tchIrkYScumll87Hgm1gvRn+1a9+NY9LjSWa42Octtalmkb2cVvHPZTXjaQtCaprr722MkZj+wO1yhLHrqiZbQ6cF1tuuWVOEtFsJsvkuMZ702gOkkQhCSHOPY5RMQFNDUi6akmsEMtg/2288ca5DFZTTlA1igQo6095YX+WsS3sj3JTrWwH727bYost8vlYRAK5WqI9tDU8UH5pqpIHC4rlq9F9IkmSJEnqvky0SZLUzRHs//3vf99ae4fAMgFxEhrUiiHhxDgE9stNrVVDoJ/aI8UaJIFEG++DIwFHkoBxaErwk08+SSussEJupvHHP/5xDsI30qweQfdvf/vb6brrrss1pUguHXjggbnGDImU4ruoCJ4Xm37j/UysQyCATrN0bD9/55lnnsqQlJNLM8wwQ92kCOOQsImmB5vB9HQh1of9RvKxmAAo1+wposZScVy2mQQif3k3FYkMtp2ETVG5plO1mk9sHzUgeR8eNYyY14cfflgZmtLAgQNzkg2sN83wVZtPW+tSTSP7uK3jHqqtG7Wcik0TNrI/UKssUa6LmtnmwL4eMmRIThz9+te/zjW8OEdJDNGMJs1TkgRk/6y77rr53HjzzTcrU6d8zBZZZJE8Ti2xDJrBpNlSrgnVsD+bwXvj2CdcS6hlWTyOJCbPO++8fP5zfQhcA3iPJE1HFt8TF0jckdyspa3hgWsGCUT2ZVGj+0SSJEmS1H2ZaJMkSa0Iwm+99dY5AE5ihub/dt9991zjjMB+tebeQDA8kgrUWiLJUExYBKbnfW0kCKKj9lvUPqJ2Ee/aomm+9jarR+JinXXWSUsuuWSuSUTAnGRKYJsIpFOTCLyfjuUHaieR+CNJwt+orQQSbCSTSPTUQs0xavPRvGGjWD7r0RZqupH0LCYmqu3fttAcJ/uJd2mxbBI27cX2UXOKZCz76LHHHstJyGpI7NC8YrXEWDPr0sg+buu4h2rrRo2vegnMWmqVpXKCpyP2f6NIdpIABO8ypEYftbIawXWApBZJy2o4R0gAF2uKcVzoOP/rYb1WW221fE2JxDVJNhJv7I9iEo/rCk2fkmSmtmExeRxospLkI8sOJDRJ+DOvtoYHmv4kmUdirpq29okkSZIkqfsy0SZJUjdGkuuHP/xh6/urSFCR5CJZQUKAwHYk1whERw0ZguUEyQmQR5NrzAskXXivE++0Yn4Ey08//fTcJCXN7b344ov53W0kOHi31f7775+XT60RkjckBRCJAoL5BODLteno/6Mf/SjXNOHdSXS8H4vpadqP5hOpLceyGEaigS6arGOZZ555Zl5HOt4fRk0jEiQkAgjwk2xkfpdcckkOyjNf3uFVXM9A8mGrrbZKv/zlL1uTYmw767TPPvvk9SdRx18SRUzPe75I7rSF5v4I8LP+bMt9992XE5LtRYKBebEe1OBppnYOCSL2EbW/OPY01ViuLRYimUX5YL3Znxwzykq9deH9cyReojnK0Mg+buu4B8o460azqYxHuTz//PMbTkYV1SpL5cRsR+x/antRM4yaVoGywHvoWDbbwjnMMiKRxHaSKK6VKGcfHHDAAfn4gO255ZZbajYzyXElcUkNNMox5yJNva600kq5bBQxL5qfjXOedWT9WDfWkWsA773jmBaTdBzXc889NyfOaRq2WpIN7AeObbwXkvW54IILcsKM7W1rOOjP++to2jO0d59IkiRJkrovE22SJHVjNJ3H+8f22GOPnFijRgd49xkBc94DxnCSEg8++GBrs3MEqffee+90yCGHpMGDB+dgObXSQPN6++23X66hRj8C5SSTeN8VgfSDDz44/fa3v21t9pEgPE3JrbfeejlJQPB7xRVXzO/xYv1IypB0I8lVRG0hkjannXZabuaRjmTHT37ykzyM+ZCQYFkE9I866qgczGdZoHYUy+BdY6wn07Ct2GyzzdJaa62VhzEftu+ggw7K20RyjGRO+V1RoDlFEj4kDxnOth9//PHpBz/4QZ4P7wSjeUzehUftGBKJsT71MA7byvqznTSTyXvA2ot3jJHwJGH117/+taFll7Edyy23XC4r7AeOba2m+Tje1GCkJhefWf6GG26Yj2utdSEREs2AVmuqsa193NZxD5Rl1u2cc87J6/bd7343z5N1a68oS7xDrFyWijpi/1fDsjgnWTbl46qrrsoJ9CijNBtJ8rjWcaImKOWdJCbXAcoW7yUrJycD5yPnMQljmulcfvnlc+J1t912myQhxjYyLs3Tst2sIzXM2N/U/KOpSJrQpHlalk1H4vCiiy7KiS7Wie2gP+tETboilsdymZ5EWZyvLJP1bGs4SNAyf97TF9q7TyRJkiRJ3VePUaNG1X7JhSRJ0hfsX//6V1p77bVzsq+jEKw/7LDDcjKmWDOoLSQIqBlDIrH4Hil1HJIeJDO/853v1HwnWldHoomEEO9fkyRJkiRJ0zZrtEmSpGkaNV86Msk2Oag1RA0ck2xTDgmmvfbaq9sm2cB74qiNJ0mSJEmSpn3WaJMkSZIkSZIkSZKaYI02SZIkSZIkSZIkqQkm2iRJkiRJkiRJkqQmmGiTJEmSJEmSJEmSmmCiTZIkSZIkSZIkSWqCiTZJkiRJkiRJkiSpCSbaJEmSJEmSJEmSpCaYaJMkSZIkSZIkSZKaYKJNkiRJkiRJkiRJaoKJNkmSJEmSJEmSJKkJJtokSZIkSZIkSZKkJphokyRJkiRJkiRJkppgok2SJEmSJEmSJElqgok2SZIkSZIkSZIkqQkm2iRJkiRJkiRJkqQmmGiTJEmSJEmSJEmSmmCiTZIkSZIkSZIkSWqCiTZJkiRJkiRJkiSpCSbaJEmSJEmSJEmSpCaYaJMkSZIkSZIkSZKaYKJNkiRJkqT/b8+OCQAAYBgG1b/qaVhusAEAAEAg2gAAAAAAACAQbQAAAAAAABCINgAAAAAAAAhEGwAAAAAAAASiDQAAAAAAAALRBgAAAAAAAIFoAwAAAAAAgEC0AQAAAAAAQCDaAAAAAAAAIBBtAAAAAAAAEIg2AAAAAAAACEQbAAAAAAAABKINAAAAAAAAAtEGAAAAAAAAgWgDAAAAAACAQLQBAAAAAABAINoAAAAAAAAgEG0AAAAAAAAQiDYAAAAAAAAIRBsAAAAAAAAEog0AAAAAAAAC0QYAAAAAAACBaAMAAAAAAIBAtAEAAAAAAEAg2gAAAAAAACAQbQAAAAAAABCINgAAAAAAAAhEGwAAAAAAAASiDQAAAAAAAALRBgAAAAAAAIFoAwAAAAAAgEC0AQAAAAAAQCDaAAAAAAAAIBBtAAAAAAAAEIg2AAAAAAAACEQbAAAAAAAABKINAAAAAAAAAtEGAAAAAAAAgWgDAAAAAACAQLQBAAAAAABAINoAAAAAAAAgEG0AAAAAAAAQiDYAAAAAAAAIRBsAAAAAAAAEog0AAAAAAAAC0QYAAAAAAACBaAMAAAAAAIBAtAEAAAAAAEAg2gAAAAAAACAQbQAAAAAAABCINgAAAAAAAAhEGwAAAAAAAASiDQAAAAAAAALRBgAAAAAAAIFoAwAAAAAAgEC0AQAAAAAAQCDaAAAAAAAAIBBtAAAAAAAAEIg2AAAAAAAACEQbAAAAAAAABKINAAAAAAAAAtEGAAAAAAAAgWgDAAAAAACAQLQBAAAAAABAINoAAAAAAAAgEG0AAAAAAAAQiDYAAAAAAAAIRBsAAAAAAAAEog0AAAAAAAAC0QYAAAAAAACBaAMAAAAAAIBAtAEAAAAAAEAg2gAAAAAAACAQbQAAAAAAABCINgAAAAAAAAhEGwAAAAAAALxtBzKxCJLJ9UppAAAAAElFTkSuQmCC;" parent="1" vertex="1">
          <mxGeometry y="1406" width="900" height="194.47" as="geometry" />
        </mxCell>
        <mxCell id="jqnQhL8bjiXLY6pvGZiD-1" value="Número de serie..." style="html=1;shadow=0;dashed=0;shape=mxgraph.bootstrap.rrect;rSize=5;strokeColor=#CED4DA;html=1;whiteSpace=wrap;fillColor=#FFFFFF;fontColor=#7D868C;align=left;spacing=15;spacingLeft=0;fontSize=14;labelPosition=center;verticalLabelPosition=middle;verticalAlign=middle;textDirection=ltr;labelBackgroundColor=default;" parent="1" vertex="1">
          <mxGeometry x="149.5" y="338" width="575.5" height="38" as="geometry" />
        </mxCell>
        <UserObject label="&lt;font style=&quot;font-size: 12px;&quot;&gt;Filtros&lt;/font&gt;" link="data:action/json,{&quot;actions&quot;:[{&quot;toggleVisibility&quot;:{&quot;cells&quot;:[&quot;Filtros&quot;]}}]}" id="jqnQhL8bjiXLY6pvGZiD-2">
          <mxCell style="html=1;shadow=0;dashed=0;shape=mxgraph.bootstrap.rightButton;strokeColor=#6C757D;gradientColor=inherit;fontColor=inherit;fillColor=inherit;rSize=5;perimeter=none;whiteSpace=wrap;resizeHeight=1;fontSize=14;align=center;spacing=15;labelBackgroundColor=none;" parent="jqnQhL8bjiXLY6pvGZiD-1" vertex="1">
            <mxGeometry x="1" width="101" height="37" relative="1" as="geometry">
              <mxPoint x="-101" as="offset" />
            </mxGeometry>
          </mxCell>
        </UserObject>
        <mxCell id="6W6U57LQn8b714evhFmy-2" value="" style="shape=image;html=1;verticalAlign=top;verticalLabelPosition=bottom;labelBackgroundColor=#ffffff;imageAspect=0;aspect=fixed;image=https://cdn4.iconfinder.com/data/icons/free-ui-set/200/line_3-24-128.png" vertex="1" parent="jqnQhL8bjiXLY6pvGZiD-1">
          <mxGeometry x="544.5" y="4" width="30" height="30" as="geometry" />
        </mxCell>
        <UserObject label="" link="data:action/json,{&quot;actions&quot;:[{&quot;toggleVisibility&quot;:{&quot;cells&quot;:[&quot;Servidores&quot;]}}]}" id="qxrVwKzG3BPeDgjNHFg1-4">
          <mxCell style="shape=image;imageAspect=0;aspect=fixed;verticalLabelPosition=bottom;verticalAlign=top;image=data:image/png,iVBORw0KGgoAAAANSUhEUgAAAgAAAAIACAMAAADDpiTIAAAAA3NCSVQICAjb4U/gAAAACXBIWXMAAA+vAAAPrwHWpCJtAAAAGXRFWHRTb2Z0d2FyZQB3d3cuaW5rc2NhcGUub3Jnm+48GgAAAe9QTFRF////AAAAAAAAAAAAAAAAAAAAAAAAAAAAAAAAAAAAAAAAAAAAAAAAAAAAAAAAAAAAAAAAAAAAAAAAAAAAAAAAAAAAAAAAAAAAAAAAAAAAAAAAAAAAAAAAAAAAAAAAAAAAAAAAAAAAAAAAAAAAAAAAAAAAAAAAAAAAAAAAAAAAAAAAAAAAAAAAAAAAAAAAAAAAAAAAAAAAAAAAAAAAAAAAAAAAAAAAAAAAAAAAAAAAAAAAAAAAAAAAAAAAAAAAAAAAAAAAAAAAAAAAAAAAAAAAAAAAAAAAAAAAAAAAAAAAAAAAAAAAAAAAAAAAAAAAAAAAAAAAAAAAAAAAAAAAAAAAAAAAAAAAAAAAAAAAAAAAAAAAAAAAAAAAAAAAAAAAAAAAAAAAAAAAAAAAAAAAAAAAAAAAAAAAAAAAAAAAAAAAAAAAAAAAAAAAAAAAAAAAAAAAAAAAAAAAAAAAAAAAAAAAAAAAAAAAAAAAAAAAAAAAAAAAAAAAAAAAAAAAAAAAAAAAAAAAAAAAAAAAAAAAAAAAAAAAAAAAAAAAAAAAAAAAAAAAAAAAAAAAAAAAAAAAAAAAAAAAAAAAAAAAAAAAAAAAAAAAAAAAAAAAAAAAAAAAAAAAAAAAAAAAAAAAAAAAAAAAAAAAAAAAAAAAAAAAAAAAZtLcAgAAAKR0Uk5TAAECAwQFBwgJCgsNDg8TFBcZGhwdHyAhIiMlJygpKywtLi8wMjM0NTY3Ojs9Pj9BQkNERUZHSElKS0xNTk9RVFVbXV9hYmRlZmdobHFzdnd5ent9foGFh4iJio6PkJOVlpqbnZ+gpKWmp6irrK6wsrO0tri6vr/AwcLExcfIysvMzc7P0NLU1dfZ29ze3+Dj5Obo6u3u7/Dx8vP09fj5+vv8/f6yZdL3AAAHIklEQVR42u3d+ZcVYhzH8SfJvmQna5jsskbJVmRfk91I1ogKyTKUdaJCNKho0fcP9UOWJtN0L0du9/N6/QHPc87z/pzOnZkzU2sAAAAAAAAAAAAAAAAAAAAAAAAAAAAAAAAAAAAAAAAAAAAAAAAAAAAAAAAAAAAAAAAAAAAAAADQl069+Z5Hn3/z0w3rh15fOP+O64/2IgeGI66cc/9Ti99Zs27o9Wfnz5t1/D86ZOKlTwzXaNtX3He61+11J9/z1i97hPt4wQUTuqx/y8sba0xfPX2RN+5d5z3+xdjdvnv+hs43MOHmNTWO5ed66N505pLxun02s8Njrl1d49u5eIrH7j0nvbBjH+E+uLyDYy5eWfu2fdEJHry3TB7c2kG4twb29a//o9WZn2Z5815y9Uhn3XbOH/ejwJFLq1O/PujVe8e9OzoO99rhez/mtOHqwuLDPHxvOOTFbrp9dtLezrlqpLry8YnevhccN9Rdt+8vG/ucO3dUl767wOv3wNf+33bbbdvcMb/667p/1Y++K/S/O3+k+27br/j7OVN+qLKAjP5VG0/b85yj1lRZQEr/quEjR59z0PIqC8jpX7XsoFEHPV7/2I8X6nDg9a96bPeDpldZQFb/qum7nTRUFpDWv4b+Oml2lQWk9a+a/ecnwM/LAvL61+d/fA68tcoC8vpX3brrqElrywIS+9faSa211uZWWUBi/6pdPxN4oywgs3+90Vprh24pC8jsX1sOaa3NqLKAzP5V17bWni0LSO1fg621r8sCUvvX+tbOqbKA1P5VZ7XbywJy+9dt7eGygNz+9VAbLAvI7V+DbUlZQG7/eq29XxaQ27/eb2vLAnL719r2c1lAbv/6uW0qC8jtX5val2UBuf3ry/ZuWUBu/3q3vVoWkNu/Xm3PlAXk9q9n2gNlAbn964E2pywgt3/NaaeUBeT2r1NaG7aA3P7DrbUnygJS+9eTrbVLywJS+9dlrbWJGy0gtf/IxNZae6ksILN/vdJa+/e/HG4BB2r/umnXRastILP/J7//3eBrygIS+9d1f9y18r9fgL8p2nv93/vzsovLAvL61yV/XbfMAvL6L9/tvqnbLCCt/7apu994V1lAVv+6a/SdCy0gq//CPS6dtNICkvqvnLTntceut4Cc/uuP/fvFU7dYQEr/LVPHunrWVgvI6L91L//n32wLyOg/e2/XW0B2fwtI728B6f0tIL2/BaT3t4D0/haQ3t8C0vtbQHr//bSAHyygV/tbQHp/C0jvbwHp/S0gvb8FpPe3gPT+FpDe3wLS+1tAen8LSO9vAen9LSC9vwWk97eA9P4WkN7fAtL7W0B6//21gGn692h/C0jvbwHp/S0gvb8FpPe3gPT+FpDe3wLS+1tAen8LSO9vAen9LSC9vwWk97eA9P4WkN7fAtL7W0B6fwtI728B6f0tIL2/BaT3t4D0/haQ3t8C0vtbQHp/C0jvbwHp/S0gvb8FpPe3gPT+FpDe3wLS+1tAen8LSO9vAen9LSC9vwWk97eA9P77awED+luA/hagvwXobwH6W4D+FqC/BehvAfpbgP4WoL8F6J+ygJEB/S1AfwvQ3wL0twD9LUB/C9DfAvS3AP0tQH8L0N8C9LcA/S1AfwvQ3wL0twD9LUB/C9DfAvS3AP0tQH8L0N8C9LcA/S1A/75awPn6W4D+FqC/BehvAfpbgP4WoL8F6G8B+luA/hagvwXobwH6W4D+FqC/BehvAfpbgP4WoL8F6J+9AP2zF6B/9gL0z16A/tkL0D97AfpnL0D/7AXon70A/bMXoH/2AvTPXoD+2QvQP3sB+mcvQP/sBeifvQD9sxegf/YC9A9fgP7hC9DfAvS3AP0tQH8L0N8C9LcA/S1AfwvQ3wL0twD9LUB/C9DfAvS3AP0tQH8L0N8C9LcA/S1AfwvQ3wL0twD9LUB/C9A/fgH6Zy9A/+wF6J+9AP2zF6B/9gL0z16A/tkL0D97AfpnL0D/7AXon70A/bMXoH/2AvTPXoD+2QvQP3sB+mcvQP/sBeifvQD9sxegf/YC9M9egP7ZC9A/ewH6Zy9A/+wF6J+9AP2zF6B/9gL0z16A/tkL0D97AfpnL0D/7AXon70A/bMXoH/2AvTPXoD+2QvQP3sB+mcvQP/sBeifvQD9sxegf/YC9M9egP7ZC9A/ewH6Zy9A/34yc3O3/TfP9Gr95Ox13fVfd7Y36y/HrOim/4pjvFi/OXiw8/6DB3uvPjSvw4+CW+d5q/50xpJO+i85w0v1rWlv7yv/29O8Ul+b/uF4+T+c7oX63oxFG8auv2HRDK8TYcLAIx/tHB1/50ePDEzwMkEm33j3gueWrvrmm1VLn1tw942TvQgAAAAAAAAAAAAAAAAAAAAAAAAAAAAAAAAAAAAAAAAAAAAAAAAAAAAAAAAAAAAAAAAAAAAAAAAcaH4DyxkqYjucRXUAAAAASUVORK5CYII=;fontColor=#7e2a2a;" parent="1" vertex="1">
            <mxGeometry x="855" y="98.25" width="11.5" height="11.5" as="geometry" />
          </mxCell>
        </UserObject>
        <mxCell id="qxrVwKzG3BPeDgjNHFg1-5" value="&lt;b&gt;&lt;font color=&quot;#92d050&quot; style=&quot;font-size: 14px;&quot;&gt;Servidores&lt;/font&gt;&lt;/b&gt;" style="text;html=1;align=center;verticalAlign=middle;whiteSpace=wrap;rounded=0;" parent="1" vertex="1">
          <mxGeometry x="776.75" y="85" width="71.5" height="38" as="geometry" />
        </mxCell>
        <UserObject label="&lt;b&gt;&lt;font style=&quot;font-size: 14px;&quot;&gt;Buscar&lt;/font&gt;&lt;/b&gt;" link="data:action/json,{&quot;actions&quot;:[{&quot;toggleVisibility&quot;:{&quot;cells&quot;:[&quot;Busqueda&quot;]}}]}" id="fiHGD7O6blfnix9_jZvP-7">
          <mxCell style="rounded=1;html=1;shadow=0;dashed=0;whiteSpace=wrap;fontSize=10;fillColor=#92d050;align=center;strokeColor=none;fontColor=#ffffff;glass=0;direction=east;gradientColor=none;collapsible=0;arcSize=50;absoluteArcSize=0;" parent="1" vertex="1">
            <mxGeometry x="364" y="400" width="172" height="37" as="geometry" />
          </mxCell>
        </UserObject>
        <mxCell id="A0fJfx000ztOc8l_W6aP-1" value="Servidores" parent="0" />
        <mxCell id="A0fJfx000ztOc8l_W6aP-2" value="" style="html=1;shadow=0;dashed=0;shape=mxgraph.bootstrap.rrect;rSize=5;strokeColor=#DFDFDF;html=1;whiteSpace=wrap;fillColor=#FFFFFF;fontColor=#000000;align=center;" parent="A0fJfx000ztOc8l_W6aP-1" vertex="1">
          <mxGeometry x="761" y="124" width="123" height="120" as="geometry" />
        </mxCell>
        <mxCell id="A0fJfx000ztOc8l_W6aP-3" value="Murcia" style="strokeColor=inherit;fillColor=inherit;gradientColor=inherit;fontColor=inherit;html=1;shadow=0;dashed=0;shape=mxgraph.bootstrap.topButton;rSize=5;perimeter=none;whiteSpace=wrap;resizeWidth=1;align=center;spacing=10;" parent="A0fJfx000ztOc8l_W6aP-2" vertex="1">
          <mxGeometry width="122.99999999999999" height="30" relative="1" as="geometry" />
        </mxCell>
        <mxCell id="A0fJfx000ztOc8l_W6aP-4" value="Madrid" style="strokeColor=inherit;fillColor=inherit;gradientColor=inherit;fontColor=inherit;html=1;shadow=0;dashed=0;perimeter=none;whiteSpace=wrap;resizeWidth=1;align=center;spacing=10;" parent="A0fJfx000ztOc8l_W6aP-2" vertex="1">
          <mxGeometry width="122.99999999999999" height="30" relative="1" as="geometry">
            <mxPoint y="30" as="offset" />
          </mxGeometry>
        </mxCell>
        <mxCell id="A0fJfx000ztOc8l_W6aP-5" value="Servidor 3" style="strokeColor=inherit;fillColor=inherit;gradientColor=inherit;fontColor=inherit;html=1;shadow=0;dashed=0;perimeter=none;whiteSpace=wrap;resizeWidth=1;align=center;spacing=10;" parent="A0fJfx000ztOc8l_W6aP-2" vertex="1">
          <mxGeometry width="122.99999999999999" height="30" relative="1" as="geometry">
            <mxPoint y="60" as="offset" />
          </mxGeometry>
        </mxCell>
        <mxCell id="A0fJfx000ztOc8l_W6aP-6" value="Servidor 4" style="strokeColor=inherit;fillColor=inherit;gradientColor=inherit;fontColor=inherit;html=1;shadow=0;dashed=0;shape=mxgraph.bootstrap.bottomButton;rSize=5;perimeter=none;whiteSpace=wrap;resizeWidth=1;resizeHeight=0;align=center;spacing=10;" parent="A0fJfx000ztOc8l_W6aP-2" vertex="1">
          <mxGeometry y="1" width="122.99999999999999" height="30" relative="1" as="geometry">
            <mxPoint y="-30" as="offset" />
          </mxGeometry>
        </mxCell>
        <mxCell id="IbgpW_KVIkd27C8ruj9X-2" value="Filtros" parent="0" />
        <UserObject label="&lt;b&gt;&lt;font style=&quot;font-size: 14px;&quot;&gt;Buscar&lt;/font&gt;&lt;/b&gt;" link="data:action/json,{&quot;actions&quot;:[{&quot;toggleVisibility&quot;:{&quot;cells&quot;:[&quot;Busqueda&quot;]}}]}" id="IbgpW_KVIkd27C8ruj9X-20">
          <mxCell style="rounded=1;html=1;shadow=0;dashed=0;whiteSpace=wrap;fontSize=10;fillColor=#92d050;align=center;strokeColor=none;fontColor=#ffffff;glass=0;direction=east;gradientColor=none;collapsible=0;arcSize=50;absoluteArcSize=0;" vertex="1" parent="IbgpW_KVIkd27C8ruj9X-2">
            <mxGeometry x="364" y="597" width="172" height="37" as="geometry" />
          </mxCell>
        </UserObject>
        <mxCell id="IbgpW_KVIkd27C8ruj9X-46" value="" style="group" vertex="1" connectable="0" parent="IbgpW_KVIkd27C8ruj9X-2">
          <mxGeometry x="108" y="393" width="685" height="180" as="geometry" />
        </mxCell>
        <mxCell id="IbgpW_KVIkd27C8ruj9X-25" value="" style="rounded=1;whiteSpace=wrap;html=1;strokeColor=#dfdfdf;fillColor=#ffffff;" vertex="1" parent="IbgpW_KVIkd27C8ruj9X-46">
          <mxGeometry width="685" height="180" as="geometry" />
        </mxCell>
        <mxCell id="IbgpW_KVIkd27C8ruj9X-36" value="" style="html=1;shadow=0;dashed=0;shape=mxgraph.bootstrap.rrect;rSize=5;strokeColor=#CED4DA;html=1;whiteSpace=wrap;fillColor=#FFFFFF;fontColor=#7D868C;align=left;spacing=15;spacingLeft=40;fontSize=14;" vertex="1" parent="IbgpW_KVIkd27C8ruj9X-46">
          <mxGeometry x="127.18382352941177" y="19.25" width="518.7617647058823" height="30" as="geometry" />
        </mxCell>
        <mxCell id="IbgpW_KVIkd27C8ruj9X-37" value="API Key" style="text;html=1;align=center;verticalAlign=middle;whiteSpace=wrap;rounded=0;" vertex="1" parent="IbgpW_KVIkd27C8ruj9X-46">
          <mxGeometry x="45.063235294117646" y="19.25" width="60.088235294117645" height="30" as="geometry" />
        </mxCell>
        <mxCell id="IbgpW_KVIkd27C8ruj9X-38" value="Fecha Inicio" style="text;html=1;align=center;verticalAlign=middle;whiteSpace=wrap;rounded=0;" vertex="1" parent="IbgpW_KVIkd27C8ruj9X-46">
          <mxGeometry x="39.05441176470589" y="56.75" width="72.10588235294118" height="30" as="geometry" />
        </mxCell>
        <mxCell id="IbgpW_KVIkd27C8ruj9X-39" value="Fecha Fin" style="text;html=1;align=center;verticalAlign=middle;whiteSpace=wrap;rounded=0;" vertex="1" parent="IbgpW_KVIkd27C8ruj9X-46">
          <mxGeometry x="45.063235294117646" y="93.75" width="60.088235294117645" height="30" as="geometry" />
        </mxCell>
        <mxCell id="IbgpW_KVIkd27C8ruj9X-40" value="Topic" style="text;html=1;align=center;verticalAlign=middle;whiteSpace=wrap;rounded=0;" vertex="1" parent="IbgpW_KVIkd27C8ruj9X-46">
          <mxGeometry x="45.063235294117646" y="130.75" width="60.088235294117645" height="30" as="geometry" />
        </mxCell>
        <mxCell id="IbgpW_KVIkd27C8ruj9X-41" value="" style="html=1;shadow=0;dashed=0;shape=mxgraph.bootstrap.rrect;rSize=5;strokeColor=#CED4DA;html=1;whiteSpace=wrap;fillColor=#FFFFFF;fontColor=#7D868C;align=left;spacing=15;spacingLeft=40;fontSize=14;" vertex="1" parent="IbgpW_KVIkd27C8ruj9X-46">
          <mxGeometry x="127.18382352941177" y="56.75" width="518.7617647058823" height="30" as="geometry" />
        </mxCell>
        <mxCell id="IbgpW_KVIkd27C8ruj9X-42" value="" style="html=1;shadow=0;dashed=0;shape=mxgraph.bootstrap.rrect;rSize=5;strokeColor=#CED4DA;html=1;whiteSpace=wrap;fillColor=#FFFFFF;fontColor=#7D868C;align=left;spacing=15;spacingLeft=40;fontSize=14;" vertex="1" parent="IbgpW_KVIkd27C8ruj9X-46">
          <mxGeometry x="127.18382352941177" y="93.75" width="518.7617647058823" height="30" as="geometry" />
        </mxCell>
        <mxCell id="IbgpW_KVIkd27C8ruj9X-43" value="" style="html=1;shadow=0;dashed=0;shape=mxgraph.bootstrap.rrect;rSize=5;strokeColor=#CED4DA;html=1;whiteSpace=wrap;fillColor=#FFFFFF;fontColor=#7D868C;align=left;spacing=15;spacingLeft=40;fontSize=14;" vertex="1" parent="IbgpW_KVIkd27C8ruj9X-46">
          <mxGeometry x="127.18382352941177" y="130.75" width="518.7617647058823" height="30" as="geometry" />
        </mxCell>
        <mxCell id="IbgpW_KVIkd27C8ruj9X-44" value="&lt;span style=&quot;color: rgba(0, 0, 0, 0); font-family: monospace; font-size: 0px; text-align: start;&quot;&gt;%3CmxGraphModel%3E%3Croot%3E%3CmxCell%20id%3D%220%22%2F%3E%3CmxCell%20id%3D%221%22%20parent%3D%220%22%2F%3E%3CmxCell%20id%3D%222%22%20value%3D%22%26lt%3Bfont%20style%3D%26quot%3Bfont-size%3A%2014px%3B%26quot%3B%20color%3D%26quot%3B%231e1207%26quot%3B%26gt%3BAPI%20Key%26lt%3B%2Ffont%26gt%3B%22%20style%3D%22rounded%3D1%3BwhiteSpace%3Dwrap%3Bhtml%3D1%3BstrokeColor%3Dnone%3B%22%20vertex%3D%221%22%20parent%3D%221%22%3E%3CmxGeometry%20x%3D%22271%22%20y%3D%22466%22%20width%3D%2298%22%20height%3D%2241%22%20as%3D%22geometry%22%2F%3E%3C%2FmxCell%3E%3C%2Froot%3E%3C%2FmxGraphModel%3E&lt;/span&gt;&lt;span style=&quot;color: rgba(0, 0, 0, 0); font-family: monospace; font-size: 0px; text-align: start;&quot;&gt;%3CmxGraphModel%3E%3Croot%3E%3CmxCell%20id%3D%220%22%2F%3E%3CmxCell%20id%3D%221%22%20parent%3D%220%22%2F%3E%3CmxCell%20id%3D%222%22%20value%3D%22%26lt%3Bfont%20style%3D%26quot%3Bfont-size%3A%2014px%3B%26quot%3B%20color%3D%26quot%3B%231e1207%26quot%3B%26gt%3BAPI%20Key%26lt%3B%2Ffont%26gt%3B%22%20style%3D%22rounded%3D1%3BwhiteSpace%3Dwrap%3Bhtml%3D1%3BstrokeColor%3Dnone%3B%22%20vertex%3D%221%22%20parent%3D%221%22%3E%3CmxGeometry%20x%3D%22271%22%20y%3D%22466%22%20width%3D%2298%22%20height%3D%2241%22%20as%3D%22geometry%22%2F%3E%3C%2FmxCell%3E%3C%2Froot%3E%3C%2FmxGraphModel%3E&lt;/span&gt;" style="sketch=0;pointerEvents=1;shadow=0;dashed=0;html=1;strokeColor=none;fillColor=#9be1c8;labelPosition=center;verticalLabelPosition=bottom;verticalAlign=top;align=center;outlineConnect=0;shape=mxgraph.veeam2.calendar;" vertex="1" parent="IbgpW_KVIkd27C8ruj9X-46">
          <mxGeometry x="612.8970588235294" y="59.690000000000055" width="24.03529411764706" height="24.13" as="geometry" />
        </mxCell>
        <mxCell id="IbgpW_KVIkd27C8ruj9X-45" value="&lt;span style=&quot;color: rgba(0, 0, 0, 0); font-family: monospace; font-size: 0px; text-align: start;&quot;&gt;%3CmxGraphModel%3E%3Croot%3E%3CmxCell%20id%3D%220%22%2F%3E%3CmxCell%20id%3D%221%22%20parent%3D%220%22%2F%3E%3CmxCell%20id%3D%222%22%20value%3D%22%26lt%3Bfont%20style%3D%26quot%3Bfont-size%3A%2014px%3B%26quot%3B%20color%3D%26quot%3B%231e1207%26quot%3B%26gt%3BAPI%20Key%26lt%3B%2Ffont%26gt%3B%22%20style%3D%22rounded%3D1%3BwhiteSpace%3Dwrap%3Bhtml%3D1%3BstrokeColor%3Dnone%3B%22%20vertex%3D%221%22%20parent%3D%221%22%3E%3CmxGeometry%20x%3D%22271%22%20y%3D%22466%22%20width%3D%2298%22%20height%3D%2241%22%20as%3D%22geometry%22%2F%3E%3C%2FmxCell%3E%3C%2Froot%3E%3C%2FmxGraphModel%3E&lt;/span&gt;&lt;span style=&quot;color: rgba(0, 0, 0, 0); font-family: monospace; font-size: 0px; text-align: start;&quot;&gt;%3CmxGraphModel%3E%3Croot%3E%3CmxCell%20id%3D%220%22%2F%3E%3CmxCell%20id%3D%221%22%20parent%3D%220%22%2F%3E%3CmxCell%20id%3D%222%22%20value%3D%22%26lt%3Bfont%20style%3D%26quot%3Bfont-size%3A%2014px%3B%26quot%3B%20color%3D%26quot%3B%231e1207%26quot%3B%26gt%3BAPI%20Key%26lt%3B%2Ffont%26gt%3B%22%20style%3D%22rounded%3D1%3BwhiteSpace%3Dwrap%3Bhtml%3D1%3BstrokeColor%3Dnone%3B%22%20vertex%3D%221%22%20parent%3D%221%22%3E%3CmxGeometry%20x%3D%22271%22%20y%3D%22466%22%20width%3D%2298%22%20height%3D%2241%22%20as%3D%22geometry%22%2F%3E%3C%2FmxCell%3E%3C%2Froot%3E%3C%2FmxGraphModel%3E&lt;/span&gt;" style="sketch=0;pointerEvents=1;shadow=0;dashed=0;html=1;strokeColor=none;fillColor=#9be1c8;labelPosition=center;verticalLabelPosition=bottom;verticalAlign=top;align=center;outlineConnect=0;shape=mxgraph.veeam2.calendar;" vertex="1" parent="IbgpW_KVIkd27C8ruj9X-46">
          <mxGeometry x="612.8970588235294" y="96.68000000000006" width="24.03529411764706" height="24.13" as="geometry" />
        </mxCell>
        <mxCell id="IbgpW_KVIkd27C8ruj9X-47" value="Busqueda" parent="0" />
        <mxCell id="IbgpW_KVIkd27C8ruj9X-48" value="123456, API KEY: abcd, Servidor: Murcia, ServerId: 5678, Ultima Comunicación: 12/7/2023, ..." style="rounded=1;whiteSpace=wrap;html=1;strokeColor=#dfdfdf;fillColor=#f7f7f7;" vertex="1" parent="IbgpW_KVIkd27C8ruj9X-47">
          <mxGeometry x="111" y="670" width="679" height="49" as="geometry" />
        </mxCell>
        <mxCell id="IbgpW_KVIkd27C8ruj9X-49" value="123456, API KEY: abcd, Servidor: Murcia, ServerId: 5678, Ultima Comunicación: 12/7/2023, ..." style="rounded=1;whiteSpace=wrap;html=1;strokeColor=#dfdfdf;fillColor=#f7f7f7;" vertex="1" parent="IbgpW_KVIkd27C8ruj9X-47">
          <mxGeometry x="111" y="729" width="679" height="49" as="geometry" />
        </mxCell>
        <mxCell id="IbgpW_KVIkd27C8ruj9X-50" value="123456, API KEY: abcd, Servidor: Murcia, ServerId: 5678, Ultima Comunicación: 12/7/2023, ..." style="rounded=1;whiteSpace=wrap;html=1;strokeColor=#dfdfdf;fillColor=#f7f7f7;" vertex="1" parent="IbgpW_KVIkd27C8ruj9X-47">
          <mxGeometry x="111" y="788" width="679" height="49" as="geometry" />
        </mxCell>
        <mxCell id="IbgpW_KVIkd27C8ruj9X-51" value="123456, API KEY: abcd, Servidor: Murcia, ServerId: 5678, Ultima Comunicación: 12/7/2023, ..." style="rounded=1;whiteSpace=wrap;html=1;strokeColor=#dfdfdf;fillColor=#f7f7f7;" vertex="1" parent="IbgpW_KVIkd27C8ruj9X-47">
          <mxGeometry x="111" y="847" width="679" height="49" as="geometry" />
        </mxCell>
        <mxCell id="IbgpW_KVIkd27C8ruj9X-52" value="123456, API KEY: abcd, Servidor: Murcia, ServerId: 5678, Ultima Comunicación: 12/7/2023, ..." style="rounded=1;whiteSpace=wrap;html=1;strokeColor=#dfdfdf;fillColor=#f7f7f7;" vertex="1" parent="IbgpW_KVIkd27C8ruj9X-47">
          <mxGeometry x="115" y="906" width="679" height="49" as="geometry" />
        </mxCell>
        <mxCell id="IbgpW_KVIkd27C8ruj9X-53" value="123456, API KEY: abcd, Servidor: Murcia, ServerId: 5678, Ultima Comunicación: 12/7/2023, ..." style="rounded=1;whiteSpace=wrap;html=1;strokeColor=#dfdfdf;fillColor=#f7f7f7;" vertex="1" parent="IbgpW_KVIkd27C8ruj9X-47">
          <mxGeometry x="115" y="965" width="679" height="49" as="geometry" />
        </mxCell>
        <mxCell id="IbgpW_KVIkd27C8ruj9X-54" value="123456, API KEY: abcd, Servidor: Murcia, ServerId: 5678, Ultima Comunicación: 12/7/2023, ..." style="rounded=1;whiteSpace=wrap;html=1;strokeColor=#dfdfdf;fillColor=#f7f7f7;" vertex="1" parent="IbgpW_KVIkd27C8ruj9X-47">
          <mxGeometry x="115" y="1024" width="679" height="49" as="geometry" />
        </mxCell>
        <mxCell id="IbgpW_KVIkd27C8ruj9X-55" value="123456, API KEY: abcd, Servidor: Murcia, ServerId: 5678, Ultima Comunicación: 12/7/2023, ..." style="rounded=1;whiteSpace=wrap;html=1;strokeColor=#dfdfdf;fillColor=#f7f7f7;" vertex="1" parent="IbgpW_KVIkd27C8ruj9X-47">
          <mxGeometry x="115" y="1083" width="679" height="49" as="geometry" />
        </mxCell>
        <mxCell id="IbgpW_KVIkd27C8ruj9X-60" value="123456, API KEY: abcd, Servidor: Murcia, ServerId: 5678, Ultima Comunicación: 12/7/2023, ..." style="rounded=1;whiteSpace=wrap;html=1;strokeColor=#dfdfdf;fillColor=#f7f7f7;" vertex="1" parent="IbgpW_KVIkd27C8ruj9X-47">
          <mxGeometry x="115" y="1142" width="679" height="49" as="geometry" />
        </mxCell>
        <mxCell id="IbgpW_KVIkd27C8ruj9X-61" value="123456, API KEY: abcd, Servidor: Murcia, ServerId: 5678, Ultima Comunicación: 12/7/2023, ..." style="rounded=1;whiteSpace=wrap;html=1;strokeColor=#dfdfdf;fillColor=#f7f7f7;" vertex="1" parent="IbgpW_KVIkd27C8ruj9X-47">
          <mxGeometry x="115" y="1201" width="679" height="49" as="geometry" />
        </mxCell>
        <mxCell id="IbgpW_KVIkd27C8ruj9X-62" value="" style="html=1;shadow=0;dashed=0;shape=mxgraph.bootstrap.rrect;rSize=5;strokeColor=#DEE2E6;html=1;whiteSpace=wrap;fillColor=#ffffff;fontColor=#92d050;" vertex="1" parent="IbgpW_KVIkd27C8ruj9X-47">
          <mxGeometry x="375" y="1296" width="150" height="30" as="geometry" />
        </mxCell>
        <mxCell id="IbgpW_KVIkd27C8ruj9X-63" value="&lt;&lt;" style="strokeColor=inherit;fillColor=inherit;gradientColor=inherit;fontColor=inherit;html=1;shadow=0;dashed=0;shape=mxgraph.bootstrap.leftButton;rSize=5;perimeter=none;whiteSpace=wrap;resizeHeight=1;fontSize=14;" vertex="1" parent="IbgpW_KVIkd27C8ruj9X-62">
          <mxGeometry width="30" height="30" relative="1" as="geometry" />
        </mxCell>
        <mxCell id="IbgpW_KVIkd27C8ruj9X-64" value="1" style="strokeColor=inherit;fillColor=inherit;gradientColor=inherit;fontColor=inherit;html=1;shadow=0;dashed=0;perimeter=none;whiteSpace=wrap;resizeHeight=1;fontSize=14;" vertex="1" parent="IbgpW_KVIkd27C8ruj9X-62">
          <mxGeometry width="30" height="30" relative="1" as="geometry">
            <mxPoint x="30" as="offset" />
          </mxGeometry>
        </mxCell>
        <mxCell id="IbgpW_KVIkd27C8ruj9X-65" value="2" style="strokeColor=inherit;fillColor=inherit;gradientColor=inherit;fontColor=inherit;html=1;shadow=0;dashed=0;perimeter=none;whiteSpace=wrap;resizeHeight=1;fontSize=14;" vertex="1" parent="IbgpW_KVIkd27C8ruj9X-62">
          <mxGeometry width="30" height="30" relative="1" as="geometry">
            <mxPoint x="60" as="offset" />
          </mxGeometry>
        </mxCell>
        <mxCell id="IbgpW_KVIkd27C8ruj9X-66" value="3" style="strokeColor=inherit;fillColor=inherit;gradientColor=inherit;fontColor=inherit;html=1;shadow=0;dashed=0;perimeter=none;whiteSpace=wrap;resizeHeight=1;fontSize=14;" vertex="1" parent="IbgpW_KVIkd27C8ruj9X-62">
          <mxGeometry width="30" height="30" relative="1" as="geometry">
            <mxPoint x="90" as="offset" />
          </mxGeometry>
        </mxCell>
        <mxCell id="IbgpW_KVIkd27C8ruj9X-67" value="&gt;&gt;" style="strokeColor=inherit;fillColor=inherit;gradientColor=inherit;fontColor=inherit;html=1;shadow=0;dashed=0;shape=mxgraph.bootstrap.rightButton;rSize=5;perimeter=none;whiteSpace=wrap;resizeHeight=1;fontSize=14;" vertex="1" parent="IbgpW_KVIkd27C8ruj9X-62">
          <mxGeometry x="1" width="30" height="30" relative="1" as="geometry">
            <mxPoint x="-30" as="offset" />
          </mxGeometry>
        </mxCell>
      </root>
    </mxGraphModel>
  </diagram>
  <diagram name="Resultado" id="3GAbMuHIJZK3MesoF8U9">
    <mxGraphModel dx="1500" dy="746" grid="0" gridSize="10" guides="1" tooltips="1" connect="1" arrows="1" fold="1" page="1" pageScale="1" pageWidth="900" pageHeight="1600" background="#fafafa" math="0" shadow="0">
      <root>
        <mxCell id="1G45rmJJ2hewdtiEkbLU-0" />
        <mxCell id="1G45rmJJ2hewdtiEkbLU-1" parent="1G45rmJJ2hewdtiEkbLU-0" />
        <mxCell id="1G45rmJJ2hewdtiEkbLU-2" value="" style="rounded=0;whiteSpace=wrap;html=1;strokeColor=none;gradientColor=none;labelBorderColor=none;labelBackgroundColor=default;fillColor=#f7f7f7;" parent="1G45rmJJ2hewdtiEkbLU-1" vertex="1">
          <mxGeometry width="900" height="80" as="geometry" />
        </mxCell>
        <mxCell id="1G45rmJJ2hewdtiEkbLU-3" value="" style="shape=image;verticalLabelPosition=bottom;labelBackgroundColor=#f7f7f7;verticalAlign=top;aspect=fixed;imageAspect=0;image=data:image/png,iVBORw0KGgoAAAANSUhEUgAAAu0AAAFhCAYAAADEJJRZAAAAAXNSR0IArs4c6QAAAARnQU1BAACxjwv8YQUAAAAJcEhZcwAADsMAAA7DAcdvqGQAACCzSURBVHhe7d1Nj2xXeejxNjMMM0DBLyJIODIckJCQsb/CZUDAvDiMkqmlizPOBOKEScZxInl6MwIH45AMyFewsSwh4QMoIJEI26DgGQapJ75+2ntxuut0Ve/3/ey1fj+p1LvB53R1ddn936ueveqe8/Pzt88AAIC03tN9BAAAkhLtAACQnGgHAIDkRDsAACQn2gEAIDnRDgAAyYl2AABITrQDAEByoh0AAJIT7QAAkJxoBwCA5EQ7AAAkJ9oBACA50Q4AAMmJdgAASE60AwBAcqIdAACSE+0AAJCcaAcAgOREOwAAJCfaAQAgOdEOAADJiXYAAEhOtAMAQHKiHQAAkhPtAACQnGgHAIDkRDsAACQn2gEAIDnRDgAAyYl2AABITrQDAEByoh0AAJIT7QAAkJxoBwCA5EQ7AAAkJ9oBACA50Q4AAMmJdgAASE60AwBAcqIdAACSE+0AAJCcaAcAgOREOwAAJCfaAQAgOdEOAADJiXYAAEhOtAMAQHKiHQAAkhPtAACQnGgHAIDkRDsAACQn2gEAIDnRDgAAyYl2AABITrQDAEByoh0AAJIT7QAAkJxoBwCA5EQ7AAAkJ9oBACA50Q4AAMmJdgAASE60AwBAcqIdAACSE+0AAJCcaAcAgOREOwAAJCfaAQAgOdEOAADJiXYAAEjunvPz87e7YwCAQd74/e2zN/7wk+6zq15769Xu6J3j3/24O7rbA+//1Lsf3/fJi4+H7nvvJ979eO+ti4/QItEOAJwUYX7xsYvziPFTEb60R//kL7qjd4NezNMC0Q4A/NHlQN86zocqMS/kqZFoB4DGlRGXvUX6TUQ8NRHtANCYWiP9JiXiP/OBL198hD0R7QDQgFZD/RgBz96IdgColFDvJwLeCA3ZiXYAqEzE+su//a5QHyEC3uo7GYl2AKhAWVV/6Tff6f4XphLwZCLaAWDHxPryxDsZiHYA2CGxvj7xzpZEOwDsiHn17Yl3tiDaAWAHxHo+4p01iXYASMwYTH7inTWIdgBI6pU3nxfrO/Lkree6I5ifaAeAZIzC7JdVd5Yi2gEgCaMw9RDvzE20A0ACRmHq88D7P3X2+Y98s/sMphHtALAhozD1s+rOHEQ7AGwkgv37v3y6+4yaWXVnKtEOABswDtOmL3z06bP77r3VfQb9iXYAWJFxGIzLMIZoB4CVGIehMC7DUKIdAFZgHIbrGJehL9EOAAsyDsNNjMvQx3u6jwDAzAQ7fcQrMPFKDJxipR0AFmB+naGsuHOKaAeAmQl2xnKBKseIdgCYkWBnDk/eeq47gneJdgCYiR1imJNw5zIXogLADAQ7c3v29hPdEYh2AJhMsLMU4U4h2gFgAsHO0oQ7QbQDwEhx0algZw3CHdEOACPYJYa1Cfe2iXYAGEiwsxXh3i7RDgADCHa29h//8/fdES0R7QDQk2Ang9d+9+OLC6Bpi2gHgJ5e/u13uyPYVlwALdzbItoBoIcYSYgVTsjCzkVtEe0AcINY0RTsZOTC1HaIdgA4wV7sZCfc2yDaAeAEF56yB+bb6yfaAeAIW+uxF14Nqt895+fnb3fHAEAnVi6FUH8PvP9T3dHZ2YOXjq/zq+76ANcJzO/JW891R9RGtAPAAfuxnxaBXsL80T/5i4uPU8UJUsT8miH/2Ie/1h1d9eKvv90d7ZNwr5NoB4ADLuy7Wwn1uSL9lDUC/ksf+9aVVwcue+ZHj3dH+xQ/o8984MvdZ9RCtAPAJfZjvypWox943yePBu7Slgj4+F4i2o/53i++sfvngNX2+oh2AOgYi7kjYn2NVfUh5ojpm4I91BDtQbjXxe4xANB5+bff7Y7aVaI2W7CHuF/H5tD7eizh97WUOAmlHqIdAN4RgdPyWEyJ9bhNHYWJx3GpxzJOJp769Auj4j2+r6nf25541aguxmMA4B0tX3xagn2Mi0B/69WL4z6z5/G1ys4zc8zKx8x7n91ehnyPtYzHhPi+P/+Rb3afsWeiHYDmtXzx6ZjZ9RLqc10gWkJ+ykjOTTu+DHkFoaZoD2bb6yDaAWhayxefDh2FKbG+5D7mZexlTMAfW3UfemLSd/V+T4T7/plpB6BprV58OiTYI9Zj9TluS8ds/P1xi5XziOchIswPZ93je5yygl8LF6Xun5V2AJr1ypvPDw7DGgwJ9gyrzmNGeMq4TFy0OlSNK+3Bavu+WWkHoFmC/biyup4hXuM+DP1ZRazH98odce0G+yXaAWhSi+MCQ4M908WYY0Zm+r6a0IpMP0+GE+0ANKm1i08jYIcEe1YR75nvX3ZW2/dLtAPQnNZW2SPW+4yKZA/2Iu7nTVs8cj2r7fsl2gFoTmur7H1nu/e2gi3cx7Havk+iHYCmtLbKfrgF4jF7HTkR7sNZbd8n0Q5AU1paZY+xmD5bJUbE7TnkhPtw9m3fH9EOQDOaW2Xvubf5ixVsfSnch2n1XYD3TLQD0IyW3v10yG4xtYxL2FVmGKvt+yLaAWhCBEpLs7wtrbIX8fOd4w2zHnjfJ7ujullt3xfRDkATWlplD31W2UNtJzIZ3sEVliDaATh7/a1Xz17+3389edu7llbZWw32wnx7f7Z/3I97zs/P3+6OAWhIhPrrv7/97u2d474e+dBXz+6/99bZ/TsaIYjRmJZGAZ769Avd0WkxA17zyUzfx+FQPCYtzcc/eeu57ojMrLQDNCYC/d//++8ubrGCPiTYQ/yZ8mf3orXRmL5aevUB9k60AzTicqwPDfXrRLQ/e/uJXcS70Zg2GZPpJ/49Jj/RDtCAEuxzxPqhEu9Z2Zv9eq2cyHg1gVqIdoDKlXGWpUW4L3FSMFVr29pZab/K3u392LM9P9EOULEI9jXHV9Y4ORiitRAZEuyvJTzBWsoce7fXzp7t+Yl2gErFqvcW8+aZRmVcgHrcrxoaG7F3OzUQ7QAVKjPsW8kS7q3NM/edZw8PNjZGY0zmZq+8+Xx3REaiHaBCGVaYs43KcFUrb9VfuCD1ZsaIchPtAJWJVfYMF4RufR9avLBuyEx7ixesCnf2TLQDVCbTCveWYzLm2TnUd0TGDjxkJNoBKpJhhT0Lq6ownLn2vEQ7QEUyri5vsYMNHOOC1NPMtecl2gEqknGlfYto90Yx/XzpY9/qjtrhFRj2SrQDVMJozB3m2fsxuw37IdoBKiFU77Ca2t9jH/5ad9SOZ370eHfEdcy15yTaAVicufa8Hh3whky0wVx7TqIdoBLGY95lnn24FlfbYW9EOwCLW3Ol/Y0//KQ7oq8WV9uNyLA3oh2Axd2/4lvmv+YVh1Ge+vQL3RGQkWgHoCotX4Q69XsX7hQuRs1HtAOwuPvvvdUdsaQ5XmVoKdxdcHmcV6zyEe0AlVhzBGUo0b6OF3/97e5omgj3Fi5OnevxqpFtU/MR7QCVyBzGa51Q2DlmPnFxagvhHqvtEaiHN8jmnvPz87e7YwB27tnbT3RHuTx567nuaFkR7d//5dPdZ21aYrwlwtaqdHvW+veWfqy0A7CoNcd2vCvsMnPasepeRmYeeP+nuv8VWJNoB6jIIx/6aneUxyMf/Ep3xBqWXBGPeP/Sx74l4GEDoh2gItmiPVbZV92j3Szyag4DnvrY9jEX0Q5QmUzhbpV9G9/7xTe6o3WU8ZkS8CIe5udCVIAKZbggNVbY//xP/7b7bB1ZL8TdQgR0BmXG/ld2ZdmdGH/6/Ee+2X3G1kQ7QIVef+vVs3//77/rPttGBPuaozFBtN8RoysZZ85F/L7YQSYP0Q5QqZf/918vblvYItiDaL8qy2r7KRf7or9zkinicxLteYh2gIrFanusuq8pZuq3mqsX7VfFSnusuO9NWY23N/z2RHseoh2gcmuG+5bBHkT73faw2n6TiHgr8dsQ7XmIdoAGrDEqs3WwB9F+vRrCvbAKvy7RnodoB2jEUuEes+uxteMWM+yHRPtxNYX7ZVbhlyXa8xDtAI2ZK94j0u+/99bmq+vFG7+/ffb9Xz7dfcahvc63DyHg5yfa8xDtAI2KcH/9ndAdOu+eLdYL0X6zeNOjeCOkFkTAG6GZTrTnIdpp0os/+a+Ljy/99Odnj378oYvjyx77xJ91R9BPhO9FAF+K4BK3F7cEoyOnlJX3uP+H4v4X2UL9MtHeX62jMtcR79OI9jxEO1WLOI8wDz/82c//GOt9ff2Ln+uO3vkl9/idY9Z37GdXfr5b/Xwi0F/+7Xd7rVZnuFCzZqJ9mJbCPYj3cUR7HqKd6pRQHxPpN4kV+M8+/JCAH+mZF37QHd0tfl7FmJ/bz/7fP3ZH6xkzGy7cl+VC1GFaGpcpxPswoj0P0U4VIvL++fv/OXuk3yRW4gV8P/Gz+ct/eKb7bH5rR/vUvc/9IlyGaB8nLlCNC1VbIt778d+qPN7TfYRdKiEYt7WDPfzTv/3g7OG/+uuTK8i8q4yx1ODiAs4JwR6GrtDDkr73i29cRGxL4hWG2nfToS5W2tmlKSvr5SLTGHO5zpSxGivvx5UTrKWsudI+12quFaz5WWmfLkZmHnjfJ5taeX/mR493Rxzy36k8RDu7MjbWyyx67BQzZGeYsoIeK+pDiPfrxasSS1kr2qeOxRzyC3Feon1etojEf6PyEO3swphYn/ui0Qh48T7NTReiDj0Zu2ytaJ87Cv1CnJdoX0Yrq+/C/W7+G5WHaCe9ocG+9A4vY+J9i51N9mrM4xtEO0G0L6/21XfhfkecpH3+I9/sPmNrop3Uhgbcmivbme9bDYaO0oh2gmhfV60r8ML9XaI9F7vHkFZctNg3imN1/V/+5qlVozi+1pBQjO/l1HgIV8VJTgvsIsOeRdjGzjNxIWeEbtxq0Nre9cfECRl5iHbSiTGYIVs4lmAfcoHpnIaG+5I7qNSklVcl7r/3VncE+xYBH7cI+LKF5Gu/+3H3/+5Pa+8YS36inVTGBvvWhoR7fG9L7qLCvtxvJYsKRaxfXoXfa8S3Hu73vfcT3REZiHZSiQtO+8oS7MXQmWrhfrOtXj1hv4w15HQY8WWcZg8R39J+9Yfu80pgKqKdNPa4wn5IuM/r2BtgbemRD321O5rOKjst20vEe9dUshDtpDAk2MP//cL/6Y7yEe51mzPaH/ngV7oj5vKZD3y5O2JvLkd8BHymiG95tZ08RDubix1VhgR77CqSfWxi6M4nLk7dlz//07/tjsaL+LfSDteLgL8u4rditZ0MRDubGrrXecT6HnYVGXof46TFdpD7EbE9ZcV96p+H1pSIvzxKs7bWVtu9upCPaGczEapDgj1kHos5NHRMZuhjwbYiuseEd/yZOVbqoWUl4MuuNGtobbXdHu35iHY2M3QkJFbZa99NxHz7vgwJ8Fhdj3/WCjvMp+xKs9Xqe81s95jPPefn5293x7CaoReehi3fQGmKoSEe32PGnXG2MGR8augrG3Mr72z6+u9vn73+1qt/nFePN0+6uFm1Ws0rbz7fXMA99uGvdUdXRdC2Jh6Lpbb+jOdVK4/pk7ee647IQrSzuoj1Mavsew3ZMavnWwdoFnuKdvJoMdqPvQlQS5F5aKl4j1X9Foj2fIzHsLoxO6XsaZb90JiYNCYD49n28Y6W32zK2Ay1Ee2sauwOKbXPsl9n6PgQAHeLeBfuw9g5JifRzqrG7JBSQ7CP+R7s3Q4wj7LqPocWgtYbv+Uk2lnN2FX2Gi7KHPs9WG2HcVoeCzl07CLVFs0R7g82EO333XurOyIT0c5qWl1ln8JqO4xjrv0OJzBXtXIhKfUR7azCijEAWUyZca/9JMg8e16inVWMXTHe864xh8ZuSWgnGYB5tboNZh/m2fMS7Sxuyip76+MxwHjGQu4w1343YzLXM8+el2hncf/8/f/sjhjLbDsMZ679DicwsH+incWNXWm3yn6HawIA5mf/9qvMs+cm2lnUlNisaZ69+PoXP9cdAazrSx/7VndEYbb9KvPsuYl2FjVlNMZK+1VGZGC4J2891x1hFZWbmGfPTbSzKGMdVz31+PiVdo8lMJVwv9trv/txd9Q2z438RDuLEZltiZ933OKdb+NWPgfyMCJzt9feerU76qfWyDcak9895+fnb3fHMKsItzHvglqM3dc8uyn7rmd6TCLIY/ypb5jHPP+jH39o0NjTkOdQtsfm0JrjXtd9/Zd++vPu6G5TXgE6FF/71NcKQ58Hc3j29hPdUZ2e+vQL3dHNbHV4VawwDzmZiWj/3i++0X1WD6Nk+Yl2FhMz2H2D7lD8Qv+Xv3mq+6wuU98sacs4LUE25WQsfrafffihXqG4drTH1zv0w59dDdAMz+m4D4fXi4y9XyFOqMaGe3lOxOM09D4MeS5MJdqvEu5XDXn8YseZ2i5gjROXz3/km91nZCXaWcyUOBXtx20R7SUSp4ThdW6KxbWjfcl3n53zOT3lhPiYoY/f3M+JKScOfbzy5vNVb+8n2qcZ8vjFKnttIzJW2ffBTDspxepbrSLe9iTCeYlIDBHk161uc9oSP4u+4mvH82Hu50Q8F+Kkaanngzdaumpo5HOHC1fZimhnEVN/mcfMa632ckJS4mzMKEycmJTbTUqs0d8WJ37xfFjyBK5wIsfaWt81xbvl7odoB+5Sgr1vnEVExnhDjH/EmEV8LLf4PG7x/5+KTeHeX7zxWDyeh7elxPMgRmHGnMCNsVS4f+GjT3dHBKvt73pwQLTXuMruVaj9MNPOIuIX7pRf8HPMJ2dVgnisiLMlZ3+H3L+I8DEXEp56flz+2Q95Hi3xnCknLWU3lDEXWxbxWM01037K2OfXscdv6vN1iiV+prVekDo2wGuczx4qdo7pu9pe2+PlAtR9sdLOIg533GAfhgZ7ROiYE4j4M8dWhrcKxOvE9xi3uL9xK68cZBb3N+7jHCvvNz0fyuNTVvoPb/H/TbHEqy+tj0Icsm/7MLWd4Aj2fRHtsLKpIbPUiMKQYI8gm7pqHBF8XQDH/cg+05w93MPQk6nDx/zU86GEejwHyonbdbdykhP/7Fhzn8SJlLu1PibT90SutmB3Ars/op1FxC989mNIsEewRZDN5br4X+rEZE57CPch9/Hyq2PHng/xs78c6n3FPzs23pf4b4lYudtjH/5ad9SWIc+FFyvbMtQ7oO6PaAfueqOeY0q0zams2h7aw4Wpcd9rcTmOr3s+lJ/9lO+5xPtQVtuX1+oOIo/1/L5jlb22Wfb77r3VfcZeiHZoXIxF9F3NjF1LlhAxd124Z19xX+rx2NJ1z4cyCjOXoX+X1fZ1tDgm0/d5YJWdDEQ7NCxiqG8YxwrrkivLc47crGUPK+1DRlKuez7En5/7Z1NW7YeYO9yttl+vpQtTh5y4WWUnA9EODes7FhPWWFXew5x4zQ7HUCKulzqZGnrCM/eITLDafrd4TFoJ9yGjMTWxyr5foh0aFSuXfVcvI7D2sKrMvOa+fuHQ0n//Tay2Xy/CvfYLU+N77HPSFsEee7PXIr5nq+z7JdqhUdlW2Qur7TmsEdROBPOKC1NrDve+ryaYZScT0Q6NGjIjLK7asuYrK0Nn7uf25K3nuiMO1RrufYPdjjFkI9qhQUvEz5y2Hpto3ZqvrAyZmX/pp8u80/IXPvp0d8Sh2sK91bGYYBxs/0Q7NGjIRX1brLJb2d9W1sd/qS1ArT6eFuFew3aQEeutjsU4Ma2DaIedmRpUQ1fZa9yLnONafZXDmMzN9hzuEezeSIm9E+0swkrpcdlHU2hby//utvquoENEuO9tXKassLc6FuPi03qIdhbx2Ycf6o7GEbbHTX1sh+waE7aKOLvItCPLicJnPvDl7ohT9jTnPmQkpsZgt8peF9HOIh79+LSw5Lipj60TIo7ZKp6nnojOqcUxmZd+852zZ370ePdZP2XOPXO8x31rPdhdfFoX0c4ipv7yX2qXiBq0PL7AsjLFM+uIWH3x19++OI5wj4AfosR7n9GTtcR9iWDvO+5UY7AHYzH1Ee2wsqHjKXOyys4pW71Clu2VuVZW26+L1Qj4oeEeYkV765X3EutxX1oP9vj+jcXUR7ST0g9/ZqV9CV7B4BSv4txR+xZ5p2I1wj1W3eOfGWqLsZkxsR5qDfZ4PFyfUSfRTko1rwhP+d6mRtXeToZEJFuJVcohAbg3ffYhj6Ads+oeSrxHSC8V8FNiPb6vGoM9mGOvl2hnMd7Vcn72TIf11LpaGbHadxV9yqp7iLAuAV9W4OMW/3vc+ir/fIn0ckIw9MSqrK6XOf7aeBOluol2FmOVdH5TH9O9vYLhwki2Vtt8e6wwjwnwCN0p8V5EZMctgvtyfJ+6Xf5n4s8Oif2ixHqtq+shHhdz7HUT7QBwQi3hHuE6dYV5rni/rKyiH7tNVUZh5rzP2cTjZCymfqIdVrTlPDsw3t7HDspK81xKvI+deV9afL9x3+I+1joKc5ntHdsg2lnUlHe1tD3hVebZYTt7vzC1z4WnY5SZ97FjN3MrJydxayHWQ5xQGotpg2gnrRq3J5yyR3uLK+22/iSTvV6YusZoSATy5dX3NVfgy6p6ifUMJw9rEextEe0s7utf/Fx3NMw//dsPuqN6jH31wGgM5JB1vr2E8uFt7vnzPiLgywr85YiP29T7En/+cqTH3x8f4+u1FOshXvkR7G255/z8/O3uGBbz8F/9dXc0zJTxmozGPg6xfeYc4T7m62/5M/jLf3im94nOVvez72MaP78ttkF95oUf9D4B3uoxjJ9x/Kz7yPLfhGdvP9EdMUVcQPngiYtNf9WFeGtBfhMXnrbJSjusZMoq+1wr7XtbsXddA1nVthXkViLGy8r8dbeyss4dgr1dop1VjF1hrCnaxs6zz3kBqn3PYT7CnbUJ9raJdlYxdoW370vmezBlpR3ISbizlgh2Wzu2TbSzmi3mebMYG+xjL+I95qnH5/37AG8dz/JKsLvwtG2indW0vGI8djQmQ2RvNaJknp29iJAS7iyljMQIdkQ7qxqz2h67X+zdmADN8srEVvvlT9nTHtYWQbXnN18iJzPsXCbaWdWY1fa979c+JtjjcVrqlYmhIzdbPf5W2tmbePMl4c5cBDuHRDura222fcyK8Zw7xhwy1w7LiXA3KsNUgp3riHZWN2YFeeybEm0tVouHrhgvucq+F1bZ2bMYlbGrDGMJdo4R7Wyitnc6PWbMKnvLu+wU5tmpgXBnKMHOKaKdzQyN072tto9ZZV8r2IeeNK29X76Vdmoh3OkrrocQ7Jwi2tlMjIAMvShyTzE3dLU481jMmo+7YKc2Ee4uUOWUeH7E9RBwimhnU0MvitzLO6TGNpVD4jNife2xmKwnCDW9Cy4UdpbhOjEOExcuC3b6EO1sLvuoxlAR60O2Sdwi2MPQr7nG4y7YqZlw57Iyv+5Nk+hLtJPCkICMKM78hktDxmK2CvZiyHjS0mMr8fcv/TVgaxHu5twxv84Yop0UhsZrrGRnDPdYKR4Snkvux97H0PGkpS4Gjsfs8GRn6xMaWJI593aZX2cs0U4aew/3ocEe32t8z1sbGsZLjLBEsF9+7MpzIcPjA0sxLtMW8+tMJdpJJSJtyIx7lnAfEuzZgnTo/Yjvc87H/LrHbswrEEucTMxpyAndnH74s593R3m1vC9/GZeJoKNeZRzG/DpTiHZS2lO4x9ceEuwRpFmCvRh6MfAcj3k8ZtcFe8zZj3l8toji7CcKQ23179GQn92W/64vKYLOqnt9rK4zp3vOz8/f7o4hnaEz1EPjc4oIjcOxjlMiRofOkK9tzMz6mMc8wivC/1DE+uG4TubnQOb7FuK5OfTEwn3c3rO3n+iO2DOz68xNtJPescA7Zo04HnKfsq6uHzMm3MsuNKce94izl37686OP23XBHoben2N/z5xu+l5OWSs4x8RwsdZ9HPrvdrHGz3hrr7z5/NlLv/lO9xl7Eqvrj3zwK0ZhmJ1oZxfG/HKfO95LqMWMcBz3sbdgL8aEe1EC/rKbHrNTEXbdCE0f8Xd+9uGHLo4f/fi7H4tTP49TXyt+/mFMaF52+Bgd3r9w03Pm8H6W+xam3r9w+fEL5T7G1+n771W5j5fvWzHHfbz8OA75Ge+JeN8Xq+ssSbSzK2MCLn6xxy/0sb/E44RhSKiHEjzZx2FOGbsKOlQ8VqdWTZe4H/H1jj0fppywzOmm1e6t72ef1fgt7+PcJ+1b+4//+fuz13734+4zsrG6zhpEO7szJeJKTIfrVjfLiuDQSC9qiPXLlg73PmEVP4exYx7HnPq6or2f7NF+08ngHll1z0essybRzm6ttRLcR22xfmjuxzoeryFjQ3PHn2ifTrRvR7xvT6yzBVs+slsRXREOEWB9429u8XXj60cc1Brs4fJjPdblx+rUeAr5+dltq+ztbovI9ZUtHO25zhastFOVNVbfI1hiVX3KnPzexeMc+lxgGqa+ClG+3lxO3Ze5v9ZYNz1eW97Pvs/9PdzHGsTK+2tvvWrmfUFW1slAtFOlvlHZx+XwbDnUb1Iec48RbOON398+e/m33xXvM4lQf+B9nzy7772fEOukINppQoT75W3nIuavE2FeiE9gr8y9j1di3daNZCPaAaBSRmf6sarOHoh2AGiAgL8qQj2YVWcvRDsANCYCPrQ2QmNFnT0T7QDQsBLwNa7Ci3RqItoBgCv2GPJl3CUiPbiQlNqIdgDgpNhO8o0//OTiOEL+4uNGMX8Y51bRaYVoBwAmKSvzRQn7U0r0lwgvSoxfFmF+8VGc0zDRDgAAyb2n+wgAACQl2gEAIDnRDgAAyYl2AABITrQDAEByoh0AAJIT7QAAkJxoBwCA5EQ7AAAkJ9oBACA50Q4AAMmJdgAASE60AwBAcqIdAACSE+0AAJCcaAcAgOREOwAAJCfaAQAgOdEOAADJiXYAAEhOtAMAQHKiHQAAkhPtAACQnGgHAIDkRDsAACQn2gEAIDnRDgAAyYl2AABITrQDAEByoh0AAJIT7QAAkJxoBwCA5EQ7AAAkJ9oBACA50Q4AAMmJdgAASE60AwBAcqIdAACSE+0AAJCcaAcAgOREOwAAJCfaAQAgOdEOAADJiXYAAEhOtAMAQHKiHQAAkhPtAACQnGgHAIDkRDsAACQn2gEAIDnRDgAAyYl2AABITrQDAEByoh0AAJIT7QAAkJxoBwCA5EQ7AAAkJ9oBACA50Q4AAMmJdgAASE60AwBAcqIdAACSE+0AAJCcaAcAgOREOwAAJCfaAQAgOdEOAACpnZ39f3NVtdtEa+H/AAAAAElFTkSuQmCC;textShadow=1;" parent="1G45rmJJ2hewdtiEkbLU-1" vertex="1">
          <mxGeometry width="169.75" height="80" as="geometry" />
        </mxCell>
        <mxCell id="1G45rmJJ2hewdtiEkbLU-4" value="" style="rounded=0;whiteSpace=wrap;html=1;strokeColor=none;fillColor=#92d050;" parent="1G45rmJJ2hewdtiEkbLU-1" vertex="1">
          <mxGeometry y="78" width="900" height="2" as="geometry" />
        </mxCell>
        <mxCell id="1G45rmJJ2hewdtiEkbLU-5" value="&lt;h1 style=&quot;margin-top: 0px; font-size: 32px;&quot;&gt;&lt;font color=&quot;#1e1207&quot; style=&quot;font-size: 32px;&quot; face=&quot;Helvetica&quot;&gt;Sensor 1234A&lt;/font&gt;&lt;/h1&gt;" style="text;html=1;whiteSpace=wrap;overflow=hidden;rounded=0;align=center;" parent="1G45rmJJ2hewdtiEkbLU-1" vertex="1">
          <mxGeometry x="304" y="134" width="288" height="50" as="geometry" />
        </mxCell>
        <mxCell id="1G45rmJJ2hewdtiEkbLU-6" value="&lt;b&gt;&lt;font style=&quot;font-size: 12px;&quot;&gt;Volver&lt;/font&gt;&lt;/b&gt;" style="rounded=1;html=1;shadow=0;dashed=0;whiteSpace=wrap;fontSize=10;fillColor=#92d050;align=center;strokeColor=none;fontColor=#ffffff;glass=0;direction=east;gradientColor=none;collapsible=0;arcSize=50;absoluteArcSize=0;" parent="1G45rmJJ2hewdtiEkbLU-1" vertex="1">
          <mxGeometry x="770" y="25" width="85" height="30" as="geometry" />
        </mxCell>
        <mxCell id="1G45rmJJ2hewdtiEkbLU-7" value="" style="shape=image;verticalLabelPosition=bottom;labelBackgroundColor=default;verticalAlign=top;aspect=fixed;imageAspect=0;image=data:image/png,iVBORw0KGgoAAAANSUhEUgAABtoAAAF7CAYAAABcn19nAAAAAXNSR0IArs4c6QAAAARnQU1BAACxjwv8YQUAAAAJcEhZcwAADsMAAA7DAcdvqGQAALkOSURBVHhe7N0HnB1V2YDxk97ovXcIRZrSq/SOFKWLohRBRFBQbIh+qGClKEhRpEqvCb333nuV3gMhlJD67XNy32Uyuffu3ZtNyO4+f37D3ju9nJm5ed85Z3qMGjVqfJIkSZIkSZIkSZLULj0rfyVJkiRJkiRJkiS1g4k2SZIkSZIkSZIkqQkm2iRJkiRJkiRJkqQmmGiTJEmSJEmSJEmSmmCiTZIkSZIkSZIkSWqCiTZJkiRJkiRJkiSpCSbaJEmSJEmSJEmSpCaYaJMkSZIkSZIkSZKaYKJNkiRJkiRJkiRJaoKJNkmSJEmSJEmSJKkJJtokSZIkSZIkSZKkJphokyRJkiRJkiRJkppgok2SJEmSJEmSJElqgok2SZIkSZIkSZIkqQkm2iRJkiRJkiRJkqQmmGiTJEmSJEmSJEmSmmCiTZIkSZIkSZIkSWqCiTZJkiRJkiRJkiSpCSbaJEmSJEmSJEmSpCaYaJMkSZIkSZIkSZKaYKJNkiRJkiRJkiRJaoKJNkmSJEmSJEmSJKkJJtokSZIkSZIkSZKkJphokyRJkiRJkiRJkppgok2SJEmSJEmSJElqgok2SZIkSZIkSZIkqQkm2iRJkiRJkiRJkqQmmGiTJEmSJEmSJEmSmmCiTZIkSZIkSZIkSWqCiTZJkiRJkiRJkiSpCSbaJEmSJEmSJEmSpCaYaJMkSZIkSZIkSZKaYKJNkiRJkiRJkiRJaoKJNkmSJEmSJEmSJKkJJtokSZIkSZIkSZKkJphokyRJkiRJkiRJkppgok2SJEmSJEmSJElqgok2SZIkSZIkSZIkqQkm2iRJkiR1ao888kg666yz0meffVbpI0mSJEnS1GGiTZLULfXt27e1U+fhcZv2eYzqc/90PJJrl1xySfrKV76S+vXrV+nbeVgmpj73+dTl/p62eDyq6477xW2WJKnjmGiTpC7kvffeS1tuuWX66U9/OtFT/fTfbbfd0jPPPFPpoylp/Pjx6c4770zrr79+/kfcN77xjfTwww9XhrbtjjvuSL/73e8q3zS1xPkT//j+0pe+lP7+97+nTz/9tDLG5OMc/NnPftah8+xOGr2WsX+///3vtx7LxRZbLB1yyCHppZdeqozRtXH9P/fcc9Naa62Vt5+/fJ9Wa3v997//zV17ca1k+6affvp0xBFHpOWWWy6fw5QTTTA1rmuaWFx/dt555/T+++9X+n7en3KrjvfOO++kX//61/l6P+uss+b9/+CDD+bfZJp6ytecueaaK/+7hOMTwzkPutt1us+2u3ZI15nEOv/q7CdT352umaj75JNPWofzuTz81GOuSj1+/ttOt83l7YiObazWxT4od5KkzslEmyR1Mfyj9sYbb0z33HNPpY+mtieffDKdeOKJ6bTTTsuB7cMOOywnzqZ2kH/48OHpm9/8Zrr33nsrfdSWmWaaKT322GNp1KhRORj69ttvp1NOOcVAXSd100035WP56KOPpq9+9avpu9/9bkNBbs7VXXbZJb344ouVPp0Hwfxf/OIX6YknnkgXXXRR3v7LL788JydJsIwdO7YyZtew11575Wsd20k3ZMiQHGSvpzMf32Z4XftiPP/88+mqq66qfJt87Sm3nAcHH3zwNJtc72js69133z0tv/zy+XpPUuc3v/lN+sMf/pAffNLUVbzmUF7nnXfedPLJJ3vN6WYO/cYv898jzz8ifbrFsLTW4Bnz93oY5+nV3kh733RG/n7SV7+Z/0qS1BmYaJOkLmbgwIHpO9/5Tjr77LPTxx9/XOk7dRDAsyZWyrXXNtlkkzT//POnHj16pGWXXTZttNFGUz35OeOMM6YzzjgjrbzyypU+ao8ZZpghbbPNNjmAN3LkyErfaQfnmjUjGjNgwIC0xRZb5Kfq//Of/7R5bVxwwQXzNXThhReu9Ok8CCqTbPvJT36S5phjjtxv5plnTnvuuWeu3fHaa6/lft1Z+fh2p3vX5F7XvO40bu+9985J7jfeeKPSp33K5bI91yVqFP35z3/ulE2pthcPD5x55pn5waJtt902X+979uyZllhiiXwMLr744pzwmVwdeZ3oTtccjsdKK62U7z3T4m8pTTlHXfZK6tHvW2nkdlul/hddnm595Nj0063nrwyd1Imrj0s3jr46LXHzNemZdTdO6/XZJO1zpyFLSVLn4V1LkrqgNddcMydZagXDeMKZYPOXv/zl/OQ/NQJeffXVPIynTS+77LI8jOZ3jjvuuNYmpupNx7KoMcITxNSq43s0DzN06NDcjCL9xo0b1/qd8crNKj733HO5X3n+nc2HH3440ZO7bAvbFdhOEqJsJ/vzvPPOS2PGjKkM/Rz7sNxUHk2sFQM07CPmz7yKzYKVm6mqd/zAfE866aT0f//3f7mpH47R3XffXRk68XJoio53InE8wdPj++67bx7W3qYyO4vi/jnggAPy/n3zzTdz8ob9VT5f8PTTT+f9EWW9eBwn59gyDuca51yxqbx65aorHyP2R63rXdGKK66Yz80XXnih0qd6M1bVjk1nQMCZGs2bbbZZGjRoUKXvBHPPPXcORi+wwAKt1/loWpLyQNkB5YWaB5TnchmqV97r3TuKuGZw7WA85sP5NGLEiMrQCSibcd5suummOXnY3poQTz31VNphhx1aaxJTy4Vziab8ise32r0LjV6jOzuu8exjtr14zefY0cwtNaM4FnFtKl934vyJ+3oc00hms8/Yd3G8999//1yOUJ6WfV+v/HU2Sy+9dFp99dXTFVdcUbX8NvObqnhdGjZsWK4xH+cjzSbSD4zPvuU4Nnu+dxbU0Hz22Wfz9vFwU9GGG26Y/vSnP+Xtbuv3J/vs8MMPn2h/sN/Yf9WOR739ilr372rzQlu/JzortuGWW27JyTaSbmVt/Tblt0vsF44dx7B8z+4Uju/TMV0nNGDoLJPUbisr12IbfNfc6banh+fvkiR1FibaJKkL4gnmXXfdNQdMiu8HAYEBgq33339/uv766/M/YHkCmODX66+/ngPQ1157bR5GAOKVV15pDXLWm26NNdbIzbQR6OHJYb7j5ZdfTg899FAOrNKPafkHdTSryD+ef/7zn+cgKE+6EuA49NBD8/w333zz9O9//7vTNXW2yiqrpAsuuCDvi5tvvjkHA9h/gf1Fk04cI7bz6quvzsFx9klxvEYwL44Bx4J5EbAh6HTOOedUxpigreMXrrzyyrTTTjvlfjQ/R2CIZtkoR3ynZt5bb72VnxBnvW+//fY8Hcdpq622yvM98MAD8/epXaOyo7HNp556alp00UVT//79cz/268Ybb5yOPvroNHr06PTLX/4y11gkKMT58sEHH+SmqghUEuD/1a9+lY81Zfv444/PzYiVkwq11Du2HAvKF+dcNJXXVrnqiseovUg+sa8aPQadDddeAu2zzDJLpU91BKVpVpL3tlE2t95661xOuNZyjaCpr8cffzwnCG644YYc2CdBWa+817p3lBEkveaaa/JfavqQFCxerzhvKNs/+MEP8rr94x//yB3rXA33DB4sIWBdDFovueSS6etf/3o64YQT8jWY7SNBTu2+omr3rrbOpc6seF376KOP8jWemk/cj7mu/Otf/2o9P/jLNevYY4/N77uqdt0B93mSBBxTjhM1V9hf4J5y+eWX5479SlLvyCOPbE0glH8j1Cp/ndX222+fbr311rydRW3dk6uVyyLOR2qtUruNc4bfUPPNN19OzpR/MzVzvncmUV7LDxeU1fv9Ga677rr8rkf2wemnn57H51pW7XjU26/17t/V5tXW9bWzYd1JLnJN5vrM/YHkfFlb5wH7hYR/7BeuI1wvyudTpzJyXBp/1Ttp/NUt3eNd87dIGPLTZVu7tZeaKQ097M9pxNFHprFLD66M8bl5114uvfPn36e7dt83zbvO8hNNK0lSZ2GiTZK6KJ6k5onY8vtB+McvQR+CmAQcaV6HZg75R+wDDzzQOg4BAZ48/eMf/5ifIG1kumpmn3323JwPzVURiCAQd9BBB7U2q8gTrjRjRXAHBBT4xzR/+cc2T2v36tUrD+ssCGDylPMGG2yQgzYEkrfbbrvWJ51JTpGMY7+yH9lH++23X+5PUKE9Yl4sg3mxn3/729+mPfbYozLGBI0eP5Kbiy++eB6+wgorpD59+uREG0Gn6aefPidqevfundeZACLBogg8E1wleEqNymOOOabNoNe0qBgcWnvttdPgwYNzk3vxlPzXvva1tOqqq+b9w7v4SMCxH9gnbC/jElAiQERToexDjk8c53322ac1adeWRo9taKRcdYVjFCiTXD84VlHLhs/FGoH1UEOH8anpRbKGv3yPRE1XRpNqBJB5bw5lhXJDwJcO7777bk5OzTnnnOmf//xnvp+0Vd5R7d5RxD2AYCq1ctjfcQ8giRM4b1gfzj/WjevpuuuuW7PpXWo/FN/RVkxIcL0ioM44Sy21VD63G9HIudSZ1LqusV1nnHFGHsaxIMHA/TbKAceZWn0cq3oYzr2D4859guMVTVNyvKlJG2WNYSQiIlDOOsRvhFCt/HVW88wzT77XkmApJkya/U0V4nzkwRgermLfU85J3pR/MzVzvnc1jfz+xHrrrZf7x7WHGsDsn2rq7df23r8bub52JsV3tH3yySf5txOJ4fLDf22dB9X2C9cLrhud1cgZt0w9LpspfbjD+emzL++YRvbbvDKk69nitwdP0k1/4KFp0BF/TjPuuldlrJQ/02/2g3+e1vrZgZNMI0lSZ2GiTZK6KAItBGB4Er/4j3SeFiXYE0+ig3EJrPBU8CKLLJKTAQRJCboRICPx1dZ0tRD8iWA+tWcIWMw222z5e1hmmWXyk/X8Y5ogCO8RoikennznqfjOWIOA7SagSBNad911V060nXjiiTnoQIKAp9AjeQOCcUxTDMQ1otq8qmn0+E033XSVTxOwvgSoCPbQbGKx5giBVWoxMJwAH8eQYArH7rxO2txXMTjEX56q5riEeOcV2CcEmIvDmZ4gHvuk2rEhIEryshGNHtvQVrnqKscoEOS877778rGKWjZ8ptZNLVyDSMpwHpDcYXxqVbFv+Mv3YqKms+Gc5j2dBDbrIdnK+RxNnhHUpGzgK1/5Sq558OMf/zj3Z99SS66t8l7r3lFU6x5QvO5Qjmm+jXMlrjU0ExZNQLYH68q193//+1/e1o46lzqbWtc1toWaZNF0JAkDau8ExinfE6rhmsb0RZQnjjcPmEQSnI5zj3shiR2wjGLCv1b568zYv+yHJ554otKn8XtyLdXOx1qaOd87E347gvJdS1u/PwPz4jgEaq5zfaum3n5t7/27retrZ0aCbJ111snXEh7EKGrrPCAhX94vXC8aKffTrLEpjV/r/TTwr39IvW97utJTkiR1BSbaJKkL40lcnl6nWZt4lxZPgfKP3ghygUQWTQfxJDpBAYIGNB/1yCOP5KDzWWed1eZ0jeAfxwQ5yk8HE0CNYB5NHxFkpfYCzVnRDA9PvHZm8WQ0NSs4DiQI2G/FBCL7lWAD+7iIacv9iqrNq5rJPX4E0WnSk8ASwazoaNKNgAdN1ZEkpQYf5Y2alM0ExjsT9gnJGfZJIJhH4Ihg3YILLjjJsSHJE+N31LENbZWr7niMykjik4jiOtMVEeyltiJNwHG9KaJs/uhHP8oBYJIr0QxXJF+iRhFlhSbQqPFHc17Mk1pJbZX3WveOIq4VLKd4D6C80hxtoBxzXSleZ+jqJVBrofYEZX333XfPTbeyvo1ozzW6M+M+S1mhGVnKC8eX61ZH4Z5PIoNyVD6etRLatcpfZ0ZNHd4XyO+ZKIMdcU8un4+1NHO+dybUxOMhmOI7ZQPJzUMOOSTfb9v6/dle9fZre+/fbV1fu6q2zgP+HVPeLyTgGr2WT5PI4y7WN/X+5OnUe+XnJ/Tromgqstjd9oejc/OQH//y4DT8rJMrY7X8Nm75TD+alWSc8nSSJHUWJtokqQsj8EnTWQQaCK6CJ2RJvvEeD4KQJH54hwqBUZrLoakWmnApPlHNP/Lbmi4QFKA2RST2ipjPFltskf72t7/lp+b5xzQ1UgiE0lQMSQhqRBCsCNRqIEDSWdAkFs0DEWyOwABBAt5BQRCafUAgnAAnzRWxn9hn7BNqwEWQJhCoJBBBAIlx2W+8/y3QNBH7kGaKGM4yaQaPd/AUNXr8aiFoxLKpNRTL4T07BK8JMPGeE4JzEVTiieRGa251VjRFx5PmF154YQ7AE/jhfVAEzKj9stpqq+XAJceafUY5INDKuOiIY8s8KXPs93rlinLXlY8RSZh6NdHYdwRFjzrqqHx9Y98HnqQnsVN8or4z4z2KlAkeVIhmDjnnqUVEuaR8UutirrnmyjVU2TdcC2Jc3r1F85vFRB0JsrbKe617RxFJTmo3cT2k7FJOKbM0tRso97zrjfcmUVZZd96tRkKoPdgHJJAoF9/73vfyNhAQj/JfVrx3teca3ZmxvSTgKfvsL64PHJe2FK879XD8ue9x3eI4Mj7HldqkxZpzRbXKX2fHfuA32dlnn52/T+5vKu7JnIM0h8j5SEf5Zt9xbIqaOd87E34n7r333vkax3WCfcH+ohbhX//61/w7mGRnvd+fjSoej3r7tZH7d3FebV1fOzO2j+Yh2V/FVgHQ1nlAOad/7Bc+c10vJuY6DS6XLV3/kVekHivPlHrsP7D1ewxrqOtEtjzq0dbutVseTqudfkJuHvK1Wx+pjPG5Xk88nZuVpOnIW5/8YKJpJUnqLEy0SVIXxz9qeZo/EOjh/Tg0F8Q7xAj0X3zxxTkoS8CAJr/oVl999TyM9xXtsssubU6H5ZdfPgfvaerm3nvvzf3KmPbb3/52+ta3vpWDIwS+eb/SkksumYMVvA/m4IMPzk9VE1zlO/07C7afZrkIAqy88sp5O77xjW/k4DJNmIGgCfstagoS5OG9IDzxzn4uYnqSjwSiGff3v/99DgIHah/wsnwSBQxnmQTMaDa0qJHjVw9BKprBJBHE+tNEEk8hcxxZR47TKaeckp8YJ6hFRznoygi4H3HEETlwTA0pyj9BI2qNsW94RyLvJKEpLvY37xvkfTBRW2Fyjy3liuAU7y6h1me9csW51h2PUTRZR3kl4EkCnM9dGUlEyhLlkyQT28+xptYGTTBSNimHlFvKCe/C5G8kkCgzBDupiUQZ5DP92irvte4dZVwHV1xxxZwQJIhKQmvXXXetDJ1Q7kmcsg2UVa5XXLc23njjyhgTI3jNPYLtjI5lk8AmoE5TqSR8aMryoosuSk8/PWlTXeV7V3uu0Z0Zx4rywj4nMUAgm9pB9ZSvO23hHVUkmSiDXIe4DtJMYa1rT63y19mRvOK3D83gYXJ/U3FP5v7Awy+cj/yGIrFDOWeaombO986G7ef9ciQb2R9sI7Xw+f1LIgf1fn82onw86u1X9mW9+3d5Xm1dXzsbrg3xXki2/4wzzsjXdcptUVvnAeNznG6++eZ8bSKhygMP1HTrdL4/umO6TmatwTOmp1d7I+190xn5+0lf/WYafNek7/0cMHSWdOg3fpk/H3n+EenTLYblaSVJ6kx6jBo1qpM9FyNJ0uTjH/+BGlnqHDxu0z6PUX3uH5VZJqY+9/nU5f6etnSW48HDEjywRI18Ene8M49aiI8//nhOkpIw7UhTcr/02fbzB0omx+iLJ26SeXJNyW0+9Zir0nfeuif1fvLp9My6G6fvvr9kuu3p4XnYB/9eK8246175M01HzvSd2/JnkGTrf9Hl+TPJt//bZan8uaNMyW3uu9M1lU8TY3uriX1Q1tHHWZI0dVijTZIkSZIkSdMMavxRA5aasCTVll566dwkKMm3jk6yTXHUhu6IrhPZ++Yz89+T1/tmWvLuudPtzwxv3Yzc8nDlC5+jP93AK2ZJP9vhl/nLkRf8Ls+jsyhuR7GrqdrIdJKkTskabZIkSZIkSZIkSVITrNEmSZIkSZIkSZIkNcFEmyRJkiRJkiRJktQEE22SJEmSJEmSJElSE0y0SZIkSZIkSZIkSU0w0SZJkiRJkiRJkiQ1wUSbJEmSJEmSJEmS1AQTbZIkSZIkSZIkSVITTLRJkiRJkiRJkiRJTTDRJkmSJEmSJEmSJDXBRJskSZIkSZIkSZLUBBNtkiRJkiRJkiRJUhNMtEmSJEmSJEmSJElNMNEmSZIkSZIkSZIkNcFEmyRJkiRJkiRJktQEE22SJEmSJEmSJElSE0y0SZIkSZIkSZIkSU0w0SZJkiRJkiRJkiQ1wUSbJEmSJEmSJEmS1AQTbZIkSZIkSZIkSVITTLRJkiRJkiRJkiRJTTDRJkmSJEmSJEmSJDXBRJskSZIkSZIkSZLUBBNtkiRJkiRJkiRJUhNMtEmSJEmSJEmSJElNMNEmSZIkSZIkSZIkNcFEmyRJkiRJkiRJktQEE22SJEmSJEmSJElSE0y0SZIkSZIkSZIkSU0w0SZJkiRJkiRJkiQ1wUSbJEmSJEmSJEmS1AQTbZIkSZIkSZIkSVITTLRJkiRJkiRJkiRJTegxatSo8ZXPkiRJkiRJkjqBU089Lc0///z5c48e/H/qh/h6tCx4/PgJy42/gWFFMe748T3Syy+9kr7z3W9VhkiS1LmZaJMkSZPlzrvuqnxKafXVVqt8kiRJ9XD/vOuuuyvfJrj77nsqn1JaddVVKp8mWG21Vb3PSprI5ZcPTV/72tdSz56R0PriQ3zFZFs50fa5HmnokCvTJptuWPkuSVLnZqJNkiS1SwQGCQYWk2xlB/7wgPz3oAN/mP9KktSdFRNr3EMjkdZIAu1vRx+T/0Yijmm9v0q6/LIh6WvbbJN6ktDqMSG8Vzu5NWmNM1Qbv9p4qDfvspgHfyedrke68spr0kYbrVf5LklS52aiTZIkNYQg39HHHFv5NgGBweIT9wQLi0/nRzIuxjMoKEnqbooPqBTvhXF/xE4775rO+e9Z+XPgvhtJuOK4YFh5fpK6nyFDrkibbrppGjZsWBo3blyabbZZU//+/SetVdbyPf/X8pfxxo4Zl/r07ZM+/vjjNGjQoNSzZ888bOSnI9PYcWPTwIED07vvvptmn332PI/Ro0anjz7+KE033aDUu3fvSuKsmDz7PJlWTKyxrFEt0zL/Tz/5NM0ww/SsUMuQHunKK65MG29ijTZJUtdgok2SJNVFcO+YY47LfwO11drThFU8iU+ijmkNCkqSuoNIiP3whz+Y5J7JsLgfLrjwoumlF5/Pn0PcO0OMS1KumGBjWu+tUvd0xdCr0jrrrJ3efPOtNONMM+Yk27D33mv5PFP69JNP0rjx41OvXr3SLLPMnEaN+iy91zIsJ+LGpTRq9OicFOvdMpyE2Mwzz5xeevnlNOOMM6b55psvPfH442nuuedOn3z6afroo4/S2LFjcqKNJBoJuLfeeif16dMnjW6ZT9++vdMnLcubd9550zvvvJMGDBjQsrxRLeNP1zJ+r/T+++/nZcwyyyxp+PDhaaaW9bvzjjvSxptsVNkSSZI6t56Vv5IkSZMguUZAL5JsBAl54p5gXjFgyHA6goKMHx3fI1DINBFEJChYTNxJktTVcB9E1FQr3/d4YKWcTCtiOEjUFZNoMZ+Yf/HeKql7GTt2bOrbr19OmFGr7Y033kg9evZMDz34YE6qjR0zNv3vxf+lTz/9JNdQe/bZZ9PAgYPS++9/kPr07p1rmpEMe+WVV9Ibb76ZE2Q9e/RMPVr+G9My73fffS8n01jO9NNPl2vAUdvtqaeeygk1km4sm+QdyTiSaczzueeem1BzrmU6kmwk3ag599Zbb+VpmI9P/UuSuhITbZIkqapImoVIspUTbMXkWrFpyWhSkgAhHQHAYlCQZrTqBRglSeqsuN9Riy0SZHwv3/e4n5abZC6K4XE/BffdeAdqsalJlkN/k23qzrrjQ1yR6JpjzjlSv379ciKLpNdCCy+c+vTtm5uHpCbauHHjc80zxsnNRLb8N2DAwDRu7Lj08iuv5KQaTTsyvFfvXhO1Ctm3ZT4sp0ePnnla5v/ZZ5/l/ozfv6XjL01KkrAbOXJkGjNmTE7Q0Y3JNd765ulIvlHDbnzLXzNtkqSuxKYjJUnSJAhURFIMkWQrKo/TSHOSBBhJukWgkMAgQcFyc1nSlEbTSJdeelnlW/d1wA/2r3ySauuOwevJQXPL5Xencf+Le16xmcdIvNW6f8a+j2Ft3TOZH8m58j27I9S7v2vK4bdWRx7PZn93URYp29XWJcpxscw3qlzG2yu2h/mQzC6vw+TOf1p3+eWXp4022ignuKg9Ru00kmAktEaMGJETXXynqUaSXfRbbLHF0osvvpinp9+nn36ax4lmHeeYY440zzzzpBdeeCEPZ1pqy00//fS5VhzLmXXWWdOHH36Yx2Vaaqu9/fbbef4k1KjFxvgzzDBDTsC9Waktx3fWKY3vke699/608SYb5PWQJKmzM9EmSZImQkCiPUk2hhffPROBjmpP6cdT+ARBmD4CkRGAlKYWEm3rrLte2nDD7hvgueWWW9OzTz9Z+SbVRiC7qwapOxr3wGr3TbAf6c89sj3vOS2KhAbivsky412qJBxYDjrymMW89Tn2CdjPxYRpJKOKx4r+HPf4HOPEsYvywjTFshHLQEwfv5sYD4zLbyp+i1UTySfmFb/Pyomp4nIQ/UMMj3WN5cV6sj7FdxEyfqPbyLwYh3UqDotllrevPKyYaIt+fI79VZxfvfXorC699NK07bbb5sQaqHFGIgyvv/56TmpFko1hoHZajM9nap+RDKNmXNQ4K2KcwDjF8SfUdJt4OPNgWfEXfGZY63SpZ7riiqvSJptumIdLktTZmWiTJEkTiYBHICBRDEIwjHFA/3KgJRJs1Wq4MRyME0m3ePK+swc61LlEou2xRx7O7xzpbh586KG0w447m2hTQyKQrfri/si+4m8E9EOxXwT943MjijXhQiwz7rmRIOnoY2YZmFj8niG5xDFl//CXYxpNfcbvmzjuDOM3E8eIY1UctygSYYhywngsi79MG8c8+iGWF+PXWkbMn3mUh5WnifIW45aXF+vJ/mAYyuOFetMWlbcDMS1/Yx/GPGrt+/L+iWmL+4ftivXorC677LK0zTbbTJTsQiTEkGuQdTDmj3KirRrGLY4/Qc905RVXWaNNktRl+I42SZLUioBOMeBH8qucACNAEYpJNoIVBDb4TtCC4AyBEPoTBKFjOMpJNuZZDrRIktSZcC/j/sZ9lEB+3Nfivsr9js/cF+nK99y2cM+M+2lgmcyXJAKf+QvuxcXx1PHiNw3HMH4LRVInlH9DFX8zgd9KzIekD5/j+FUrF+V5M01R/LZiWubDsvidFutJP6ahf8y/OI8YVpwG1cZleHnbWL9Yx5gHy4xtpB+qTRuKw5gX09KhvL2MF+dY1F4rYvxqx4PzhXkWf892ZuSv3nn73XTttdelq6++tqW7Ll1zzXXp+utuTDdc39LdcGPLd/rTXZOuuurq/Jm/THPHHXemJ554Mr388svptddeS//73//So48+mm666aaW4ROmuaZl/PI8mPbhhx/OzUYiEm7lDrwf7uGHH8nzuOqqa/K0r736auLdcZIkdRUm2iRJUqty0CGCIoFgSwRcCFZEMIRAB/0jgMHnSLwR5KAfyTe6CJQwjKAQwZEIhJhskyR1RnF/JIAfSZRImsS9Ne6N/J1ckUTj/hr3Yj7TxWdNWfyGid8v7T2mcXyYjt9GlBF+AzG/OJ7tFeWtmHBjvvG9mHSKZZQTVOVpUG19isOrKc6juI2oN21xGNvDPqn32zB+U1ZLwrFtkaQLrAvnIPMs/8btvHqkYcPeT3fe2XINuvPOlu2+M/+948470j333pvuuvPunEy7s6XLf1vGu+eeu/M703jP2sILL5zmnXee/HnmmWdOs802W5pvvvnSQgstlN/ddu+996Xb77gj3XF7y7xb5nt3y36le+655/P72WgKsi09evRMs88+R3ru2edbjuvd+di89dZbLf0rI0iS1AXYdKQkSWpVfvqdwEhRMUBYHBbTRb8IMhLEINgRgZuYNgKDBDoIpBSDP+WgyOR477330tArrswvaO9KPvnkk9wET1fZrpEjP01bbbllfkH+1DItNB3J+VAtgDk1TM2mI9nOagFPdR5c48v3A00s7nuRQOH+Fg+URBIgxkHcGxvFfDiHYr6B40I/llG+npTvzZPDMjAp9gn7nGPOseUvxyLE8QfHh99BUT6YNo4p00bSJ34rxe8kPsd0Me/ivGK5xfIX4zHvWEd+Z8WyEOPxG4xlc42OMkT/WPe4bsd0MZ/itiPWE/SL4cXvMb/ytKAf5as4LNYvPsf6F+fP52r94jPrVTwGjBvfmTfDO3u5HnL50DR48JLplltvSYstumiacaYZWn4fTp8GDuyfRn02Ot16223phRdeyFXfxo4blxNja6+9Vlp99dXy78iePXtVTXjxTrVRo0alRx5+rOW39NDWZijRq2fPtMd3vpMWXHD+/A62YtOQTEdNtug/oVYb74Ebmx555JE0dMjQNHr0qLTV1lvnZNumm26cp5MkqbMz0SZJkjKCDRFIAYEKghRFBC5CBCZiughuxHc+oxh4KWKcSMQxX4ZH4KijXHfd9enF/72YvvLlL1f6dA0ff/xxuujiS9I3d/v8eHVmZ5x5VvrN4b/uNok2zhFQ3vlM0K9akHxKmpqJNgKkU3v71LG4RlcLRo8dOzY98MCDaeWVV8pluZhQLX/vyor3vXI5LyYI4tyP+xz9GhX7P5IgoZgMCdRAGTL0ipbr6mE1j117ddR8uhP32ReHfc+5EYm6ruzSSy9PSy+9dHr66adz0qp///6tCa4RIz5OV199dct1+oGc+MIqK6+cNt9i89SzV0o9W8aZkAjrmRNkiPGYB/3GjBnX8nv6unTbbbellrHT+Jb/llhiibT77ru3jEtttZZ+LeOOHTsu3XLLzenBBx9KM888U9pwww3TvPPOm3r1allQC2b/3rvvpksuvTQ3T7n11lunt99+20SbJKnLMNEmSZKyCBSGagFDAhegfzFQyLQxPuPEcIbF088RdA0RGIxAFH+ZpiMDs9dff0Pq0bNHWn+99Sp9uobhw4enf554UvrpTw6p9Oncjvrjn9K+39unSybaonyXxbmE4vlUxPlTrX9HaCvRFudrnIvF720NK143YhiK5zXJAkS/asm44rShWOOiPL/ivEK1eaLeOqE4XbF/KE5X3P6uqlY5JtG20SabpRuuu6b1eh+BbaYh0E1SKKZlXxUTzIiaM+zzGMb4Me6UOgc6Utw7a60r2xLjgPGiHBeTZtUwHvu1uH/K2F8ExIcMGZouvfzyNG7suLTVVlum7bbdJh8H5jG5+7FWGeiuGjl2mnzF6/eUEr9TO6vLLhuSllpyyfToo4+lzTbfNP+mmZA8S7npxxtvvCndccddORE23XQDW7b1wNR/QL+JaqK9+8576eVXXkn9+vZN888/f5phxulbE25c53l/2wXnX5Q++GA4ldPSti3Xli9/eYXW5cQ8/v3vf6fhH36Ya82tsMJyabPNNksDBw5sHYf3ud122+2523yzzdObb73ZMs4mebgkSZ2d72iTJEkZAbyiesENghIhgn7F8ampFv0JXhBgjEB0dASp6AjcRQCvGIiUOrMo3/G5HBwvBr2L51Ng/JimPO3UwPlaDCIXv3OtqDWMczi2m890JF7oOM8D4xfnwefyNQj0j+npWFb0LyrPK8Zn+cXlsoxYDuOV16k4XWxHsX90RYxbXH53FeU0rv/cE7jWc22PfQnKe5R/9iXD+cuxZVgk4KqVh2kV2xvbHWWneN5HuQXb157kQSQBmG/Mr4xlvf/+++nue+5Je+353XTqv0/JSTawvFrTSdO6uF5Mya7Ty8mylEaPGZ1Gjx5d6TkBybI+ffrkz9RGW2655XKNt0iQ4aOPPkqXDxmSLrroonTxJZeke+69JzcZSWIMjDvDDDPm97GB+fEOt+I88Oqrr6aRI0fmxBzNTPIOuHfffTfPJ+bVt2/fNPvss6d+/frlmnETz0GSpM7NRJskSWpIMVDHk/VticBiTEegkM8RgOQ78yF4WEy2EXAtBr+/KAYmNbki+VItCUMSgQA4Zb6M8s95EZ+LQfppBYmCeucp5w9dOZhZnia2s57iPLhuNKI4TYjER8wn9j39Q3Ga4nErB3tD8TrRyLZ0ZZRnrt/sh0iahUhOUm7Yr5FEq3WdjePUGcQ2sG1sF+sdZSfO3WrXANTqHyIhxzIiAVkN85l11lnT7474v7Taqp/fn+NeK6nrmpDIGpdri5EgK2pNtOU81/i02GKLpZ69JjQXGQkw3mf8xhtv5M8jP/00vfbaa2nEiBGVZiPH5OQdf0mSMU7/fv3SgAED8vyLSNhRa25CTbjxufWFDz74IA9jedHNMP30abrpKi0JlJJ1kiR1ZibaJElSVivgOTki0BpP+hN0JOhHF8sjKBnJtgh4Fz9PbVNiP6j7ieB2BMrjb6DcxzjlQHg5+VYePi1p6zwtbnc5UcA+aOR84/oQXaNYLzoSH7EOJHvKxwHFZAfrQ8d4xXEZp9p6xPwb3ZaujP3LfgBlNvYrx4F7QKB8x72h2vFArf7TokgagjIQ5wT7gK5cLuol16IssY/ifGH8RpLt5eXwvbis9pw/6n4oe3SUOzrKYbGL/p3p3Owuxo0fnxNWJMTKiTYSW71798q1x6g+NrA1QTbhHW50JNBIjpHyIh/31ltvp5tuuiU3RXvhBRel88+7IF166WX5ncfMh3F571pMHx1JuKiixseRn45KH330yYT+BQMHDZzQnGSpvyRJnZ2JNkmS1JBicKWtoF9xeHxm+mLCIII65SAsAR1qvUzN5EIERyNQyV/Wm37RP4KnUiMoMxGs5G97cW40M93URDKgVtKgkcQA4nyvh6RMdI0i6UPHcYjp+ExXVry2kTSJxEnxusQ41dajOP/uaqaZZqp8mpDMiXLLX45tOcEZ/ajRzL7jO38jOcewzoQyENsXSfLYdlQ7FxgWw4vYDzGvcpKurZrksRzuVRyHYpIZ1cq+RBmhvEZCjXJHR/9iF/0Zp5gIbg+ma6tjWUVcE+J8qXXeNKIj5jGt6tljQlhv9KhRVRNtPXv2Sr2oZTZ+fBo9ZkxlyOdoynHxxRdvGbdnHn/EhyPSww89nO6559708MOPpCeffCq9+OKL6aMRH+XxI7FW1q9//9Z14e/YceNy8q+caOvXr/+EGnFV5iFJUmdmok2SJLVbMbgeQZFiEI/hBAUJmBKYaSvozjwIfDAuQUICOVNTBJEuuPDCiYI8EViKzybbVEu5tkiUKcTf9oiAJ4HH4rk1tYLl5aB+reQH21kt2RbbXDxnygkXlL9Xw7yiq6baPomgMcHgWL/ydSWmKyf6oyuuWySCiusR0zP/OP5dLYDbFmo1XHTBeflz7LfYP/yl/NKvKPrFOcL3mKY8fnnaaVWxDLEtsV2odu6wXbEPiornUvHcaSvJhlgO48b86SinzSRF1LVR9qKMxPnXHlHGmb4jdfcHF5rRs1cl0TZmTBozZuJ3tJEQo+nIXr16p3Hjx6UXXnghJ75yDbcKhm+77bZpiy22SHPOMUfq0bNHbiqSd61RQy3Gjb/UoCsnz/g+YED/PG1uOrJluePHjU9jRo/JTVAWUYOO5ierJeskSerMTLRJkqTJEkGWCDRHQI8gTjEQXQvBmnJyjWm/iID117ffPq8zyy8GNiMYWm871D1RXspdR4vyh2IzdVNSLJPzkHOb7aoWrK8XZI0kF+d3XB+KCYkQCYlaWIdih7hGMF+64j6qpbhNsU70a2RatqO8DjE9609nMqP7ifO9VhmqdU3g4RO6asMiwRaJacoWf9t6YKXWuvC9mUSKui6uVVy7a5Xb9ogyqi8eyTG6MpJa/fr3S7169kqPPvLohARaJU8Wya5evXqm1VZfNe21995p992/mdZZd5208MILp0GDBqYelfYgY9xxLdOXk2fI710bP74yrGUBLaN/Nuqz/N62EIm//gMGtNZ+kySpq/DOJkmSqqoWAGxEMaBHMKecRKuGpBbBmggwfhFYNoHMWI8LLrwo74NT/v3v1uEGk1RGmYkkEn/bCoY3i/JHR5lkOXye0iJ5RA0DzuE4t0mWFWsdMCySTHyOJDXjR/+YRwR2o3/gezkJx7j0L3eIZcZ86UKMg+I6oJgQ42+t6YroX+6if7kmUwzrLgjYnn7GmflzlNFAWS33q4bx4n4Tf6upN+yLUjzfOS8jidvWNpO4rVVLNPpHuWa7mXfxQQ/KWbHsFtXbT22tl7o+yk7xd1pHKV5bNXWRsCIZRpJt9OgxE9U2I7HVt1+/1LtX71wjbdj7w9Ljjz2Rxo2tjNBiQgKNd7alNGBAv7T44oulTTfdOO26685pm22+lpZbbtmcRGO83CRky3WfZeWacZVlMWzQoEET3vXGjHKerUcaOXJky7ifNx/JX8Yh2daz54TEnSRJXYWJNkmSlJUDJNUSBhEkbwQBR4I5BAfbMx1BeoKBtYKIHYVlFAOSrGskCKafYfqW/4/P673M0kvnfsXA1DbbfT3tuPOu6ZFHH630UXdVDlhOiQAm4lzC1Ew4sFy64jnM5+J2Fr/zuThuTF8cH3wvj1f8HorTRxfie3m64jio9j26ovL3UBw/uujf1rK7g/+cdnr+GwmiYo0/FBNEKCeKqaXJ/YZyzeeYjr909I9h01qiqJgs455FsoEyEP1r3UcZr1oTedUSaGx3nPNtJTPYP8yf/Ra1L+N4oHws1L1QNqbkNaraNVFTDwmwUaM+m6S2WT9qtLV0JL9IdF1zzTXp2WefbX1/WiTBiiJxtnTLb+CtttoqrbXWWmlm3sfZo2U541qW89mEd8FNSNJNMHDgoNSDZiNbkNTjPxJtuQZdAdP07dOndVxJkroK72ySJKmqagG5YgCwGLyL/tGPYCAIDhIULI4LgoERMGUcAjMRSAxTOljDy92jGT6WTUdQlHXlRfDzzTtfXsdysBfrrrN26tOnd3r33Xfzd3VvlFXOAcp6uRx3JJYT50V3TOho2hZln+s/nymrlFO+cw0NxQQT19iYjutvDIt+fI9kVbXE1BctthNxX6NfvXVlOB37ppg043P5vI5xEcsJfC8n5QI1LRkenVSvvHSkqbGMwLlRPO/K4vxp77DOaXxOaI0cWSPR1r9fTpJh+Icfpquuvjrddttt6e23386100h+1eoGDBiQVlpppbTCCivkmmhjx4xNIz4aMWFmBf369c3j94oE2viUPv3k05b5j839EfPs1bv3hHe5SZLUhXhnkyRJ2eQE7qsF8uhHcDWCicVkG/1ieTEtSS9qlFWrAdDRCKzssce3Wpt9Yx1iPQgKx7rxl+8RtIx1Yz2/v9++OfhQTTHww9/Ydj4PGTo0Db3iyvyZZinZR3yOQDTj8j269orpmN81116b/u+I3+X+fD/n3HPTX/92dOvw+Bvr+cEHH6RLLr10ov5qG4FFygflJcrRlMKyIpEhTUsol+AaVi1pFqLmMKj5VUw2hTiPYtwpfV51pHiAox72D9dYrhnF60c95aZV64l1YN6R+OhM+1Adrz3lZ3JVO6c7EtcUzh86Hgqj43P8fgqcBzFeWfSvNqxT6tEj10wb9Vn1RFv//v3T+HE0D9kjJ+RIsN16623pvPMuSFe0/CZ94okn04gRH7UMG5fGtXTFWm68Sm3gwP5pyaWWTHPNOWee/oP335+kNhzvgMvJs0pSDaNHj2pZn4lrtMEkmySpK/LuJkmS2qUYrCsGNCKYF0ml4ncCiAReaiUHCHQQlI1gY1sBx8nFcmol9IpBF9Y9Ajrl4A3TVwtcMj7BYQLIjBOBVKan/4MPPFgZM+VmKWN8xL4jaMR0xWbJ2qMYyEasO80EgXmzv8v7+f4HHqh8+vz4adpRPCYGzTWt4ToZ1x6uLVzHuL5xvawX5Ge84rWuWBus1nV6WhLryzbTcZ7GtbXeNZzp2Gecy0zDvionCmL7GSfOeeZdvsaHWB7zK1/Di/tVnVOxHIDfVY0ktcrTtYVySVksdsVy2ZYo/1MK68f5Ug3Xk/asa1fz2WefTdJUI8009undhwpmuZZZrlWW35/2WXrzjTfzdeOcc85N//jH8en88y9IL7/ySp7HRMm2lmlmnXWWNNvss+Uk2VtvvVUZ8jnGIalHmo35M31O3I2btHlKkoHlfpIkdXYm2iRJUk0EM8qKwTsCGqEYxInpooYD3wm81Ar0FAOTU0t5fQjMRGA4EMCKmgHFwCZB41rryzwJjhLUZBq2nXlUG//xJ56YaBnsL6aPoGszgVGWyTxYx4EDBqQVV1whL5t5LbzQQnkc5l3cHtaX7/fee1+abdZZW9dbktqyeuVawjWGa1kE/uPaRv961346xuE6RcA3rk1cw/he61o7rSheS8tqJQMiIcZw7j38jWtu8b4a847xAvuzOI2+eFHGi+U/MKz8PcaPzzG82rjF71Gmiv0Q86mm0dpszJukWiyjiHLJsEaV129KqLW95d9y3QWJq09HjsxNQQaSX7379Em9aaqx5fO48RNqu1HLLKfbeqTUq1evXNuNVg2eePyJdPbZZ6f77rtvkne40WzkDDPMkJt9fPW113K/GMZyevbqmeabb76cWKtk23I/llFEkm30KGq6TVzzTpKkzq7HqFGjfIxEkiRl1QJ3kSwrYpxiEKM4TgRiCLJEgDT6VZvXlHT99TekHj17pPXXW6/S53PFoCXrWdx21pPhxf4EgyMhxd/pZ5g+10irFehpC/MtTxvLRLXhYfjw4emfJ56UfvqTQyp9mlNvGUVRE44gy5Rw1B//lPb93j45gDO1vPTyy2mddddLjz3ycJp++ukqfduH/UcigbIxtTV67Gp58KGH0g477pyeffrJSh+pNq7hU/v6Pa3jHIx7A+ci12/uD1wTSGzQrz2JicB0xWtKcR7F5AXJOtahKKYt3t9IOsQ9LT43wzIwsdifobjv43cC9/PYb7XKB8Pies535lFt2iKOfcwjhjHvmEdZo8et/NuulkbnV16XRqYr79dq2M7YfsS5WFZcXr11YZnx26szGjrkyrT4Eounc889Ny266CJpyy23SLPOOmtlKL/hxqTLLx+S7r/v/jR23Ni06CKL5KbPeW/bgP4tf/v1S4899lh+7/DYceNSz5bfzQssMH/abrvt0uyzz57nQSKNWm633HJbuvWWW3MC7cc/Pig3SckwkHN7+qmn02mnn55rvZFwW2aZpVvWZ/M044wzto5HTbprrrk2zTPPPOmNN95Im266ce4vSVJnZ402SZLUKoIWRdWCLsUgIIrjRPCCQEkEgKIfgY5ywKi9Jnd6RFCFwFQgsFUM2jCcv5FIiWERALvu2uvTT3/6s9yvjPnHehbXl8/Mk7/MN4Ja0R/xl+U0i/mxr5lXzC+WQRefWQbjRYCKvwyLLtZvx5a/1153Xeu8NGF/cgzZJ7HfpiaWPSXF8S92zWp02ih3xW5aYvlXLZQN7ieUde4X1co89xCG1epCtdpHMQ7LiI7x6Fe8b0cZ5f7LfSoSa5xLcb+zHE857NtaSSL6c8/luPGXYxLHrng9p195HnyPWpAozgMMn9x7AuveaNn4ostQudzzuZg467bGj08jR46cpOlIEme9ek1IcvEetR122KHlGrVj2n777dLmW2yWNthw/TTf/PPn4fHutI8++ig3Q1lGTbjx48fl5Tz33AuVvmF8WnChBdLcc8+ZevQYnwYO7JcWWGC+lr8DC8m48enDDz9Mw4YNyzXaor8kSV2BiTZJklRXrSB5MTBYHieeuif4E4EggiD0p9/kJtwmZ9qiY449LjetiAhcxrpHIKkc0CF4yfIZd9ttt6n0nVg5iVdUDKLRXBrBsvjOdHyPZTcbzGI+xZoPRSyfdeOYFccrBuzoH1ifQCCv/FR4d1Y8PsV9NiVx3OhYNsciEqpTQgTyo2tWo+sXZa/YTUuK54IUuKZSNqJ81Ls/MW6tDlyP43NRedxix32kGtaD4fytdT/SlMF+JzFW7fdT8ToSx66Ra2TxODP/IspNrXLQqPZc36bVa2F5v3S33ys0VUVyrNwkI8ms3HQkTUS2/MdwEmp0kehaZJFFUg+SbOPH5yYlp59++lzTDTEOTVKSgBszZmxe2P33359GlZqAZJott9wyffWrX03rr79+WmqppVpbQyDJRhLw9ddfT2+//XZrP0mSugoTbZIkaSLVAurVAof1AhoEyCOBQ/A8pqd/MeFWLQhVTSQVOgpBx7xOLf++JygQQS6CR6xXBJEuuPCi/PeSSy9NV1x5ZWuwMsaplQhgfjGPYoCTzwxjH5PEYHr6sU9if8b4DGs2mFUMrJbnwTD6FWs5xLoQqCv25zv9v/zlFfN7N1hvhuvz40RZbiRI2lE4BsXl8b18Lk5JlA3O22KCj8/Rn79gGJ/jO6JfcbxGFM/9+Bzzpqs23/gc6xr4Xu5XbbxQnHexRkm1+aj7Kl4Pin+LiudEtY7zuHxPYRpUGz+6YrkMcZ2O+/nUvEZowvUhHlQIlAnKSTxQwOdqxw7l+0pMG5g/36NfsdyUj3Wjx77WunQmk5ts7OxIh5H4KtdoQ9++fVPvXr1yUuyVV1+t9P3c4MGD08orr5zmnHOutPAiC6dVVlllouYeSYiNGDEivf/++7n5SbqXX3opPf7443lYJMwYf6GFFkrrrLNOy/FYdaImLMH0jzzySPqoZV4tE5lokyR1Kb6jTZIkTaJa8LhWgqU8bnE8AkUEhALBonIgsRExD4JWBBbRyHxqvaON+UVAhvlEQIsEFEGwCGrdccedafbZZkvDP/wwBwNIOK215pp5fMYlMFUMpE0t9d7RxrqVA2vRr9bfIvoRpFly8OD07HPP5X6LL7ZYmnGmmVKf3r3zOzweevjhNGjQoEnmhfL8GtEZ39E2Ods7ueJ8YB2aPafaekdbtQA+gWNqNUaZ59znfI+/xX6sY3m8Yr/i58B45f3JONXmX7wOVJsvf1nfmB/jR1C6Xr/islCcT3E7oh/HgGtBM8egMynvF03AfqG8RfkpY3ijmEfxnKB8cj+Kecc1p57yPIqYnrLb7HG0DEwsjk8tXJu5hsZx43uMz2fE8Y1reXF4TMtwfq/EsOL4iPHK30O9MlFE2ShOVw/LauSaV55nI+Wnrf2KevMpn3Mxbq3+YJmd+Roe72g755xzWn6bDUi77rprmr/SFGRK48hnpdtvvzPddOPN6aOPP0pLLLFE+ta3ds9NShYTaTQHSY04arrxDjdqwU0w4f1sDz/0cLrq6qvTxx9/nJNkLROnOeecM22yySZp8cUXm2h+iCRa/ju+R/4tfdVVV6Wnn3oqjR4zJm299da5ZpvvaJMkdRXWaJMkSZOoFsQgYFJNedxiMIMAD8P5C4InDCeoUQ7o8J2O5ZSXRf9IjJWD/80g6FQvqMJ6EjwnsXbhxZekl155Oc0+x+ypV69elTEmBPgJtk9r2NfF/ctnxHf2LdtGf5Imsd9jOFZdZZV09TXX5HnREVhZbPHBeZxbb7stnXjiyXk85sG8EO+HKc6nK4t980XgXKAMc25NyeAg5ZvlRBf9GlEsB7Gfiv2YT7WyUlxeLLOW2PZa8y0eH64blH3KaVxj6Mf3eseRecXwCGTTL+bD3464JnVmsT+L15o4BvGXYcUOMV1xWvA9FPsXP6M8jGXxN7roX/x+3XXXp/0PmND8b3lYTB/4Xl63yUVZivJE+Y4yhWJtHJYZyYbiuRDTxN/i9G2Ja7WmDo5flH8Uk0d8ju8xTnl49OdvcVhx/OJ45e+hWK7UVX1eM4xmHUePHp0/B5Jf0003XerZq2d+R9tL/3spPfvMs63ThP79++dabDQbGc09Yty48em1V19Ld9x5ZyXJ1tKzZZ5M/84776ShQ4emO++8q2XYp2n8uM8TbCyX7x988EG67fbb0yknn5KeeOKJ9NmoUROG5zp4kiR1HSbaJElSQwje1Ao41ku2IYKCEWAkGEQAk/Gii4AryykGhiLoGjVPGB6fp7Rnnn02TT9oUPrSMl9KO++4Y6Xv5+oF6L9IBP6rrRv9Yt+SpIjPjWzHc88+3ZpMC5FgKB7v8jjqeFMyuVYP5STORzRa/suBX7SV4CpqdDwU5xvLjb+RoKAjIUfHOVBMtNRbVjGhVp5Pd8Z+Yx+wf2JfxnWA5A7DGcZ1m47rf4j9WEya0sV8mI7vKE6H+B7zj0RSLAeME5/jOkUQOPrFeoGyXVwG39ku+sU6VFMvgVUuT5Q35hn3Q7a7WrKskXM81ludG+WgWAbic7FftXGiQwwvjtNecS420k2rZa/eedodkNii5hnNR0ayi790AwcOnPCetp490ugxo9Nll1+Wm3CkOch4r1uMy2eSddRwGzZsWHrggQfSBRdemN54440J41QSez1Z3pgxuaWDK6+8Mv31L39NJ550Uvrv2eem//733HTqqaelY487Lh177N/T1VdfnT4Y/kGeN0m8CbXlxk9UA06SpM7ORJskSaqqWq22cqCziOBLEUHNYmKOwCHjMF+CQQSG6EIEihinHHQtjzu5WK/iulVDAHa5ZZdNe++9V5p7rjnzekRAlb+RFJwWFQP/sS/Zf2wz3yNIxt/Yr/yNfY0111gj/wXNZYJjs+IKK6R99tkr74M4VhxTlhn9uptptRxMCZyjcf4Uy1kZ43ENKO4bygbnTb1zj+HFDiQnyteTIuZbbTjJHvrxN8pqjBcJOfpxrtOP8lvepph3cTso7+X5dHdxbawXgI9xitiHdLF/41jVu9eUMU0ct0i4VVtW8TjxOdY1+lc7jswn7lfNiIcZGkFZLJYzllvG+jBenBvl/VRveewbTXsouxzTEJ+L/TgnEL/LGFY816L8F6dpBuW80U7TkglNNpKyGjd2XPrkk09zsu3TTz9NIz76OL3//gc5ccY4o1r+0jTk8OEfpqFDr0iXXnpZuveee3NNs2eeeTZ3TzzxZLr33vvSddddl84++7/pspZx3nv3vZxcYyl5WS0dqbyevXrlz7T4wGfewfbcc8+lRx99LM/r7bffSaNHjckJtpbR0pxzzpFWX321tMwyy6R+/fvntZckqasw0SZJkmqqFugjwFwNgZcIBgWCgBEQLCIYxLh0BI7o+Ez/COAQcIxpI4gUQciOCPIQdIzAY3l+fCdgSVCzT98++d1h9COwxTowHX8J8E6Lqm0PIggX32uNx9PGvMw+8Jn3s8XnDTfYYJKAHtNObpCvs6IcUFYpE1FGp5Ra519HK56LRfSPLoZH8BfFQDCfGSf68TnO8/K1AnEdKHaIecXf6BdiGeX58rncr954dOVtjnnHuodq8+nu4ppZC9fNthKT5fOnXuKIfR/nXb15sk7ci+odK+bBshgnzrEoa0xb77xuT1KwjGUxfdxr2Q4Sj/UwnHWrdm+tZ0pfm7o7jh3HsVjO2voOpisfm+I4MZxyUiwbHP8oe4zD75OpdX+YVpV/k7FfupUePdKYsWPTY489nm688eZ03XU3pGuvvj5dddU16bbbbs/NPpJkG0/ttZbuo48+zkm1K6+6Ol1w/oXp/PMuSOecc27L3/PT0CFXpDvvvDu9/dbbuSnJeeaZJ807z7z59zBJtfHjSLql/HmB+edPa6yxRtp44w3z+9a+ut46afASi6V+/frm5Bo118aPH5vfh7vGGqunjTbaKK2wwgpp4IABOXknSVJXYaJNkiTVVC3wjHrJNgKAxQQdASLGL9ZaqIdxCCBFEJF5xTp0dGKrHMwCyyPgWu3pf8ahI/EX46n7okxTtimzdFMy8cr8I8jK32LAVZPy3Jy6uFcQ6CfwzzUyrvXF6yjXTa65MQzFBCf9+UtijL9RxmudV8VpAsc95hnic3G5ZdxvIhEYOLeZlnXuyHM71re8HxDrUQ/jsm8iEdgexX2ljsc5QPmN30Dl7xy7clmiHESZD+UyHYpJXY5/lAHKKtPEcroj9mP5HI+HtLqL3KzjuHHpqSefSrfddlu644470v33358ee+yx9OKLL+YmInv36pV69+mT+g8YkJNms806W06izTf//GmRRRZOSw4enGaaeWbmlqYbNCitvc46aautt0pbbrVF2mor/m6Za6PxEBrvbpu3ZdrNNt88rb/++jl5tuyyy6Y111wzbbzxxmnxxRfPtd3mm3++3G/zlvGWXnrp1Ktnz9SvX7/Uq1dvVnrCykuS1AWYaJMkSXWVn74OtZJtiOBkEQEigoiRdIuOwEh8jgRbBEsIGkUAMoIoHREorLZ+oH90DOcvyysvk+8xnrovjn8xsElQryPKZzVRKwf8JYCr2jw3py6u6yQQ4rrKeRD3iHrnBOPQcd1nes4hjh3zoZzzmes+49SaTzkREfMsaqQGGMss3hc4t5lPrFc1bSU2ap2nxfIZ2xX3w7j/VcP2MZzp2Z7y8tu6LpiAnrK4TpMo5fjEcY3voXh8GSfGKx4bykI1xXOA418s53wuLqcrK/5OBJ+rJcOL+6tbINHW8ock2MILL5w2WH+DnBjbdNNN05e+9KXUv3//NGbM2LT5Zpul3XbbLX3zm99MO++yc/rGN76Rtt1227T5Fluk9dZfP09LMm6NNddMa66xZlpiicXSbLPNmuaca/a05JJL5qTabLPOmmusLbfccmm+eefL72rjPWw333xzTq7NPsccafDgwWlAyzIHLzE4rbvuunla1oFqbvTv3ae3eTZJUpdiok2SJLWp1pPz5WBmEQEOpqsWiCRYGB0Bk/gcgROmZbpi0CiCKN3tCWVN2wiiUlbp2grkT444FyJw2O0CiJpmRc0aklRRLvkc/eJ7DIv7SYwT4xXHQYxXHKeM/nFu8DfGpUP8BZ833HCD9I/jPm9uL+ZZHg8xv/J6FRXvUdWUp+M+F0jKIBIsxWHcC0maMT332bjX8p17IcNZr+I0qLWecW81QT/lcTzZ37HP43stMaxYlorHlc9xXKudA4gyyrxqlYGuhO2MRCNdOfGGWvsqxLRxbnVuNM04PiewpptuUNpss03STjvtkNZZd6200kpfSauvvmrabrttcq2yfv37pTnmmCMtuOCCuSYbn2edddY0yywzpZlmmiE37zhwYP8099xzpsGDF08DB/VPHw4fkU477Yx0zz33tSxnXMu4M6dVVl019enbPy22+GKpZ6+Uhn/4QXr5pVfSHXfclcaNo0nJnmn22WdPM840U3rnnbfT008/mx544KH0yScft6zvuNS3X9/Uu1fvNK5lfpIkdRUm2iRJUkOKgciitoIUxWBltaRbEQEixmHcYtCJAEoEkLpDEEmdR9TAiXI+JcW50dZ51BGilmnUspnaeJ/M9TfcmG6++ZZ04003VfrWxjpO7jrfcOON6fnnJ+8YMg86dS+UuVrK96wI7heTKcXp4z5HIo7zvXhdIWlDP4ZRxovXgnr3xkjqef+cskhkci+IB4PY38XvZdw/GFZOspbRj+NeLCfFssE8+I5mrn2dSSP3P8Ypl/WuXfZ75FpkdMsu+6Vce23AgAHpnXfeSY888nAaNWpUrkm25pprpL59+qQ333wrDRs2LL3y8svp6aefbhnnkTRixIicrBs58tP01ltvpRlnnDHPAx+2DHvzzTfTyy+9lN/z1rKY/L7evn37poEDJ4wzZsyY/H640aNG58+sy0wt82A+Dz38cLrwwgvTNVdfnd5//4M8fr++/VKfPr1Z8/xdkqSuwESbJElqWL1kW71AIyLgxDzoCArRRfIg+jFOEUGjqClkbTZNa+oF7yanhlu1YGmcG+VzZEooBn4J0n8RT/0/+OCD+e9DDz2c/7al+G4r1rmta1LZsPeGVT41b9y4cenJJ5+sfFN3UTxfyopNApbFfbGoXg0oEjkMY5pInoV6y2nrvW/qGHGtjOMXSdXi96JiTawYFveN4rj0o4tyFvONcZgHnyfnntNZUPb5vVjt3ks/flNWu0fy+7Le/bpzm1CjrU/v3mnOOedqTZBde+21uXv22WdTT96L1rdfGjTddOmqq69Kxx13XDr5lFPS2Wedld/lRmIMJNleeuml/A613i3zQwwb+dln6bORI1OvXr3S9NNPn5cXSLr17EF4cXz6+KOPcr9+/funQYMG5fF79eyV74+ffvpJHka/Pn36tHyy7UhJUtfRY9SoUd7ZJElSuxQDQGUdGcwgUB6BJebJvNvjuuuuT+++925abdWu1VwWTx7/95xz09577Vnp07mddPIp6dCf/iS/mH9qeenll9M6666XHnvk4dxUUkci6EnAlbIbT9+3NznGOVYrsd0RHnzoobTDjjunZ5+unhQqL58ALoluzsPYPsR2ca4SzCfYX+wX6FecjoRBcR7lcanRdtfdd6eVV1opPfDgg5NMH8sIMazYP7ah2nT0oxZIJO/ZrjPPOjs3s7Xk4MFV1x1MU9zGmHc083fd9dfnGgLf32+/PLyrqFcei9fpemWW8dhvRx71p7TeeuumO+64M5eZjTfeKDcxttWWW1TGnBT7mf277377p7/8+Y9p4MCBlSFfPM4N1q/WtjOsWgIk7mnl4fRH3O/Kw7mmROKMYaHevZfjF8tr1pS+JnU2xXIf2MfFYzItqJV4KqtWRidXeV/UKp9F5WnKZbY4D8aNa3tcgxtRvL6HRvbRtGrokCvSYosvni65+OK02uqrpcVbPo8ePToNGXJ5+uSTT1qusRu33NtWSuPGjm/5vXVyTqSRmCMx1rNXz7TF5punlVdZKY0dO7ZlmqH5IZcVV1whTzfddNOlt956J51wwglpjpbrNO98W3DB+dOoUWPSv045Ne2y6475t9vw4cPTmWeend5844303T2/mxZeeKH8Prgrr7yq5Xp1d8uyJzQXue22X0vLLbdsbl7ys89GpetbfqdvutnGlS2RJKlzM9EmSZKaQtCtFgI77Ql6lEXwpJhkiyB/e9AM3AUXXpRmmWWWSp+uYeTIkenTTz9NM888c6VPZzc+7bjDDl0m0VYMwNYqu5TxauU5gvaBcSYnOF5LexNtEZjkvI5myuhHwJ/tK/YrJqFY/5hXjF+eFpEkoz/LGDtm7ESJtuJymW98DtGvWKsnrkHs0zgGsS7V+h3268PTLrvsnA4//LeTDCuuO9PGehTXGzTb1d0SbQxjfxSPT+wXPuPxJ55I1117fd6vDz74UJpjjtnTBRdclI8XNSew377fy/uxWH5C7PP77rs/7bTjDum5lmt7eRnx/YtQb/+A4WWUryhPxW0NcR9leFtiXtUw79h/jNestraxu6GslhNt06JGE23Vyui0YHLLbSOK153OKBJt559/fq5pxjV17Jgxadj776e55pojbb311mneeefNia/jjvt7blJygh5pjtlnS9t/ffs033zzpg8//DAnz4a9Pywtt9yX0qabbpp/lw0b9kE6/h//yLXhttp6i7T4You2zGtcOuOMs9Lmm2+a3/PGb9LTTjstvfLKK2mHlt9zK6ywQq7BdtVVV094b9vY8al3n55p0002SauvMeF4Mo+rr742bbLJBvm7JEmdnYk2SZLUtEYCTe1JuhEQJFhanCfTRdBb6ihTMtGGYtCyWnA6gufVynbxvJpSge1mEm1RiwaR0GI9GY/xOdcRAUumQYwT3xle/BxJgMC8zjrj9IkSbZGUi31VXj+uHcVEG8uMAG1x3WJdistkXViPSLRtsunmrfOO9URcxyIpEp9ZLn9ZRndNtBWHsW85VuwX/sa+jkTcQT86OG211Rbp4YcfyePzPp955pknvf322/k7x7qYMEUkOVdbY8103TVXpz332meiZRSP/RcRMI8yVmvZlKM4pxvBtsY1ohH1ls18KJ+1jl+j6pWB7qi9x/SLUq9sFHF8p0WcC+V7ZEeLe0BnNXTIlWnxJRZP5557bk6wEeCjsceBgwalLbfcPC299NK56cinn3omXXDhhTkpRm22cePH51rcG2+8Ya65xr3r7LPOSWPGjkmDBy/ecp3eKj/Q9dGIT9IJ/zwhL2urrTZPSy21ZBo7dnw668yz02qrr5oWW2yxXBvujDPOSM8991zafPPN01prrdWaaLvzjrtbho9LPXultPbaa6WNNtpwQnOU43ukK664Km1sok2S1EX4jjZJktQ0AhNtBd4IRBHoI4jDXwIadAT+4jMdw+iKgSuCK8XgutQZRNKFc4O/RZR1zgXGoSNBUBZJBco9408LItGFnCxpOffj/I8gPt/j/OVcJjFFv7bO33JSpdr4jNPIfIrrVdy30Z91Z32L2LZa2Aa6ajg2PBjAPMvHuTuK/cpfjn9g3zR6DWdfsz/5y3GpdWzKx7BchqY2trFe0qVWGSpiH1Fu6YqfGylb9ebPvmp0/0vqvEhekTzL72vr2zfXSFtqqaXy+9B499ott9xSSbJNeOda75b+NAfZr1//PA1JMh58IFP30Ucf5eYn0at3r5yI4zsJtTCq5fubb76ZP7Ps/J62nj1zgg38pWtZown/tSyD5fMX+ZVulXWRJKkrMNEmSZImW6PBQAJ+BCMj+Raf6cqBUwKDJtnUGVFmSeog/oZI9oTi5xDlnmHl6aemYhIcsU6RKGRYnLfRj3H4S+KDJFSME+NVwzayDMbhbyT0ihinuNxq+60slsk6xXqQfOM761dr3biWxTC2gfERf4tIBDEe17DuLPZt7MtGjk81zIMywH7nGEUCrXyMwhedYAttnaeUnWrlp4htpIzTgTLI57bKVr15T+7xkNR5kMAih9WnT5+0zjrrpBVXXD4n2YYNG5ZuuOGG3KwjNdl65Nps49Kg6QakmWeZKfXu3Sv3e+l/L+eEGcmvD4d/lD75ZGSeb8+eKc3SMh5/GW/8+B65RtuHw0ekN998O3/v0aNXGjx4cF72/PPPn9eF6T8c/mEaN25sy/AJybVPPvm05XvLfHKdO/5OSMpJktQVmGiTJEkdgkBjJNzaCijWw7QEBekmZz7StIpkAucJXSSxiqaFcs/5Ry0ZOhJfxUA95zmJEIaxrnRsC/0iSRiJB8aJ8ekX/YufwfyL0w8aNDBtsP56acaZZkzrrffVPE55uUV8p39RrHNsC9NGv+LyWXdsu+02+W/0j3VGcV1j2fSL+bFuLGPWWWdNa6yxRu7XXcRxiWPHd8p4fI/jwncSP0sssXj+Tn86akqA/UnijPGK+5txOEZMu/s3v5n7sd9ZBsNiGdF9kaqdzyHKShnbxj6jK48T/asNA9tea75gH0V5ldT1kShbcMEF06qrrFpJdn2S7rzzzvTss8+m3n16p779+uYkW8+ePfL9io5peH/bhx+OyNPQffTxx+mtN9/KNdh69+6dllxyybTooou2vhv4g/ffTx8MH55rtL3++utp/LhxacUVV0z77rtvTrQxP5b58iuvTEipjZ+QCPy0ZX2GfzC8ZdoP08iRo3INPEmSugrf0SZJkqYYnsiPpr9q1UgAgcComVAMsEpTypR+R1s9nAtfdPC7rXe0dXXUFCLBEdeneskK+X6uRrW1nzj3ayXXSTCSGCteH/gcieBqNdsot/WuJaxPW+M0yjIwMX7fdIaarJSfRn5XcXynFspjsTZq1AyupqPKbz0cy87827P4jjZqnG299VZphRVWyLXISITdc889uWZbnz79Ut8+fdNNN9+Uxo8fl9+1xnvYeNjh448+SX/+y1/SqFGjclIMCy60YH7H21xzzZW/k3QjKffhhx+mG2+8OT304MOpZ68eafHFFk8rr7JymmmmGXLTkZ999ll64403WpZ734QkXCWZxrTTDRqUk3s0O7n2Wmunl195OW222SZ5uCRJnZ2JNkmSNNURUKlVM0WaGr7IRNu0oLsn2tQ+Jlkaw37intZW4nZykxosI2oM1hIJvY5KIlsGJmairTm1zo9a+9NEW9uGDLkiLbHEEjnRNmjQoLTzzjtVmm8cl5NcdCTASKCNHTsu/f73v0+jx4xOyy23bNpyyy1zjbV33x2WTjjhn63vYKNpxx49Ulps8cXSUksumaabfnqqpKURI0ak/730Unr88SfSuLHjczKPBNoMM86YZpxxhtSnZV7UhnvvvffS6NFjWpNsWcvnHi3rQe035r3VVlund959J2266caVESRJ6txsOlKSJE11BE0Iakzp4IkkSVMLiahaNXOKGI8uaqs1gvtlJCnaSj6wDnQk46RpRZTfavhNaCK3OSSuaNJxtVVXTaussnKaYYbpE0k2kAQjyUbCiyYje/RMaZVVV841ChdYYIFcO+3dd99NH3/8ccu0q6TVV189d6utTq3DVdOss8yahn84Ig17b1gaNuz9NGLER2n66abP4662+qpp1ZZjynhLDh6c5ppzrjTrbLOnhRZaKH35y1+ZcM2qzK/Y0bzy6i3dnHPOmddRkqSuwhptkiRJ6naiRtuGG25Q6dP93HLLrdZoU0Oo7VIrQK6J0fwj2tpf9WrRkCSrlkiL2uA0tVdv/tRmY9yOPGbM00TI56zR1n6Ux3oJYpTXo5FpJldnr9F2+WVD0lJLLZX++Kc/pQ8+GJb69OkzoQZbxUS1ylqMHDky92McEnF8zt24CYm50NKH/01Abz63DmZYy5fi99Y/n/enZlzrsIrxLf1orvLQn/40vfb66y2/w9avDJEkqXMz0SZJkqRuh0TbpZdeVvk29RWDWV+kH+z//conqbZq7xVTbSS56iU4ys06EugneUYtk5iGeTBecT58j3e51UqixbymhI5M3HV2Jtrap15ttqLyfmW64vvcppTOnGgbcvnQNOdcc6UdvrFDevudt1r6tB3iKyffqonfKYxb/FzWyLAwYZweaeaZZ0kXnH9B+uSTj9MGJtokSV2EiTZJkjRF1XoyX5KkrorERa0kB8kExLCoMVhMoJFU4zPDijXJ6E/ioVqttkiyNZLQ0OSL4zgta8+7cKfk9kwr61FNZ39f8OWXX56bYdx+++3TW2+RaJvYPPPMk3bcccc0xxxzpCOPPDINHz68MiTl2m+DBw9Ou+++e24OctSoUemmm25KF154YXr++efTmDFj8ji8A26nnXbKzUSSLLv77rvTv/71r/Tqq6+m6aefPu28885p+eWXT//+97/T/fff3/qutxlnnDHttddeadFFF01nnnlmuuOOO/L0NHV58cWXphEffpQ22XTDPK4kSZ2diTZJkroRAnYRTCgG8KI5Kp4ijsBgMZjH8JiG6WMYYlyGlQODEfRjer4XA4Yxbjy1H/1jHePJ/lg35hP9GB/FcYrzkCTpixYJA+5TRdyvqJkW92O+cz/jHly8j8U9lHtliGnLtdqqjSup6xsyZEhOolVLtPXq1Ssn2Y444og0++yzp3XWWSc9+OCDrcM22GCD9Ic//CEn1O5q+S09YMCAtOaaa6bXXnstHXzwwemxxx7LCbhjjz0210679957U+/evfM4TEOCbtiwYem4445LW2yxRbr11lvTRhttlBNtjL/tttumv/zlL2m++eZL++23X07Ojau8Uy4n2kZ8nDbZpPs24S1J6lo+b7hZkiR1CwTh6CIxRWKLgF0EAgn0EbCLRBpimvITvzFuUXwn+RVBP5bD8vgcwwgUgmUznH6B8Vgf5hXrRr9oToh1K36PgCPLkCRpWhD3Ve6zxXsc97Di/ZRh1KopKt5Di5iWh0+iP+PFva88rqSuj4RWuYnGMMMMM6QVV1wxPfHEE7n22UEHHVQZktICCyyQvve97+VE2Te/+c087Ac/+EE67LDD0qBBg9LKK6+ca6QdfvjhafTo0Wn//fdPBxxwQNp3333z3759+6Yddtih9X1wr7zySp6GhB5IyFEDjoQcyTXE32w8b2uTJKnrMNEmSVI3Q0COLhJd1GCLzyDpRXCv/AR+NUwbyS4Uk3NRK62IfpHY4zMBQjoSauUkWQQe+RsiMMn6MR+WD8Yh8FgcV5KkLxr3Uu6r3KO4b3G/K99fY3i1pBr3teK9jWm5N8Z9M6Zr5J4tqeup9m40kHxbaKGF0hprrJGuvvrq3MQktc5IhJEcIwFHbbWzzz47vfjii3k+NB15ww03pF/+8pfpvvvuS4sttljL9Wa13I8mIUmU0d1yyy3pkEMOSUOHDm1d/rXXXps+++yztMcee+Tacix7qaWWSjfeeGP65JNP8jgTMcsmSepiTLRJktTNEJCjKz5NX/yMcrAvknPVElkECIvKwb4IBhaTeSFqohE0jKQZGD+ScQyP4GQk7vjLcqNGXXEeJtskSdOaSLgh7qncv+i4b5VrtHH/K/aLcem4P4J7nwk2SdVQo2zZZZfNzUE+/vjj+R1pNOn4ne98JyfhZpppplxz7c0338y1zkiY0b3//vv5PW2PPPJIWnjhhXNS7tlnn22tmcY41HAjyRbvXAPz4d1t1I7r169fXvZcc82VHnrooTztpMy0SZK6Ft/RJkmSJEnSF4DEWRE1tkO5VjiJt/KDMZK6NxJevKNtu+22a31HW8+ePdIMM8yYTjvttDTrrLOm008/Pdcq431pJNJWWGGFtNNOO6Wjjz467brrrunKK69sTbSRJCNBRjKNph+Z9kc/+lE6+eST87zB/BdeeJGcuAPz4d1vJOguuOCC3KQkteUWXXTRdN5556Vzzjkn/exnP2udR7yj7aMRH6eNfUebJKmLMNEmSZIkSZIkdTLVEm3UZqPZxrvuuivXQovaaPTn84477pj69++f/va3v+XulFNOyYk1Em00KUnijGn/85//pFtvvTUnyg488MDWmmnTTTddevrpp9Odd96ZfvzjH6djjz02PfDAA+nPf/5zeuGFF/IwknCXXnppbmbymmuuMdEmSerybDpSkiRJkiRJ6mSi6cYi+n3jG9/ITT5utNFGad55500LLLBAfudanz590j777JObebziiivSAQcckNZaa61ci42mInmP2zzzzJNuv/329Pzzz6fzzz8/rbfeemn77bfP/eeff/48PYm6m2++ubLECUiuHXfccbkmHM1SknwjOVdtHVt6Vj5IktQ1mGiTJEmSJEmSOplqSSxqnG222Wbpvvvuy006fvrpp7mj2cirrroqTT/99GngwIHp1FNPTffff3+u1UaC7B//+Efadttt8/vcqK1GLbff/e53eRxqrp1wwgnpxBNPTN/+9rdzk5JMTyKN+X700Ud52TRX+corr6R77rknPfroo3n422+/nZuunIivaJMkdTG9fvWrXx1e+SxJkiRJkiSpE3jmmWdy7THehfbxxx/nftQ2++CDD9J1112XXn755ZyMo6P5yKeeeiq99NJLORn23HPP5YTYq6++mkaOHJmbfWQ+F110UXrvvffyNCNGjMi13xiH+TMOtdxobpLkGbXYGPeJJ55Ib7zxRp7Pa6+9lpuc/N///peTda+//npO+g0bNiyv34ABA9JOO+2cRo0anRZdbJHcT5Kkzs53tEmSJEmSJEmdzGWXXZ4GLzE4/eqwX6Vhw96r9G2/Hj0mVDGr2sxjRSPjVMN0MQ1/qFH3uyN+l1577fW08SYb5v6SJHV2JtokSZIkSZKkTubyy4akTTbdNL355ptp3LixLX1IhkWYr9rnCcmyzz/zly7eLBPjF/uNa+liuramj3GL48Vw/rZ86tEzzTnXXOnmm25KG2+yUe4nSVJnZ6JNkiRJkiRJ6mTOOOOsNM/cc6cePXvmWmNR6+yLFOm3elhXmpT85jd3rfSRJKlzM9EmSZIkSZIkSZIkNSHqdkuSJEmSJEmSJElqBxNtkiRJkiRJkiRJUhNMtEmSJEmSJEmSJElNMNEmSZIkSZIkSZIkNcFEmyRJkiRJkiRJktQEE22SJEmSJEmSJElSE0y0SZIkSZIkSZIkSU0w0SZJkiRJkiRJkiQ1wUSbJEmSJEmSJEmS1AQTbZIkSZIkSZIkSVITTLRJkiRJkiRJkiRJTTDRJkmSJEmSJEmSJDXBRJskSZIkSZIkSZLUBBNtkiRJkiRJkiRJUhNMtEmSJEmSJEmSJElNMNEmSZIkSZIkSZIkNcFEmyRJkiRJkiRJktQEE22SJEmSJEmSJElSE0y0SZIkSZIkSZIkSU0w0SZJkiRJkiRJkiQ1wUSbJEmSJEmSJEmS1AQTbZIkSZIkSZIkSVITTLRJkiRJkiRJkiRJTTDRJkmSJEmSJEmSJDXBRJskSZIkSZIkSZLUBBNtkiRJkiRJkiRJUhNMtEmSJEmSJEmSJElNMNEmSZIkSZIkSZIkNcFEmyRJkiRJkiRJktQEE22SJEmSJEmSJElSE0y0SZIkSZIkSZIkSU0w0SZJkiRJkiRJkiQ1wUSbJEmSJEmSJEmS1AQTbZIkSZIkSZIkSVITeowaNWp85bMkdQl9+/atfJIkSZIkSVJnMGrUqMonSepcTLRJkiRJkiRJkiRJTbDpSEmSJEmSJEmSJKkJJtokSZIkSZIkSZKkJphokyRJkiRJkiRJkppgok2SJEmSJEmSJElqgok2SZIkSZIkSZIkqQkm2iRJkiRJkiRJkqQmmGiTJEmSJEmSJEmSmmCiTZIkSZIkSZIkSWqCiTZJkiRJkiRJkiSpCSbaJEmSJEmSJEmSpCaYaJMkSZIkSZIkSZKaYKJNkiRJkiRJkiRJaoKJNkmSJEmSJEmSJKkJJtokSZIkSZIkSZKkJphokyRJkiRJkiRJkppgok2SJEmSJEmSJElqgok2SZIkSZIkSZIkqQkm2iRJkiRJkiRJkqQmmGiTJEmSJEmSJEmSmmCiTZIkSZIkSZIkSWqCiTZJkiRJkiRJkiSpCSbaJEmSJEmSJEmSpCaYaJMkSZIkSZIkSZKaYKJNkiRJkiRJkiRJaoKJNkmSJEmSJEmSJKkJJtokSZIkSZIkSZKkJphokyRJkiRJkiRJkppgok2SJEmSJEmSJElqgok2SZIkSZIkSZIkqQkm2iRJkiRJkiRJkqQmmGiTJEmSJEmSJEmSmmCiTZIkSZIkSZIkSWqCiTZJkiRJkiRJkiSpCSbaJEmSJEmSJEmSpCaYaJMkSeom3n333fTyyy9XvkmSJEmSJGlymWiTJEnp1VdfTYccckhabLHF0qyzzpp23nnn9OCDD6bx48dXxpjUp59+mk466aS01lprpb59+6ZNN900XXLJJWnMmDGVMSb13//+N3d45pln0ne+8530/vvv5++Nevjhh9M3vvGNvMwvfelL6e9//3tel7awvJ/97GcNjVs0duzY9Pvf/z5dfPHFlT5TDvv7xhtvTOuvv37ePvbteeedV3Wf/u53v0t33HFH5Vtj2Ae333575dvExo0bl66//vp8HGPf/vznP09vvvlmZYzq3nvvvfT9738//y1+bg+2hWXSUQb/7//+L40YMaIytLpiWZoamik/TLPSSiulY445ptLncyeffHLacsst29xXxe2c2ttcxHZzrlEu5pprrnTwwQenYcOGVYZ+7rPPPsvbFuNxLD/++OPK0JSnOeyww/IwjvWJJ56Ypwks57jjjsvDGOc3v/nNRGWhreEsi2UynI5xqx2zjjg27TE1ryOSJEmSpKnLRJskSd3cU089lQ4//PC044475s/UevrLX/6SLrroopzkqZZsI5h96KGHpo8++ihdccUVOVD+73//OyeJCMYTVG7LEksskaeZeeaZK33a9sYbb6R//vOf6cgjj0yjRo1K9957b16Hc845pzLG5CMoT7Iokli9evXKCadtt902f5+SnnzyyZysPPfcc/P2XX755em2225Lt9xyS2WMKYNjzLG+8MIL8zHheD700ENpzTXXTL/4xS/Shx9+WBlzyrnpppvyNj/66KM5gXLGGWdUhnRu8803X05aFxPKw4cPT3fddVdOLHYWV199dfrggw/yOffSSy+lJZdcMp1++umTXB+uvfbanKCK8WaaaaZctkC5+uMf/5gWXnjhPIyk+dtvv53OPPPMPB+6U045JS+HYYyzwAILpD//+c852dzIcMpvnz59cjmi41pV6/owNY/N1LyOSJIkSZKmLhNtkiR1YySVSJQR/CY5ts4666TFF188J5modUJNkWpNDd588805gH7AAQekGWaYIfXo0SPNM888OSlz//33p6effjqP99xzz+XaZ9SSO+igg3JQPRRrCPH5Rz/6UfrrX/+aa6GsscYa6e67766M+bnRo0enQYMGpTnmmCN/HzBgQE747bHHHvk7wXaC+l/+8per1nYJ5dpJURPr9ddfzzV1qNHy1a9+Nde0QrH2GNNEjRq6Yo0cahuxDfvuu2/e5r333ju98847eVjUtGG92CePP/547l80cuTINMsss+QOJCGPPfbYXMNtSiJhMWTIkPTLX/4yH0eOZ+/evdMWW2yR/vWvf+VjzHbEdrE+1Y5PWXGbmYZEbDkxU8YxJcHHsWB/XHbZZa3Hs1w7KkT5IUHMeN/61rfSCy+80LrsXXbZJb322mt53Ea3o7ju1PK77777KkMmYDqmZzjnSrXaXaCMzD777DmhE1hf9vOcc86Zv7NPGtnOonplnfn/9Kc/Tf/5z3/yeUeZLZfbWEajy95mm21y+eD49OvXL5+jcYyKqAnGORnjfeUrX8njgXJGMnWHHXbIwziXqdVKUo7kGechyeY999wzD2Oc7bbbLg9j2raGkxB+5JFHcjKL5dNx7DnXql0HGjk2cW3gL9iPXDsYD1wbSFBT5rhGlI/L/vvv33oNKF5HmjmfJEmSJEnTJhNtkiR1YyTRVl111ZwoImF02mmn5aA3zQtSe4zEG8myIhJyd955Z9pwww1zMqaIBBjNsRHYppbI0UcfnQP+BJX322+/XGuplgceeCAtv/zyOYD9j3/8IzdLSe2SIoLSBLoJShPQLrvyyitzDTCaQIzaLn/7298aqmEHAvfUjtlrr73yupI4LIoaNSQiqC0TNXLOPvvsyhgp7ztqrrDNK6+8cuswkkysP0kHkkLUvCknKeaee+68vx977LHclOPUwjIHDx6cl18L60tyhe0i+cf38vEpYp9T+5B5ciyotUT37LPPVsaojuNL4odkB8kxavhRs4959OzZM+/Haig/K6ywQm4GlbJJAob15ftmm22Wy3bUeGprOxiPJBU1nlguiRPWO5I17K8TTjghJ2Q5ntTuIiFZrZxRu4rkE+cMw5n3rbfempMrbA9ICja6naGtss7+4Hz805/+lPr37z9RueX85LiwXc0sG1w7OEbMuxbO0eeffz4n70FtWc4BkmSBpDIJZY4HycoZZ5wxJ/ED39mOt956q83hnDMk8orY/yTgyv3RyLFpBA8eUMuWclU8LpQNkrRcy8plo73nkyRJkiRp2mWiTZKkboxaGtReIoFADQ4SCwS9CdgTuCcoTvC5iIA1AW+aQquGoDcBdhJm1OigRgtBa4Ltm2++eWWsSa2yyipp9dVXz+OybJpuKwfHCdD/6le/SjfccEMen5orp556ak4gkLQiwE2SjG0gaUYtHALwUZtpclFz5oknnsi1V6gtw/p885vfzMnJCJKzTvPPP3/ejmWWWSYH+WMf8r4zxmM7qX1VTlKQ/Pj1r3+djj/++JywpDbOpZde2lpjbkoh2M/6UhZqIWHKtjIe60mStVqyM7DdJKSoFcexICmz3nrr5eRkNdQg5Jgvu+yyed7s40UXXTQnIOadd948j0UWWaRqzSRE+WFakscbb7zxRN+ZjjLSyHZwnGlGlSQMy6VGH4m7OF7UgKLWHevHfDbaaKOceKrVxObSSy+dj/srr7ySywDzZ9rQnu1EI2WdZa699tp5+8rllvGpFbbHHnu0e9lgObxrjP1Tq8xQu3PgwIG5BheJTjBdPeyjarXpQlvDScBx3rBuUYuPZGLUqKumrWPTiK233jqXpfJxoWywj0jYl6+X7T2fJEmSJEnTLhNtkiR1Y9NPP30O7vKX2iZ0BNkJAlMTJRJxRSRDqIXyySefVPpMjBpeBI2pKUPAujj9dNNNV/k0KQLRxXFZj+K7kwLJu9///ve5xg4JAtaRJtkYl/e1kdAJJEZIkpRrjjWLhBTB/GKNGvYd6x1B8nJAneA9yycZs+KKK6bdd989J0CotVVOYiKao6QJTmrXUcOG2lJTEttAbaBq6xNImpFAYP+TGKD2Uz3sKxKQCy64YC4zdDQTSCKjmnhHG8uh+U6SmCQYqVm21lpr5elJFNVSLj/l76GR7WDdKavF8koSihpQIIlMc4KxXSSpSMzVKmfMZ6mllsrvvaPpQ5LPxVpd7dlOkGxqq6yT5OI8RLVyG5pZNon43XbbLZfVWnbeeee8LiQojzrqqLycaI6xFmqnFfdLWVvDOd6UMZqY5T1wG2ywQd5HJL5raevYNIJ9jWrHpZb2nk+SJEmSpGmXiTZJkroxaq/w7imC9Lw37Gtf+1pOBtGEI7XbbrnllkmC6SQwqJl03XXXTVLTimQXNZaoycX0BJOLyRuC0B2JWiPUJmEZbAOJBJKFgUA/tYyiJlItJHgIzreF9zmxDcXtICHI8iOpUQuJGmq70UTfOeeck/9Si6YWkgYE7ElUVEs4dqQlllgivfjiizkhUw37kCYISRJSO4hmRUmg1UNtSJrGoxYT+zc6kguNovk9amLxHkGmpfnHydHodlCuInEbKOtRRjhvzjrrrIm269prr80Jk1o4Z9gemhbk/Cpq73aSCGpPWa9WbkN7lk0iiSQ3tedIFreF2lq8qyz25WyzzZYT48VaaSRe6VhHEvjULismYzm/KJck6doaDvYNtV5JcFObjmsR+6pe8qzesSkjoV7rIYNqx6WaZs4nSZIkSdK0y0SbJEndGIFhmnM85JBDchD7nnvuybV1aHLvt7/9bQ4a04xjGU3x0SwbNa4iCUSw+PDDD89Nt1FDhAQd86JmFrWlSOjRnNzkICHwwx/+MC8LrAPvRyJRRHJktdVWS7zfjXUiMcK7pwjAU+OoiGQENUh4fxfjXXPNNbkmXgyjlglJh3ItL/YHy6KGGcsmYXDGGWfkd7FR26aeY445Jo8b714jMRc1pAJNYrIPCcSDv6wbx2NKouYhCYkjjjiidd+y/byra//9989NhZL4i2QAtX9IZNTDvqJW0dChQ3Nygv1FzUO2sVHs34UWWijXOuKYkjiZHOz7RraDc4Ek55AhQ3L5IJFDLcOoLcbxJtFMopTy8cgjj+T37hUTSGXUqiLRxLaUa1i1dzspo42WdVDTjfnzvkCOA8fj9NNPb212tZFlMx3lfvvtt8/LroZ5UdOPpBX7muUwP+ZNR4KS2pM058g6Mz7vjuOaQXkhOUuNsnifHONccMEF+dzimLU1nDJ72GGH5ePG8tke3hNIwrdesr3eseE85bhTY5H3rFHDlOtQNSyDRB01BFk260AClnJffEcbn9t7PkmSJEmSpl0m2iRJ6uaWXHLJnNw599xz82cSDNRa2XHHHXNQnYBwGQm6I488MtdC2WqrrXKTc3vssUeuXfa9730vT0PtHpIPv/zlL/M8Cb7vuuuulTk0hwQetWlYFssk4QHeZQbeBUUTeDQZRxCb92YddNBBkzTnSDCd7aOGGUksEl5RG4l1p4YL637ggQfmYH5gGO+2Yvt5lxhBdd5JF8uvh3FIOsQ+Y11J6BWts846+Z1RJD/ZPv6usMIK+f1lJAaZhqB8iPeaRcf8qfHDskg2NIr9Q0KN945Rs5F5UROJGj6HHnpo3pesC/ueRCPvKCOxWQ/z3HvvvXNNOWo3sr/YV2xjo9i+Rx99NO8zEjj8nRwkZBrZjtgfJNAouyR3OWYkiUASmSYKaWaRmor/93//l/bbb7+6taaYJ9tOVy6PzWxno2Ud9GP9qGHGceA8J7G8ww47NLRsEkO8N5AmPUmyRXljfBJwge3/2c9+lpNf7DeOO+8sY73YTyStmAcJbhK7cf7QDCXnFh2fOS9I5sd2MQ3TtjWcdWI7Se6yHewb9lG8I66WeseGMkM55mGEwYMH5+WxD2uhBiq1gqPZShKyTF+cL0nF9p5PkiRJkqRpV49Ro0bVfhmHJEmSugwScSTseH+WJEmSJEmSJp812iRJkroJmrajeTxJkiRJkiR1DGu0SZKkTuO1117L72Hi3V/V0KzbwIED8/uWJEld20cffZT/+gCBJEmSpC+SNdokSermPv744/wetaeeeiq99957acstt2x9BxMd3+k/JdCUIe9Puvvuu9MxxxyTPvnkk8qQ6ni30SmnnJKee+65Sp+J3X777emZZ56pfGsb7187+eST05e+9KX83ifetcX+KKO5Rd5l9bvf/a7SZ2LM58QTT8zv7uLdZuedd14aM2ZMZWjK76Taa6+90qyzzprWX3/9vL3h6aefzu9FYxjjMG41b775Zn7XU6wD82c5vIOKab/5zW/mRCMa3S6wfJqSrLZuTMO0bBfdcccd1/pOLvbzSiutNFFZqbV/JKnov//9b+t1g2sU70TkGtcWpqMD16ff/OY3Va+ZvIOQ9yjyjsgpgXsi7yicUvdGTMlt4PrNvN9///1Kn4lxLef+3F7NTidJkiR1dibaJEltGjt2bA7cE2DnbzGBoM7vhhtuSIsuumgaPHhw/r7gggumN954I9ccoxsyZEhOwkwJjzzySDrssMPSsccem+aee+5cG62eQYMGpW222Sade+65uVxOrmuvvTYHSu+9996cTCORR/KqiPJ+6aWXptVXX73SZ1LXXHNN3mcPP/xwuv7669Ott96aHnzwwTzsnXfeSUcccUTaZ5990rvvvpuTVaeddloaPnx4DnL+7W9/S4ccckgOqu6www55OOdZEUnQX/ziF2nllVeu9El5/izn8ssvz8vYcccd0z/+8Y88bSPbBdaBBOfPf/7zvG4kC+nYlvHjx6d///vfqU+fPunRRx/NHYHtc845pzJ1ShtttFGeR5QV1lGSGsF1kOsGibJNNtkkHX/88fl7o4YNG5YfBFlyySXz9W633XZrfdBijjnmyNevWrWfO4MpuQ1LLLFEnvfMM89c6SNJkiRpcphokyRNhOD6Bx98kB5//PGcXPje976Xa+gstNBCad55500LLLBA+spXvpJr3lx00UU5+E6gnenU+ZA4IVmz3nrrpR49elT6Vhe1m6h9QA0sygioXXDSSSdNNIyEEygXl112WS5D5ZpVTEcNttNPPz3dfPPN6cYbb8wJI5DcokZW1KTicyR4CaqSoKIZyfYgUczT9sUaCARpDz300DRgwIDUr1+/XLZff/31ytAJ2BaGLbvsspU+kyJhuPHGG+dEIIHLNdZYo7XWHTXEWGfmzT5eZpllckB5xhlnzNvL+My7V69eeT/RFFo0hxZIdB599NF52kDSjaQc0/fs2TN/51xk2ka2C6wD68LyWbf55psvzTnnnGnEiBHpww8/zNu17bbb5vnQ7bLLLvm4M1ySOkLv3r3TKquskn97cH/gWs21La7/JP/LDx/gtttuy9c1runf+ta38sME1OLl3kK/Yo2zYq1iagFzX+L+VO9eU1Qcj+v01VdfncaNG1cZmvL1vq2aybFOQ4cOzbWHmVexlnDcS3/yk5/kh0mK23Dqqafm5QcehjjwwAPzNZ/7yL777lu1VjL3L9aLmoObbrpp6zASkj/72c9al01/puU+fdRRR7XepxHbxjz4W6xRXm86SZIkqTsx0SZJakWAhNpL1G7ZYost0re//e0c7KE5upEjR+agFE+b8/2CCy5I3/3ud/NT6IxPrZpaTRBp2kVTXSRpeHK+LSTCCOQR2PzRj36Un4anXIBaTjQByTBqZxFwIxD4wgsvpEsuuSSXD2pWsSzmE2jqkfJDmSJ4efbZZ+f+999/f3rggQdyrS06Ej50mH766dPss8+e59eRCKQ+//zzafHFF6/0STnZREJ5q622qpuIXG655XKtNs4hklD33XdfrjEAAp0kr2j2kf1XDFSyHZw3JKwJ2rKNjFN+3xDjsd31sL+rTVttu2ohYMt6kLzjb7l2CbXb2CfR/5VXXkl77rnnJNslSY3iGkUt3BlmmCHXaqZ5YK6lXBe5flLbN+4N1XD9oXYcNYIfe+yx3BRuEdfYX/3qV2mnnXbK17iLL7441zx+8skn695riq688sp8v2R9uG+RoIpkGvPknse9j888kPCXv/ylNYlVxL3uoYceyvdE5sX4xVrC7AfuFWxLEc30sl6RyOKBBx6AYp9xL+bhDuZF7XC+k4DjHsnDJdQaJ1FJjef//Oc/+V5RxHhM869//Svfw2km+ZZbbsnDuMefcMIJ+aErPvOXcbkH1JtOkiRJ6m5MtEmSMhIiP/jBD9KPf/zj/FQ1QZpGEEgiAHbwwQenn/70p3k+6jzeeuutnMApNtlI8IxmHOP9OcX3rRBopGzQjCKBxP79++f+BDYJBEbNqqWWWiq/V4YmKQnEURuSmlWLLLLIRLWhqC01//zz5+morUUSh4TuqquumoN7rBsdT8tHUg/UrKxWY6AaagNQw4vaW7zPJ7atuF2UefZBvDMuUGuBbZ1nnnkqfarjiX7OBRJUBH1pfpOaFWwLCStqTxDsJBBKoJLgJ8FfxufdagRW2Zf0J0jLvmoPgq9nnXVWTpAXp621XWWxj2gKkpp5s802W25ukmNKUJptozvvvPNyQDVwzP7+97/n7aJGCWUiAsGSVA/XDK7F1KQlqfbDH/4w13J+4okn8jBq0VJLmGskzeA2+rukjNpb3GdIBHGv4cEFmsxdeuml27zXgO933XVXTn6xPqzX5ptvnu8l4HcPn6k5zPyZJ9fh4rUyMB7vRmM+dLvuumtuGjiSclx/qelWfrCDpBrzpiY3zSZTk2zNNdfM4/Hbi33EcOZPDUGSl/fcc0++pkeNZe7HbGusd2C8tddeOzdRyTy47lPLHdyXuK5vsMEGeRj7kfsa61BvOklfLBLz1JjdY4898rVvhRVWyB2f6cewag8VdITuumxJkky0SZLyk9086U3NIwLmzWA6av6QOCFIps6r/I42npQHAbsVV1wx7b777jm4Fk1voViLioAegUISdjxFzxP0NNVFQJXgaRHNJRaRyCOoSTLuz3/+c05WMR0JsmaR+KKmJkHaX//6163bFtsFEoUsd7vttss1E1hvgqTUPFhnnXUqY1VHwJFAJMFMgsQsh0AsTYCBACS1PyOhyHIJ5nLOcK7QHNjll1+el0kQlO1m3zWKgOo///nPnOAsv0eu2nZVE/uIYDJNxlLDg+NIQHj06NE5kEqglYQj2wFq7NH0WDRdue666+bgMsdQktoS72jjmsH1iQQY10WS/HSBBBjXI651zSARxsMf5fsNGrnX8PAAzVryAEJgXGr4gvkfeeSR+bpPf9ad+yP3gzKmYZzAPGnuN8Yt10gO7APWkRp4PKTB+nCfBTWJaa6S+wpJtLh/kGAsNjdcC+PxEExgP8VDNNzjSep9/etfz/cJ1oEHYlBvOklfDGqVklAiic/vUFpY4GEqfqvS8Zl+DGMcxu2omqjdddmSJAUTbZLUjfEPj+uuuy43d/Tss8+2Jk2axfxoFomAPO9OKb6/RJ0fSRQSqSSFaOqKvzQdiOI7xShHNFVIAI4kLsmkK664IgdUCaw24owzzsjBSGoxMB0JsiKWR+CxI5EsovlKgpjM//zzz09/+tOfciCUdSFJSBCWd+ZE7QMQ8KRmIDXGqElAsJWkE4k6klwETvlbDU2H0fwqySsCyTTvSFKr0ffPEXimOTBqKtB0I/MoK29XPSTNSNYRQAU1LmhyjUA4teII2hJEpn81bH8EnyWpvUi2cZ0qXqtIhnFf4frSDO5F3JOq/cZp614DrunUDH733XcrfVIel4cQwMMpvH+UftFx36v2Xk+mYXhgnvWuqUWrrbZabhqT2hizzDJLno6kF/cpHoDhnsODJKwPeBiikVYGGL84Hr/l4p5FzXFqLVPbmnVl+TRXiXrTSZr6fvvb3+bfqCSUGsW4TMO0k6O7LluSpCITbZLUjRHk/8Mf/pCb+KuHp5QJMhEIqhbILyPQQhOUBK4mN3mnKYt3h1HLqZHgGE1tEZSMBGoxqUIThfGeMQJxPFFPwoiaADR5RbKJRE+xucZ6CKzytD5Px5PMo4ZVIJhHYiuCiY0iWPqLX/wiP5UP1o1/ZJMMZL1JWrF+rCsdzZgVA6ckCQnCkthiXoGEHwkq3uHDPEjC3Xzzzbn2F+tPbT72D9vBclgGiSsCyjRdRk0yhnGukPDmfKSpzbawLN6huOSSS6avfe1rredmW9tVdMMNN6QDDjggHxsQpOUJX/Y920xzl6wf82Ecas5RI4/tYpuOOOKIvL0MZ5vpT5mSpGaQPCJBxHu/uLZwPeO+Q41dmv+thWsytblIZHGPKIpE26233tp6LeM9oyTD6t1rAr9/uFafd955eX3oaBI53nXGAxJct7kHch3ngaP999+/dXgR/c4888y8bXQ0zUstMZbfFu6lTMO+4WEOrvlsK3/jfkgt7KhVTA107ku8z63eevEgBuOxDewfmkxmvcB9gGPCe1xZFs1Fss9QbzpJUw8tKVBDiwfEmsW0zKO9TfR212VLklSNiTZJ6qZIrvz1r3/NL/+vhUTK9ttvn375y1/mgPvhhx+efv7zn+cmBHkCnEQC7wYhyVBGUIt28ButmaMvRryPptjcX/kdbXQkanh3GH9JEG211Va5BhfTg6ZHL7zwwjyMp0MJ5hGY450IBB/pT/KHv42g3J166qm5NhnltPhOGYKhPMVfbLKqGSSOafrwggsuyGWZ9wRRE/Oggw5q1zvS2D8EbUmSkfSiFgP/YKfZRQKgBCN33HHH3Iwj209tQGo/cN4st9xyac8998zNfrHMn/zkJ/kdbo0kEWmqlSQZx4JpWQ/es8bxbHS7aBaTRCDzYHqa02EevGuI7/vtt18aOnRoXm9qqjJuvOttm222yYFvtpflXHXVVTk52Z59J0lFXDO5JnJ95tqy/PLL53sJ9596SLTxbjQeOqApyCKuX1xzSdjxmfvLhhtumJuTrHevKeIexzWR2sNMQ+KPd4WCefKeWu59XP++/e1v53emVZsX05C043rK9rGdXEsbwUMd3Bu4/5GMBEkw3hfHPOjHb7r4TUYCkXsKv91YL67PrFt5vdgP1Nhmu5gHTazRVCRYHvcptneVVVZJb7/9dmvtu3rTSZp6DjzwwHbV5qqFeTCv9uiuy5YkqZoeo0aNsqqBJHVDPI196KGHtjZ9VEbQ6uijj861f6jJQ3CF2ksEiWiijtpwBGsI7tDUXLXmiXgKnBovu+22m83JTcNoApImoQjARa2o9qBmE0gkTWk8lc873wiKkhwqY10IDFLrSpKkaQWJKB5aIiEXNaslaXJwPZmcGl3V8O88rlVt6a7LliSpFhNtktRFkZColTTh3Sc8UR3N/5QxHS/254lvaiSVx6MmEU+MM4xxeW/I008/XRk6MZ7YpuYNiRFNm2gG66ijjso1BqiR1V5TM9H23HPPpUsuuST94Ac/qFpziqQhzS5Si0ySpGmFiTZJHYmmvmktohpqnu6www5p7bXXnuR6QzOwNJ172WWX5eZgq6GZdFo9qKXWsmmGkQfheO1AW1gHHsjk3yFFzS67I7S1bEmS6jHRJkldDO/e4EX51EDjHVk0u0RzQ0UnnXRSbvKxFt7rcfLJJ6ff/OY3OXFRDbXYqPFGc0H1Em0k4miWieacJEmSJEmTh6RWtaYTeZ8jD9DR1C3vUKRJ+OK7K2n2m6ZlZ5hhhtxkLk2al6200kr532+11Fo20/BvxEbwvmX+PXrXXXdV+kzQzLJJLO6zzz65ifN4t/gss8xSGfq5YcOGpU8++SQ3wXvWWWflZs+L2lq2JEn1+I42SepCeM8W71Pj3SC8i4N3RJ1++ukTNQ/Ji/R5eX09vJifpx9rJc9w77335nc3Me96Ty1Ssy5qPEmSJIUHHnggN/d73XXXVfrUd/bZZ0/yDrZmPfPMM/l9lvwumtKozUYNDP5K0uTiocpa7yfjvYlzzjlnvr7RHCLvkCShFd2tt96ar3/8O49ab/HexSLmzTKqqbdsjBs3Lv8bkYRVrVcU1NPMsnm/Mf/upcWWwYMHp/nnnz9vV7mjP8N57+SvfvWrSWqv1Vu2JEltMdEmSV3IzTffnG644Yb8jxoSXO+8806umTZy5MjKGCk/1UhXDy/X56X/9ZrfGzNmTG4bnwBVW+/1uv3223NzlZIkSYHfB7vuumtuCqxY46IWmjgmaCxJ3Rn/5quFJtSpsXXttdfm7z/5yU/yvw9pJvLEE0/MrwAgEffYY4/lVk9o5r+aWsuot2zwb9APPvggP1jQyHW9mvYum4dEe/fuXfnWGBJvtMxS1tb2SZJUi4k2SepCaC6y/OQgTUnyZGF4/vnnJ2kLv4wmNUik/frXv07LLLNMpe+keBLy/vvvr3yrjSQb7fBLkiRh+PDh+TfJ17/+9fT666/n3zDg9wK1v+L9sARqacqa2m/UkI9a8ryzk9oac801V/69QmAXPAB03HHH5abR6Agsf/bZZ3lYo2Le1O7fa6+90quvvloZktLLL7+cE34MI4BNc9yxTjzgtO++++Zh66+/frr77rtzf0nqSFwPa5l55plba88edNBB+RrLv9e4VpFk+8pXvpJ+/OMft1mbt9Yy6i0btHRCrTqu43369MnL4aHP999/P19biw+A1tLeZffv37/y6XNcj0kw1rr+RxOTZW1tnyRJtZhok6QuZIUVVpioPfqePXumNddcM/8jJ9Aeflv/wHn88cfzP04IXl166aU5YLX55pvntv7nmGOO/I8S5k0Cb6eddkpPPvlkZcraeEeAJEkSSLLxe2KppZZKc889d/7tAZr2wiuvvJL/koDjvTq8dzaMGjUqN4196KGH5iQdtTKovUFNilNOOSU/UPToo4+mhx9+OE9Pk5ON4vcP7zc65JBD8meSan/5y19ysJhAMUk9km8Mo6nu4vuN/v3vf6c11lgjDzv22GPzdxKKktSRGv131XrrrZffgcb1jGvj8ccfnx8E4N+Hbam1jEaWPWTIkHT44Yend999N//de++98/Vyyy23bL2e1tPeZZffRw7+ncp9goQfrzyoVruOf8+WNbpvJUkqM9EmSVMYwSCehOYJbYJKPKFNIKgR1ATjiUTevcbn4nQEnQgg8Testtpq6YADDkirrrpqrom22Wab5X9YFZ/yo7ZaW814PPjgg+mCCy7Iy+QfY7vttlv+hwrt7f/rX/9KP//5z9O2226bE2/UfCvWmKuF4JQkSRJ4T9Aqq6ySBgwYkH+30Iwkv08ImPLgEL9xwMM81MKgWesifn/w+4q/NCdJDTRqtfF761vf+laeL02DEdwlyNpowuuFF17IiT9qfRCEZd369euXE3q814hEIO/1YRhNru28886VKVN+/xHLYxjzoCkz1k+SOlLU4G0L1yL+7ReYjmtS+XpaTa1lNLrsIv5dygMPxxxzTHr22Wdz05b1dOSy+XctrbAU90M9zSxDkiSYaJOkKYRgES9T/sMf/pCfaKa998suuyz96U9/SpdffnlDL4e+5JJL8vQ//OEPc9MXkSAjWccLpkmq/eIXv2jtT821PfbYI/3973/PtdBYFkGsak/r1UMTG//85z9zQo31Znk0r0F7/muttVbab7/90p///Of8jyVeot3e+UuSpO6L3xUktJZeeun8nffr0KRYNB/Jg0M0dUbNNP5SS6z4PljeI0uTaARPSXqR7GJ6apIRQC4GkUncMW2jCS/W68gjj8yJOpbDvPj9RpCWYdTA4zdRmG666SqfJjQ5SW03WgQg0dbWO3ElaUriGsn1k+YjuS7xEALXwttuu60yxtTBw5kzzDBD7qaEaGq4jHvLxRdfnN8FWqvWmyRJHcXIqCRNAfxo50ntH/3oRzkAs+eee+YgEE85886Oo48+Or/Xo61mMzbZZJO0xRZb5Cf/CNZEjTaetOO9HyTyLrzwwonmQ/CHd5KsuOKKOchTDAaBZprK/aphGTx5uM8+++R/nP32t79NN910U+5PwIrAE82OEIyiHf628L4ASZKk//3vf7mpR4KgJLOWWGKJdMUVV7Q22bXQQgvl31LUTqMJyWKzkWH22WfPv6XuvPPO/DuLh5pmnHHGXBufLkRLAtQua8SCCy6Y/u///i+3SBAd60HtNYaRTCu2MBDLooYGDzjtvvvuufYb78hlfEnqaPVqpPHvQlokAdckrl80eXvjjTfm2sE8TBk1huuptYx6y+4o7V12tdcicI/gXXQLLLDARA9qtGVqbJ8kqWsy0SZJUwBNGf3sZz/LT+/x5OA888yTf7TPNtts6atf/Wo68MADcxLrj3/8Y92abfwDgSBN/GMp8ETiRhttlJZccslc2634NHVbmGe1F0YHaqfxHjae5KamHO90u+eee9Lf/va33FwkgSaCSFdffXUOXhHUIqFY7SnBIoNNkiQJ8c6gYjKLmvI80EMSi98U1Bz7z3/+kx8aKv8OohlIHgR67LHHKn1Sbt6R8Uja0cw1wWZqxJ1xxhlp5ZVXzr9XGrH44ovnhB/veGNdXn755bT//vvnxBnDqNV2xx135ETgfffdl/773//m6fjNRDA3fu889NBDuelvSepo1R4+CFyreLBy+eWXz9eg733ve/nfb1xTqQHMQ5rgWsV1rNZ1qtYy6i27o7R32TzcUHwAAvybtl6CjVrKNAdcNjW2T5LUNZlok6QpgBprJKiovUZyrYxaajytfemll+YkVnvRRCRPbxOQounI9uBJRpJotfAPs0MPPTQnBKv944Qnt2n68tvf/nY67LDD8neSiPzjrRbmWW+4JEnqHnhIh/eurbfeepU+E/Cd2mK8mxa8I42HetZdd91Jfo+QNPvOd76Tm9AmwUYNDZoGo9Yav494NxuBZQLNPDy0yy67VKacGLXqmBe16ui+//3v54eXeOcbNfmZN793aJGAhB8PK/Ebid95PER1/fXX5+WC30Kbb7552mabbXKyj/cCWZtf0pTw5S9/ufJpUlzXaL3kd7/7XW5i92tf+9pE3U477ZSvmRtssEFuQpIaxtXUWka9ZYctt9wyHX744fnfwfzlO7iuH3/88VX/fVzU3mXzSgUefOD+Eq9UqIZkHA9hcJ/hFQ1XXXVVZcjnGtk+SZKq6TFq1KiJH/uQJE0W3i/Ck9MEZI499tj8jrRqqPFGM0fUBqMjeQbazWce/AOAmmv8g4Gntrfeeuv8RCL/cKL5Rv4RQUfQh348Dc64vF+NQBOBJZ7Ue//99/Nw/kFDf/rxXrXbb789L6+MANPvf//7PD9e6l/vHyus83nnnZdfcL333nvnxF81JO1oH1+SJKmzovbDUUcdlQPH888/f645QhPa/E6L981J0pTG6wMiyV8NDxnwb7MVVlhhkpZMqMXGA6E88HnyySdX+k7qrLPOSsstt1zl2+fqLZtmdzfddNOG3t9N7WBqNldL9DWz7I5Sa9mSJLXFGm2S1MEeeOCB/J4Omj2aZZZZKn0nxdPOJLN4epsmkED78vy4J/FGAounqYcOHTpRUxgk0371q1+l7373u/mJRF78D/6R8te//jU368h0Tz31VH7qmn9kMR7/8GH+1C7j3W9t4YlHEn310Ozl888/n//GepTxFDrvp5MkSerMaDpyt912y82CUwOOgC812Ky1L2lqIhG00korVb5NinewUUOX92lTi6zY8UAoNczqJdmYd61kU71l829U5l9eZrXuG9/4RtUkW7PL7gj1li1JUltMtElSB4t/MBCAqddEY7xomdppNGGBW265JSfLaKboN7/5TfrLX/6Sn9x79tln83DQxBE15TbccMPcn2QdSNyRYKPW2jXXXJPfSbLvvvumCy64IP+Dge9XXnllHpcgEQm3eqgBx3Kipl01JNF4YvKll17KzUBVw3qVm4eS1Dm8++67+f1EkjQtovlquqmF3z38prnhhhvy7y/+8r1aU9uSNCXtsccelU8dr615d9dlS5JUj4k2SepgNNMIaqGVX8pcTQRnGPdPf/pTWnLJJXPb8DS5QbKOH/zl+bAMEm7lJBj9SeDRPORGG22Un7Am2feHP/whN0nJi/nBO0N44rBeEg081ce0CyywQOt2Beb79a9/PTeRSbNJNENSxjjUvIukoqZdr776am6+ZbHFFkuzzjprroXI+2XqlWESxCeddFJaa621clmlqRjed0BZq+W///1v7kATXLxjh+ZN24OndHkKlmV+6UtfSn//+99bk9X1sDyabG1k3CKaT6U51anR/Cn7+8Ybb8zvd2T72LfUbq23T4cMGZKbLHv00UcrfSbVzHzBPqvVzOzHH3+cjjvuuHwMmCfJ///85z+5+dp6aBaXp6z5W/zcKNaZdWcbKKu8O2lqJgOffvrpdMopp+TPPMDAfuf6d9FFF+XrbrUX6+PNN9/MNYx5Zwr4y34rdlzvqbXcDM4Lzlv2CfuGBy447nR33nlnPj9ZBucONakb0cg5/uKLL6Ztt902rbbaannbGzlXpsQ5VW1/3nHHHZWhEyteh84+++z05z//OX+mHNIEIPvw7rvvbvgaVZyHGsP+j+NE7fn9998/nyNtKR47rkE8lMT9q4wmuDl2lM8poZlr15RC2a9W1i2XUte2zjrr5Ht6R2OezLue7rpsSZLqMdEmSR1soYUWyn8JRNYLOEdzkSShSEgRXCURRgKt2OQk72BbcMEFK98aQ+Bq1VVXrXxLadCgQTlwSAIuUGuOl2DXegr7tddey+8goV1/asoRsFp99dXT4MGD89PbBMUIrh5xxBG5Jl4ZiTnGIzDbVkJPXyyaGeVY77jjjvkztZioTUnigIRGtWQbAU6aJqUmwRVXXJHLOu8cJJlD4qveu/0CtR2ZhsRvo3gfDi9wJ7lLbYJ77703r8M555xTGWPykVwggBqBS8ryz3/+81zepzRqhpLIOPfcc/P2XX755flF9dXOMcQ+4Dy76667Kn0n1d75toXjzz6hZiwJCeZJeXnllVfSv/71r8pYUwYJ4FtvvTVvA03WUm7/8Y9/tJng6ygE8EkMUMaHDRuWr9nURCagX+sdTZxXv/jFL3JzSoHv7LfoONcI8NDscHuRCOK8I5HM+XvaaaflIDu1jTkmp59+em4iin104IEH5gQpx7CeRs/xxx9/PD8cQjKPc7qRc2VKnVO8J7S4T9dYY43KkNp22WWXdPDBB+fP7C/un+wz7qGNXqOK81DjKKccJxJlNGl9/PHH5++N4vyj+TMeUCLhRW39SHTznlqO3cILL5y/d0eWS6nrO+ywwzq0KUXmxTwb0V2XLUlSLSbaJKmDrbLKKjlQSuKMIFAtBIMI6FGDiGQbTUiSnCMAWaw9xud+/fpVvjWG+ZabrSy/lJoEGjWYCJAW8b41AvYEQamd8utf/zonMVgHgqJ77bVXWnvttfOT50cddVQ6//zzK1NObJFFFkk/+MEP0nzzzVfpo2kRSSWC6H/84x9z4JxAP++gIcnEPzgpx9VqC91888253B5wwAFphhlmyAnbeeaZJycP7r///lzrB9Sc4QlREr0HHXRQTlIEzoGoYcZn3k1IwoJzggA5CZwyyieJY4KooJyTDKAmEKK2E+WaZAi1HarVECouG1E74fXXX8+BSZISX/3qVyeqfRSJN6YhUcF60p144omtSR5qWrANNNvKNlODKd5fSOKCdyWyXuwTEhRlvEeRRHsk2wnw04QrNdGq4TxkvjvssENO1NeqDdXe+bbl2muvzQkm3lPE8QDlgJqy++23X/7Odsd+YDnVjmdZsbxwralWU4VkFfufbeC6xnceXCg3H0dZ4DhyjFg+ZRa1jj1/GfbTn/40X/sorzFO4PjygMJ2222Xyx7X0O9973s50cnfWk3ysj1HH310WmaZZSp9JsZyqDlYfEAiNLIf2RdsK80Ecy6SXOChD8ozNZJPOOGENP/88+dhJCXYN5SJeho5x9kf7AvKNceB/Vc8V8rnIw9oxPlQHI/Pp556auuxJ/EficBmylFZvetQ1JBiXaiVx/nMdvO9XFaKtWk55rEuMQ80eg3S52jymt9O/A7iuNe7xhbxsABlnHOXaxH7nRq2HIvieQ2uJVxTKAPU0LzsssvyQyTF6wQdn+lXVhyPY3v11VdPVJO/kWsXaq0HiuWLv3EfRXE6zgMS2+WHYPjO7zVqsbG+5XJZXH/2VWxnrDvlld98HAdJnQe/Lzoi6cQ8mFd7dNdlS5JUjYk2SepgBJ932mmnHBzkqfhqCIYQqCYJxUuqCTKROCBoTICpWPOM4FLUfutovF+NICJJscDyeK/b0KFD83oSpCKgRPNhBFPpqO1E8IagULWaSyTlSDYQOKtVY07TBpJoBPc57gQzqWFADSmC/tQeI/FGEK6IY06Qj6YCKbtFlGP+wUoSiVo2/MOVxAXnAwkYapzU8sADD+QySXCbGkqUuXLZJ8jIOUKAu1owlPcQEny9/vrrc+0Ukgx/+9vfqpbTaii7BCkJaLKuJBWKOCdoNpBgME0Gcg4QtKf2UGDfkahmm0k+xDBqArH+BIZJKlLbopzsoClW9vdjjz1WtTnWMt7hSAKFBA7rVu2l8mjvfOthX5JooZnE8vEvYvtImLIfSOrxvd61jPFI3pO84jO1MbjWRJKjFsop+3W66aar9JmAfUP5pixSlmjmsZFmSimHlGOa8i0/sMC1nfLBvqR8MQ416wjulx9mKKJmcr2aatSG4+GHRRddtNLnc+3djyCxwzgkxoooI9RWZn/Ve09no+c4TVVyzSA4f9999+UaYEXF85FyT3KKY1HtfGS/M4zxGM75gma2v6jR6xDLoD/nPvPnexHHm4QgDyBwveQaRUKW8lc0udeg7ohrOb+JSOhSLtu6xpZRnimHPHDANY5yWUQZ4CGA+G1Gk6UcH2r6ci2j7FFTlo7rBl0Zx5UHG1gfrvFclyKZxjwbuXbVW49i+eK+QHmlxQDKV3k6ag1Tq7T8blxq+rI9JKbL5y01jjn3WX+S6DxQxTlODUJqvPLACuce1ymOhaTOg397xsMqzWJa5sG82qO7LluSpGpMtEnSFEAQnSfiCdqVa7UR6CS4QgCYJo8imEeQlaeUCeQQDAHjPv/88zlhx2e6UPzciGrjU1uO2hkEi6nFFEkxAi/FoCDT0i+CtwTAqiU5mB9BRYI0PKldL/CsaQOJVI47x3bOOefMyV9qxxAY5lgSwCyXHcoC5bpY87KIQDzlg4QZT8h/5StfyWWBMrb55ptXxpoUiVmaJ2Vcls1T/eVmxKg9RcDxhhtuyONTy5J/IFMmCU4S4CZQzjaQNNtmm23SW2+91XpOTS6e9H/iiSdy7QmSMKwP7wgjORnBf9aJ5BfbQQLsww8/bN2HnN+Mx3YSiOW8LyIhRtKCJtRIZhCwvfTSS6vW5mDfUOuGawjBUZp1JdlRTXvm25a2jn8gUMy+YT+wfAK/1a4b4YUXXsjjRXkhAcwxJPhbC8f9rLPOSltssUUet4xmFCnjJLAI3lMu2kLzj9TarZZEJHDOPiMgw7ypIdjWfmgEgXu2u9o2tHc/UtZICnAOUQ4D5yOJ3z333DM3t1lOIhY1eo7XUz4fWX/ueSSvq82XJEmctxyDqFXTnu2nFirXDTqSFmjvdaiWe+65JyeXl1122XzNpExRU5B1ClPjGtSVcB3lWHHfIan2wx/+MD9o1NY1tr0oA5wLlA/KAInvY445JpczrjMcR66hdJSV8gMQfCcxRRllfVgvylAc+0avXfXWo1i+GMa86EiclaejxirB4WJCjN+K1GajRnbUMg6sP/PZfvvt8zC2k/tUseYpSUP+Mv3kBK0lfXFI1PMQCL/zGsW4TDO5zSZ212VLklRkBFSSpgCCkATRCXwQ3CVIQvCIYNtVV12Vn0Tefffd009+8pOJanzRRBfj8WQ2TxxTU4JACAF0nrQm0ENgmSe2mSfN6PFEMjULCEoSSOHJb4LBPNnMk88E9pkXiRSSezy5XQ4ikeCjhtrXvva11qbl2ouEzFZbbZUuvPDCHChS50DAjeAaf0kc0FFWCG5TfiMRV0RglHJSrHlZRBkkGE7wkWB0cfpyraMigu/FcVmPajWQCIT+/ve/z2WZ2i2sI0F1xqX5wGItHhJZ1JIol/lmcU6RRKcL7DvWO4L/5SQC5yDLJ4i64oor5nOfRE6xybCiaCqN85naU5zL1d57xnaTDIl3EJFwI1jLNaKaRufbFraPWidt1dCh1hcJB44XQWhqbNRDeeHdewSxKWPsY/ZRrXLG/uZ9fSSPSFyWrbDCCjmh9OMf/zgHrGs1CVfGtlVLsnHNpYYniSIC5Mzzu9/9bmvTbEVcg2m2ju2IYHYtlFua/aQ5t2raux85rtTIodnSYlmkthmJWGosUzOs3nwaPcfroRyWz8d6yudNrF97tp+HW0gS0kVt1PZeh2rh+Ndq+jNU2+aOvgZ1JfGONq6R1AjjvGrkGttelIGlllpqkjIG7jNcD6mVSrmnqc8yjiu/sWabbbZKnwnnSLx/ttFrV731KJcvtpeHX1i/atPxO7PYXC7LI2HJb7Ey1p/fiVyzWD86HrJieuZJc6o0U8n1jdqAnHOSOifOYx5A4yEkfgeQUOK6wLlOx2f6MYxxGJdpOkJ3XbYkScFEmyRNATxxTI0ukgEE9Eg+Edg888wzc/LiwAMPzMPKTx3zFDRNMzINAVECsATledcZQRaeOCYoxZPxBPII5BL84TtBPGq+bbzxxvldQSTVCKJQm4ZmyfbYY49cA4hxSdCVEYhkHXlXF086NxqIJGDDO3qoFUdHMF+dB82GUtYIBvMUO8lWkkE04UjQ7pZbbpnkmPIP1vXWWy9dd911k9SIoszSNBUBQ6YnYFdMJhUDgx2BWiNbb711XgbbQICTZGHgvOAcKNccK+O8qnZelBEIZhuK20EglOW3lXighgPnFgl0ah7wt1bzsiDQynnO+VUt4UjglEQj43Ae0gwttT7aqjnT1nzbwrJICpFAqpVsY59zPeD6Ra0Omj9bcMEFK0OrYzjXv0iU0FGzpVrinoA7TyJz3aLcFpMogeswNUBIhPGwQa0m4Ro99iSqCM7QLC7TkLTk4YdyM3Ug4M76MV65CcIyzhGOx7zzzlvp87n27kfOV7aVJFP5/hKo6UZXr5w0eo7Xw/LL52N7NVOOyjrqOsTxJ+FRT7VtbvQapAkm5xpbC/c5fnsVy0A444wz8jWNayfnKzV/yzifScAXj2vxutHotaveepTLF+PwcBZJxmrTkewu/k4jGc25WS2xz7rz/kaamiyuI+vMuc4+58EvHtyixiv3FYZL6rw45/n3IwklHkLhgR46PtOPYYwzJXTXZUuSZKJNkqYQghckKwh+kOSiZgUBWT5T8yuehC4i2MPTdSTimG633XbLtdlIflDbjcA4TZYRPCYYQhOVNK+07rrr5qebN9tsszwtTyfTRBDBVAI0vNeDcUnMkYirlUQjoEMigKe7eUcbNUBo6otaBNGkGetI4JJ1ItDM+9sIhPK9+LS3OgcCwzSBxbtlqMFCjSierKeG0G9/+9scNKYclZEUptYOZSWSNQTBDz/88PzEKIlhEnTMixpUvBeMhF612j/tQfCS5sVYFlgHEgsEKUm6rbbaajnBwTqRILjkkktyrYByEoOgNzVjSF4z3jXXXJMDlzGM2jMEGlnvYnCT/cGyqAnGsqkpQKCWWlVtvd+BJsIYN96RRtC4fB2gSUz2IYF58Jd1K9fYIsFFUoUashE0ZX24trC/yxqdb6N4dxeBC7aH5YJ9ThNs7H8SYSS/IinCuNRaqYcm/XgogCbk2Oc8LLD//vu3HuvAvM8999y05JJL5utOtSQbhgwZkms6RqIo9ne9Y98WxqM8sf+pTTi51zzmQzOPHAfuGWUMb3Q/UsOT4eWm4wgsUduG48R+ffbZZ3NHco/yS2KhWi2xRs7xetjP3AN5jxnTU+5p6o5jUitBW9ae7a+lo65DPIDAsSLBXat8ss2NXoNUXbPXWJJh/FYh+VUuX5GoorYnZYBjw28i7ick8SgjHDsefOA8KiNRRfOO5513Xl4fOpJRcewbvXbVWw8ehKJWGvNgGOWVjlpo7A+m4zrOMJZ1/vnn51rSgd91nPs8DPDUU09V+k7AvqGGLw99sU+5hp5++un52kBznPvss09uKSHwe6/a9UiSJElSbSbaJGkKI7BL0J7m3QhsEgCtFRgGwwiK0NQUgQ6+R3CYjloaBEHiOx3fq/VneoLLxX6MU2/5zIeEC0/7ff3rX88BLgI/BGKpUUAAiWYsCZ7yvhKCN4zPdOqcSFgQPI/kBeWUGpckh0nYVisvlGOC9zwJT3KHBCxJZGqXUaOSaQh6EkT85S9/med5/fXXp1133bUyh+YQ3OedRyyLZRJ8Be8cA8lmapPSLBbBecoriedy0JD33bB9JJZJcnCOsb5g3anNw7qTuI5EDRhGkpvtp7YCiQSS3LH8ehiH2gaxz1hXrg1FJNoJ6JL8ZPv4yzlGcp1zkGlINpDwIUBK8D+wjYx/991352AqQVuS9YzX6HwbxTZQA5aAL/uBeVKzjHX4zne+k5OeLINjRZCYawb96mGeBIpJ8HKd+va3v53fzRTHJVx00UX5wQP2IeOxbB4IoCnNIo4hQWnKAfuJ7af81Dv2baHJz9hOmqSsloRuD44jiaNaT1eTdGhkP1Jji33C/iMZwT6ho7zxoAVBeM4V9hc1V/bdd9+8Xwjwc4+olgRq5BxvCw+HsO85H7kGUEOOZpvK52MtjW5/oDzHttOR1Ouo6xDJGPYd10r2Iwl/ymi57DR6DVJ1zV5j+d1EcpjkO8nhIsowtbf4PcNn7ms8LMD1gM8knEiaU1u11rWA84gyRS1apuF8ivO/0WtXvfWgrFATlXnwW42mNCmzzIMyz3TUhGY6mqwlkVdOdpPQ5eErxqU2XBHnIvNhn/KwFNd9fsNxveCazfWDdac5Xs4Py6skSZLUPj1GjRo1adsVkiRJ6vZI1BCQrdY8ojo/ag2RPCSJJUmSJEmSmmP1A0mSJFVFzYpG39eozoeaMSbZJEmSJEmaPNZokyRJqoNmGHnnjwknTS00N8h7oXzvpSRJkiRJ0z5rtEmS1M09/PDD+b1TvH/mS1/6Uvr73/+ek0udwbBhw9Jhhx2W33VGx7unXn311crQycf72XhfHe8ia8T48ePze6RoanHWWWfN73XaZ5998ju0Otp///vf3OHss8+e5L1EXdXk7GPe4/b9739/kve5TY625vnMM8/kdyC9//77lT5tu/322/N0jWLclVZaaZL3k1XrT8e70sqefvrp1n26/vrr53f9gf195513pjXWWCM3JRqK5x7H4MQTT5zofYZFI0aMyO+NYjy6k08+OY0ZMyYP43zlvGU+XH/OOuusPIzuvPPOy+87Y5145xUJyGq4Xh133HF53sznN7/5TV5mqDWc/hy78v751a9+lZPrtfaJJEmSJElFJtokSerG3njjjfTPf/4zHXnkkWnUqFHp3nvvTR999FE655xzKmNMuwiEn3DCCWmVVVZJr7/+eu6+/vWvpz/84Q/p448/row1ed5999204YYb5gRAI2699da8fAL577zzTmuShcD9K6+8Uhmr4+2yyy7p4IMPrnzr2r6ofdwsmmb897//nWaeeeZKnyljo402SsOHD8/nMd0vfvGLvOz77ruvtd9bb72V9t9//7TMMstUppqA6Y455pj085//PJd5kmZ0XB9I4l5zzTVp9dVXr4w9IQH9xz/+MS288ML5HX4k699+++105pln5sRc2X/+85887lNPPZXHffbZZ9Mtt9yS50MCbLvttsvn74033phuu+22nEil41hffvnl+TjvuOOO6R//+MckyTyWd8opp6QPPvggz5v1WWCBBXLimWRdveF9+vTJ84z9w7z/9Kc/pfXWWy9fB2vtE0mSJEmSiky0SZLUjY0ePToNGjQozTHHHPn7gAED0qGHHpr22GOP/J0AN7VNyjU6yrV4qBnys5/9rLUWTrEGCR21WSL5Rc0jatAxz7322qu1BhpBcWq6MD7Luvnmm3P/Wki0ERhfcMEFU8+ePXO3wQYb5MA524RibT3+UkMFsf5Dhw7Ny2KZrC/rjahNs9VWW+UA/29/+9uJashUQ40lEgokfEhwxDqtuuqquebZ/PPPn/cP+ymWU9yPdOxrkgJf/vKXc3Lv0ksvbU1cFPfbQQcdlBMboVi7jWX86Ec/Sn/961/zdlETKY5bcR/TFWsWUQPq1FNPTdtuu20edsEFF6S77rqrdf+QcGGfI9Yl9mvUJmPZP/3pT/N+YB3ZTo4vx5n1pnbSZZddlrep3rrU0sg+Rq3jXlZcN7aTmluxv9uzP1AcVixLxWPezDaXMR/WLc699njyySfTTDPN1Hq+hxlnnDEdf/zxadlll009evRI8803X5pzzjlzmV9zzTXz/p5lllkqY6ecrCIxtcMOO6R+/frl841kJ4l6ElplP/jBD9Juu+2WevfuncddccUVc9KPaY866qicJOQ4zj777PlYUp5WXnnlvB9JUDKM7yQESYAVsR/Yrj333DPPm3mSuGM9WM+2hhcxLmVlqaWWqrtPJEmSJEkqMtEmSVI3RoKBwD2JmGoBf2rikKgh4Xbsscfm7wS764kaJCTWHn300fT444+nueeeOyeumA+B9UMOOSR/pibWX/7yl7wOjzzySG4ajvFPOumkdMYZZ9Rtbo8kCrVkSJZVq8FGEJ2EBM3bjRw5MieAjjjiiNYaKSzroYceyjVmSMywPlGT78orr8w1a66//vrWGjB/+9vfJkqslJG0ITi/6KKLVvq0H/Po379/uueee/I6XHTRRbmWFvvh6KOPztvAeu63337ppptuqkw1qQceeCAtv/zyOclD4pH9yXG7//7787CoMcQ+pwsM4xiT5CSRxP648MIL83dqNT3//PN5X1KT8Hvf+17+zF+mIfES8yCRQ80ghpOk2WmnnfJ6X3zxxXmfkvhoa12qaWQft3XcA/u0uG7/+te/crOprFtoZH+gXlkqamabG0U5IZnEOV1MfgbKLjXGNttss9SrV69K3+pY/3HjxuUk10ILLZQTXUXU8GI5kdAGiTjGZ9p6ONdZVxLkZVyDXnjhhZyELOP4sczyuxJpwpIyQQIx8J0ySDKvreFFHIvBgwfn5iXLivtEkiRJkqQiE22SJHVjBMpJNtxwww25CUZq71CLJxJXJCl4NxKBdpJl1EhpqwYONUWeeOKJ9K1vfSvXkKMGCQkAaskRRGc+X/nKV1prIjGcZuNAAJ9aJSRSSNa1FdQmUUdQ/Gtf+1pae+210+GHH95aS4VkFTVlqJHCslgmHckOsB7UwmEf0O266665aTsSMCTZqOnE8lm/bbbZJgflX3vttTxtNdR0IdlE7ZdmUWtmk002yft5ttlmy9tGYoKEGZ9jvy2++OJp8803r0w1KY4lTf0xLklCkpKsG/ubJNn000+fO+ZJMipQQ4ltnnfeefOytt9++9bvLJPjQyKQ5Ci1B5k/tchIrkYScumll87Hgm1gvRn+1a9+NY9LjSWa42Octtalmkb2cVvHPZTXjaQtCaprr722MkZj+wO1yhLHrqiZbQ6cF1tuuWVOEtFsJsvkuMZ702gOkkQhCSHOPY5RMQFNDUi6akmsEMtg/2288ca5DFZTTlA1igQo6095YX+WsS3sj3JTrWwH727bYost8vlYRAK5WqI9tDU8UH5pqpIHC4rlq9F9IkmSJEnqvky0SZLUzRHs//3vf99ae4fAMgFxEhrUiiHhxDgE9stNrVVDoJ/aI8UaJIFEG++DIwFHkoBxaErwk08+SSussEJupvHHP/5xDsI30qweQfdvf/vb6brrrss1pUguHXjggbnGDImU4ruoCJ4Xm37j/UysQyCATrN0bD9/55lnnsqQlJNLM8wwQ92kCOOQsImmB5vB9HQh1of9RvKxmAAo1+wposZScVy2mQQif3k3FYkMtp2ETVG5plO1mk9sHzUgeR8eNYyY14cfflgZmtLAgQNzkg2sN83wVZtPW+tSTSP7uK3jHqqtG7Wcik0TNrI/UKssUa6LmtnmwL4eMmRIThz9+te/zjW8OEdJDNGMJs1TkgRk/6y77rr53HjzzTcrU6d8zBZZZJE8Ti2xDJrBpNlSrgnVsD+bwXvj2CdcS6hlWTyOJCbPO++8fP5zfQhcA3iPJE1HFt8TF0jckdyspa3hgWsGCUT2ZVGj+0SSJEmS1H2ZaJMkSa0Iwm+99dY5AE5ihub/dt9991zjjMB+tebeQDA8kgrUWiLJUExYBKbnfW0kCKKj9lvUPqJ2Ee/aomm+9jarR+JinXXWSUsuuWSuSUTAnGRKYJsIpFOTCLyfjuUHaieR+CNJwt+orQQSbCSTSPTUQs0xavPRvGGjWD7r0RZqupH0LCYmqu3fttAcJ/uJd2mxbBI27cX2UXOKZCz76LHHHstJyGpI7NC8YrXEWDPr0sg+buu4h2rrRo2vegnMWmqVpXKCpyP2f6NIdpIABO8ypEYftbIawXWApBZJy2o4R0gAF2uKcVzoOP/rYb1WW221fE2JxDVJNhJv7I9iEo/rCk2fkmSmtmExeRxospLkI8sOJDRJ+DOvtoYHmv4kmUdirpq29okkSZIkqfsy0SZJUjdGkuuHP/xh6/urSFCR5CJZQUKAwHYk1whERw0ZguUEyQmQR5NrzAskXXivE++0Yn4Ey08//fTcJCXN7b344ov53W0kOHi31f7775+XT60RkjckBRCJAoL5BODLteno/6Mf/SjXNOHdSXS8H4vpadqP5hOpLceyGEaigS6arGOZZ555Zl5HOt4fRk0jEiQkAgjwk2xkfpdcckkOyjNf3uFVXM9A8mGrrbZKv/zlL1uTYmw767TPPvvk9SdRx18SRUzPe75I7rSF5v4I8LP+bMt9992XE5LtRYKBebEe1OBppnYOCSL2EbW/OPY01ViuLRYimUX5YL3Znxwzykq9deH9cyReojnK0Mg+buu4B8o460azqYxHuTz//PMbTkYV1SpL5cRsR+x/antRM4yaVoGywHvoWDbbwjnMMiKRxHaSKK6VKGcfHHDAAfn4gO255ZZbajYzyXElcUkNNMox5yJNva600kq5bBQxL5qfjXOedWT9WDfWkWsA773jmBaTdBzXc889NyfOaRq2WpIN7AeObbwXkvW54IILcsKM7W1rOOjP++to2jO0d59IkiRJkrovE22SJHVjNJ3H+8f22GOPnFijRgd49xkBc94DxnCSEg8++GBrs3MEqffee+90yCGHpMGDB+dgObXSQPN6++23X66hRj8C5SSTeN8VgfSDDz44/fa3v21t9pEgPE3JrbfeejlJQPB7xRVXzO/xYv1IypB0I8lVRG0hkjannXZabuaRjmTHT37ykzyM+ZCQYFkE9I866qgczGdZoHYUy+BdY6wn07Ct2GyzzdJaa62VhzEftu+ggw7K20RyjGRO+V1RoDlFEj4kDxnOth9//PHpBz/4QZ4P7wSjeUzehUftGBKJsT71MA7byvqznTSTyXvA2ot3jJHwJGH117/+taFll7Edyy23XC4r7AeOba2m+Tje1GCkJhefWf6GG26Yj2utdSEREs2AVmuqsa193NZxD5Rl1u2cc87J6/bd7343z5N1a68oS7xDrFyWijpi/1fDsjgnWTbl46qrrsoJ9CijNBtJ8rjWcaImKOWdJCbXAcoW7yUrJycD5yPnMQljmulcfvnlc+J1t912myQhxjYyLs3Tst2sIzXM2N/U/KOpSJrQpHlalk1H4vCiiy7KiS7Wie2gP+tETboilsdymZ5EWZyvLJP1bGs4SNAyf97TF9q7TyRJkiRJ3VePUaNG1X7JhSRJ0hfsX//6V1p77bVzsq+jEKw/7LDDcjKmWDOoLSQIqBlDIrH4Hil1HJIeJDO/853v1HwnWldHoomEEO9fkyRJkiRJ0zZrtEmSpGkaNV86Msk2Oag1RA0ck2xTDgmmvfbaq9sm2cB74qiNJ0mSJEmSpn3WaJMkSZIkSZIkSZKaYI02SZIkSZIkSZIkqQkm2iRJkiRJkiRJkqQmmGiTJEmSJEmSJEmSmmCiTZIkSZIkSZIkSWqCiTZJkiRJkiRJkiSpCSbaJEmSJEmSJEmSpCaYaJMkSZIkSZIkSZKaYKJNkiRJkiRJkiRJaoKJNkmSJEmSJEmSJKkJJtokSZIkSZIkSZKkJphokyRJkiRJkiRJkppgok2SJEmSJEmSJElqgok2SZIkSZIkSZIkqQkm2iRJkiRJkiRJkqQmmGiTJEmSJEmSJEmSmmCiTZIkSZIkSZIkSWqCiTZJkiRJkiRJkiSpCSbaJEmSJEmSJEmSpCaYaJMkSZIkSZIkSZKaYKJNkiRJkqT/b8+OCQAAYBgG1b/qaVhusAEAAEAg2gAAAAAAACAQbQAAAAAAABCINgAAAAAAAAhEGwAAAAAAAASiDQAAAAAAAALRBgAAAAAAAIFoAwAAAAAAgEC0AQAAAAAAQCDaAAAAAAAAIBBtAAAAAAAAEIg2AAAAAAAACEQbAAAAAAAABKINAAAAAAAAAtEGAAAAAAAAgWgDAAAAAACAQLQBAAAAAABAINoAAAAAAAAgEG0AAAAAAAAQiDYAAAAAAAAIRBsAAAAAAAAEog0AAAAAAAAC0QYAAAAAAACBaAMAAAAAAIBAtAEAAAAAAEAg2gAAAAAAACAQbQAAAAAAABCINgAAAAAAAAhEGwAAAAAAAASiDQAAAAAAAALRBgAAAAAAAIFoAwAAAAAAgEC0AQAAAAAAQCDaAAAAAAAAIBBtAAAAAAAAEIg2AAAAAAAACEQbAAAAAAAABKINAAAAAAAAAtEGAAAAAAAAgWgDAAAAAACAQLQBAAAAAABAINoAAAAAAAAgEG0AAAAAAAAQiDYAAAAAAAAIRBsAAAAAAAAEog0AAAAAAAAC0QYAAAAAAACBaAMAAAAAAIBAtAEAAAAAAEAg2gAAAAAAACAQbQAAAAAAABCINgAAAAAAAAhEGwAAAAAAAASiDQAAAAAAAALRBgAAAAAAAIFoAwAAAAAAgEC0AQAAAAAAQCDaAAAAAAAAIBBtAAAAAAAAEIg2AAAAAAAACEQbAAAAAAAABKINAAAAAAAAAtEGAAAAAAAAgWgDAAAAAACAQLQBAAAAAABAINoAAAAAAAAgEG0AAAAAAAAQiDYAAAAAAAAIRBsAAAAAAAAEog0AAAAAAAAC0QYAAAAAAACBaAMAAAAAAIBAtAEAAAAAAEAg2gAAAAAAACAQbQAAAAAAABCINgAAAAAAAAhEGwAAAAAAALxtBzKxCJLJ9UppAAAAAElFTkSuQmCC;" parent="1G45rmJJ2hewdtiEkbLU-1" vertex="1">
          <mxGeometry y="1406" width="900" height="194.47" as="geometry" />
        </mxCell>
        <UserObject label="" link="data:action/json,{&quot;actions&quot;:[{&quot;toggleVisibility&quot;:{&quot;cells&quot;:[&quot;Filtros&quot;]}}]}" id="qkpnmEEfOn7wf-mMTVZ2-0">
          <mxCell style="shape=image;html=1;verticalAlign=top;verticalLabelPosition=bottom;labelBackgroundColor=#ffffff;imageAspect=0;aspect=fixed;image=https://cdn4.iconfinder.com/data/icons/free-ui-set/200/line_3-24-128.png" vertex="1" parent="1G45rmJJ2hewdtiEkbLU-1">
            <mxGeometry x="4" y="85" width="60" height="60" as="geometry" />
          </mxCell>
        </UserObject>
        <mxCell id="NJaLIdzwWXO2rJ6s9igO-0" value="&lt;b&gt;&lt;font style=&quot;font-size: 16px;&quot;&gt;Filtros&lt;/font&gt;&lt;/b&gt;" style="text;html=1;align=center;verticalAlign=middle;whiteSpace=wrap;rounded=0;" vertex="1" parent="1G45rmJJ2hewdtiEkbLU-1">
          <mxGeometry x="57" y="96" width="95" height="38" as="geometry" />
        </mxCell>
        <mxCell id="wR9WBjA8jpxqmIxglBCx-28" value="" style="rounded=0;whiteSpace=wrap;html=1;strokeColor=none;fillColor=#b8b8b8;rotation=0;" vertex="1" parent="1G45rmJJ2hewdtiEkbLU-1">
          <mxGeometry y="728" width="900" height="2" as="geometry" />
        </mxCell>
        <mxCell id="wR9WBjA8jpxqmIxglBCx-41" value="" style="triangle;whiteSpace=wrap;html=1;fillColor=#000000;" vertex="1" parent="1G45rmJJ2hewdtiEkbLU-1">
          <mxGeometry x="236" y="218" width="13" height="13" as="geometry" />
        </mxCell>
        <mxCell id="wR9WBjA8jpxqmIxglBCx-42" value="topic 1" style="text;html=1;align=center;verticalAlign=middle;whiteSpace=wrap;rounded=0;" vertex="1" parent="1G45rmJJ2hewdtiEkbLU-1">
          <mxGeometry x="249" y="209.5" width="60" height="30" as="geometry" />
        </mxCell>
        <mxCell id="wR9WBjA8jpxqmIxglBCx-47" value="" style="triangle;whiteSpace=wrap;html=1;fillColor=#000000;rotation=90;" vertex="1" parent="1G45rmJJ2hewdtiEkbLU-1">
          <mxGeometry x="236" y="243.5" width="13" height="13" as="geometry" />
        </mxCell>
        <mxCell id="wR9WBjA8jpxqmIxglBCx-48" value="topic 2" style="text;html=1;align=center;verticalAlign=middle;whiteSpace=wrap;rounded=0;" vertex="1" parent="1G45rmJJ2hewdtiEkbLU-1">
          <mxGeometry x="249" y="235" width="60" height="30" as="geometry" />
        </mxCell>
        <mxCell id="wR9WBjA8jpxqmIxglBCx-49" value="" style="triangle;whiteSpace=wrap;html=1;fillColor=#000000;rotation=90;" vertex="1" parent="1G45rmJJ2hewdtiEkbLU-1">
          <mxGeometry x="249" y="273.5" width="13" height="13" as="geometry" />
        </mxCell>
        <mxCell id="wR9WBjA8jpxqmIxglBCx-50" value="message 1" style="text;html=1;align=center;verticalAlign=middle;whiteSpace=wrap;rounded=0;" vertex="1" parent="1G45rmJJ2hewdtiEkbLU-1">
          <mxGeometry x="262" y="265" width="80" height="30" as="geometry" />
        </mxCell>
        <mxCell id="wR9WBjA8jpxqmIxglBCx-51" value="" style="triangle;whiteSpace=wrap;html=1;fillColor=#000000;rotation=0;" vertex="1" parent="1G45rmJJ2hewdtiEkbLU-1">
          <mxGeometry x="249" y="383.5" width="13" height="13" as="geometry" />
        </mxCell>
        <mxCell id="wR9WBjA8jpxqmIxglBCx-52" value="message 2" style="text;html=1;align=center;verticalAlign=middle;whiteSpace=wrap;rounded=0;" vertex="1" parent="1G45rmJJ2hewdtiEkbLU-1">
          <mxGeometry x="262" y="375" width="80" height="30" as="geometry" />
        </mxCell>
        <mxCell id="wR9WBjA8jpxqmIxglBCx-53" value="&lt;div style=&quot;text-align: left;&quot;&gt;&lt;span style=&quot;background-color: initial;&quot;&gt;{&lt;/span&gt;&lt;/div&gt;&lt;div style=&quot;text-align: left;&quot;&gt;&lt;span style=&quot;white-space: pre;&quot;&gt;&#x9;&lt;/span&gt;temperatura: 15º C,&lt;/div&gt;&lt;div style=&quot;text-align: left;&quot;&gt;&lt;span style=&quot;white-space: pre;&quot;&gt;&#x9;&lt;/span&gt;humedad: 65 %,&lt;br&gt;&lt;/div&gt;&lt;div style=&quot;text-align: left;&quot;&gt;&lt;span style=&quot;white-space: pre;&quot;&gt;&#x9;&lt;/span&gt;...&lt;br&gt;&lt;/div&gt;&lt;div style=&quot;text-align: left;&quot;&gt;}&lt;/div&gt;" style="text;html=1;align=center;verticalAlign=middle;whiteSpace=wrap;rounded=0;" vertex="1" parent="1G45rmJJ2hewdtiEkbLU-1">
          <mxGeometry x="262" y="303" width="147" height="64" as="geometry" />
        </mxCell>
        <mxCell id="wR9WBjA8jpxqmIxglBCx-56" value="" style="triangle;whiteSpace=wrap;html=1;fillColor=#000000;rotation=0;" vertex="1" parent="1G45rmJJ2hewdtiEkbLU-1">
          <mxGeometry x="249" y="413.5" width="13" height="13" as="geometry" />
        </mxCell>
        <mxCell id="wR9WBjA8jpxqmIxglBCx-57" value="message 3" style="text;html=1;align=center;verticalAlign=middle;whiteSpace=wrap;rounded=0;" vertex="1" parent="1G45rmJJ2hewdtiEkbLU-1">
          <mxGeometry x="262" y="405" width="80" height="30" as="geometry" />
        </mxCell>
        <mxCell id="wR9WBjA8jpxqmIxglBCx-58" value="" style="triangle;whiteSpace=wrap;html=1;fillColor=#000000;rotation=0;" vertex="1" parent="1G45rmJJ2hewdtiEkbLU-1">
          <mxGeometry x="249" y="443.5" width="13" height="13" as="geometry" />
        </mxCell>
        <mxCell id="wR9WBjA8jpxqmIxglBCx-59" value="message 4" style="text;html=1;align=center;verticalAlign=middle;whiteSpace=wrap;rounded=0;" vertex="1" parent="1G45rmJJ2hewdtiEkbLU-1">
          <mxGeometry x="262" y="435" width="80" height="30" as="geometry" />
        </mxCell>
        <mxCell id="wR9WBjA8jpxqmIxglBCx-60" value="" style="triangle;whiteSpace=wrap;html=1;fillColor=#000000;" vertex="1" parent="1G45rmJJ2hewdtiEkbLU-1">
          <mxGeometry x="236" y="473.5" width="13" height="13" as="geometry" />
        </mxCell>
        <mxCell id="wR9WBjA8jpxqmIxglBCx-61" value="topic 3" style="text;html=1;align=center;verticalAlign=middle;whiteSpace=wrap;rounded=0;" vertex="1" parent="1G45rmJJ2hewdtiEkbLU-1">
          <mxGeometry x="249" y="465" width="60" height="30" as="geometry" />
        </mxCell>
        <mxCell id="wR9WBjA8jpxqmIxglBCx-62" value="" style="triangle;whiteSpace=wrap;html=1;fillColor=#000000;" vertex="1" parent="1G45rmJJ2hewdtiEkbLU-1">
          <mxGeometry x="236" y="503.5" width="13" height="13" as="geometry" />
        </mxCell>
        <mxCell id="wR9WBjA8jpxqmIxglBCx-63" value="topic 4" style="text;html=1;align=center;verticalAlign=middle;whiteSpace=wrap;rounded=0;" vertex="1" parent="1G45rmJJ2hewdtiEkbLU-1">
          <mxGeometry x="249" y="495" width="60" height="30" as="geometry" />
        </mxCell>
        <mxCell id="wR9WBjA8jpxqmIxglBCx-66" value="" style="verticalLabelPosition=bottom;shadow=0;dashed=0;align=center;html=1;verticalAlign=top;strokeWidth=1;shape=mxgraph.mockup.graphics.lineChart;strokeColor=none;strokeColor2=#666666;strokeColor3=#008cff;strokeColor4=#dddddd;" vertex="1" parent="1G45rmJJ2hewdtiEkbLU-1">
          <mxGeometry x="41" y="800" width="382.5" height="181" as="geometry" />
        </mxCell>
        <mxCell id="wR9WBjA8jpxqmIxglBCx-68" value="" style="verticalLabelPosition=bottom;shadow=0;dashed=0;align=center;html=1;verticalAlign=top;strokeWidth=1;shape=mxgraph.mockup.graphics.lineChart;strokeColor=none;strokeColor2=#666666;strokeColor3=#008cff;strokeColor4=#dddddd;" vertex="1" parent="1G45rmJJ2hewdtiEkbLU-1">
          <mxGeometry x="488" y="800" width="382.5" height="181" as="geometry" />
        </mxCell>
        <mxCell id="wR9WBjA8jpxqmIxglBCx-69" value="&lt;b&gt;Temperatura&lt;/b&gt;" style="text;html=1;align=center;verticalAlign=middle;whiteSpace=wrap;rounded=0;" vertex="1" parent="1G45rmJJ2hewdtiEkbLU-1">
          <mxGeometry x="41" y="757" width="86" height="30" as="geometry" />
        </mxCell>
        <mxCell id="wR9WBjA8jpxqmIxglBCx-70" value="&lt;b&gt;Humedad&lt;/b&gt;" style="text;html=1;align=center;verticalAlign=middle;whiteSpace=wrap;rounded=0;" vertex="1" parent="1G45rmJJ2hewdtiEkbLU-1">
          <mxGeometry x="488" y="757" width="86" height="30" as="geometry" />
        </mxCell>
        <mxCell id="wR9WBjA8jpxqmIxglBCx-12" value="Filtros" parent="1G45rmJJ2hewdtiEkbLU-0" />
        <mxCell id="wR9WBjA8jpxqmIxglBCx-14" value="" style="rounded=0;whiteSpace=wrap;html=1;strokeColor=none;fillColor=#b8b8b8;rotation=90;" vertex="1" parent="wR9WBjA8jpxqmIxglBCx-12">
          <mxGeometry x="-103.5" y="403.5" width="651" height="2" as="geometry" />
        </mxCell>
        <mxCell id="wR9WBjA8jpxqmIxglBCx-15" value="" style="group" vertex="1" connectable="0" parent="wR9WBjA8jpxqmIxglBCx-12">
          <mxGeometry x="16.79" y="154" width="175.42" height="191.75" as="geometry" />
        </mxCell>
        <mxCell id="wR9WBjA8jpxqmIxglBCx-16" value="" style="html=1;shadow=0;dashed=0;shape=mxgraph.bootstrap.rrect;rSize=5;strokeColor=#CED4DA;html=1;whiteSpace=wrap;fillColor=#FFFFFF;fontColor=#7D868C;align=left;spacing=15;spacingLeft=40;fontSize=14;" vertex="1" parent="wR9WBjA8jpxqmIxglBCx-15">
          <mxGeometry x="71.71000000000001" width="103.71" height="30" as="geometry" />
        </mxCell>
        <mxCell id="wR9WBjA8jpxqmIxglBCx-17" value="API Key" style="text;html=1;align=center;verticalAlign=middle;whiteSpace=wrap;rounded=0;" vertex="1" parent="wR9WBjA8jpxqmIxglBCx-15">
          <mxGeometry x="1.740000000000002" width="49.97" height="30" as="geometry" />
        </mxCell>
        <mxCell id="wR9WBjA8jpxqmIxglBCx-18" value="Fecha Inicio" style="text;html=1;align=center;verticalAlign=middle;whiteSpace=wrap;rounded=0;" vertex="1" parent="wR9WBjA8jpxqmIxglBCx-15">
          <mxGeometry y="37.5" width="66.71" height="30" as="geometry" />
        </mxCell>
        <mxCell id="wR9WBjA8jpxqmIxglBCx-19" value="Fecha Fin" style="text;html=1;align=center;verticalAlign=middle;whiteSpace=wrap;rounded=0;" vertex="1" parent="wR9WBjA8jpxqmIxglBCx-15">
          <mxGeometry x="1.740000000000002" y="74.5" width="58.97" height="30" as="geometry" />
        </mxCell>
        <mxCell id="wR9WBjA8jpxqmIxglBCx-20" value="Topic" style="text;html=1;align=center;verticalAlign=middle;whiteSpace=wrap;rounded=0;" vertex="1" parent="wR9WBjA8jpxqmIxglBCx-15">
          <mxGeometry x="1.740000000000002" y="111.5" width="50.97" height="30" as="geometry" />
        </mxCell>
        <mxCell id="wR9WBjA8jpxqmIxglBCx-21" value="" style="html=1;shadow=0;dashed=0;shape=mxgraph.bootstrap.rrect;rSize=5;strokeColor=#CED4DA;html=1;whiteSpace=wrap;fillColor=#FFFFFF;fontColor=#7D868C;align=left;spacing=15;spacingLeft=40;fontSize=14;" vertex="1" parent="wR9WBjA8jpxqmIxglBCx-15">
          <mxGeometry x="74.71000000000001" y="37.5" width="100.71" height="30" as="geometry" />
        </mxCell>
        <mxCell id="wR9WBjA8jpxqmIxglBCx-22" value="" style="html=1;shadow=0;dashed=0;shape=mxgraph.bootstrap.rrect;rSize=5;strokeColor=#CED4DA;html=1;whiteSpace=wrap;fillColor=#FFFFFF;fontColor=#7D868C;align=left;spacing=15;spacingLeft=40;fontSize=14;" vertex="1" parent="wR9WBjA8jpxqmIxglBCx-15">
          <mxGeometry x="73.71000000000001" y="74.5" width="101.71" height="30" as="geometry" />
        </mxCell>
        <mxCell id="wR9WBjA8jpxqmIxglBCx-23" value="" style="html=1;shadow=0;dashed=0;shape=mxgraph.bootstrap.rrect;rSize=5;strokeColor=#CED4DA;html=1;whiteSpace=wrap;fillColor=#FFFFFF;fontColor=#7D868C;align=left;spacing=15;spacingLeft=40;fontSize=14;" vertex="1" parent="wR9WBjA8jpxqmIxglBCx-15">
          <mxGeometry x="73.71000000000001" y="111.5" width="101.71" height="30" as="geometry" />
        </mxCell>
        <mxCell id="wR9WBjA8jpxqmIxglBCx-24" value="&lt;span style=&quot;color: rgba(0, 0, 0, 0); font-family: monospace; font-size: 0px; text-align: start;&quot;&gt;%3CmxGraphModel%3E%3Croot%3E%3CmxCell%20id%3D%220%22%2F%3E%3CmxCell%20id%3D%221%22%20parent%3D%220%22%2F%3E%3CmxCell%20id%3D%222%22%20value%3D%22%26lt%3Bfont%20style%3D%26quot%3Bfont-size%3A%2014px%3B%26quot%3B%20color%3D%26quot%3B%231e1207%26quot%3B%26gt%3BAPI%20Key%26lt%3B%2Ffont%26gt%3B%22%20style%3D%22rounded%3D1%3BwhiteSpace%3Dwrap%3Bhtml%3D1%3BstrokeColor%3Dnone%3B%22%20vertex%3D%221%22%20parent%3D%221%22%3E%3CmxGeometry%20x%3D%22271%22%20y%3D%22466%22%20width%3D%2298%22%20height%3D%2241%22%20as%3D%22geometry%22%2F%3E%3C%2FmxCell%3E%3C%2Froot%3E%3C%2FmxGraphModel%3E&lt;/span&gt;&lt;span style=&quot;color: rgba(0, 0, 0, 0); font-family: monospace; font-size: 0px; text-align: start;&quot;&gt;%3CmxGraphModel%3E%3Croot%3E%3CmxCell%20id%3D%220%22%2F%3E%3CmxCell%20id%3D%221%22%20parent%3D%220%22%2F%3E%3CmxCell%20id%3D%222%22%20value%3D%22%26lt%3Bfont%20style%3D%26quot%3Bfont-size%3A%2014px%3B%26quot%3B%20color%3D%26quot%3B%231e1207%26quot%3B%26gt%3BAPI%20Key%26lt%3B%2Ffont%26gt%3B%22%20style%3D%22rounded%3D1%3BwhiteSpace%3Dwrap%3Bhtml%3D1%3BstrokeColor%3Dnone%3B%22%20vertex%3D%221%22%20parent%3D%221%22%3E%3CmxGeometry%20x%3D%22271%22%20y%3D%22466%22%20width%3D%2298%22%20height%3D%2241%22%20as%3D%22geometry%22%2F%3E%3C%2FmxCell%3E%3C%2Froot%3E%3C%2FmxGraphModel%3E&lt;/span&gt;" style="sketch=0;pointerEvents=1;shadow=0;dashed=0;html=1;strokeColor=none;fillColor=#9be1c8;labelPosition=center;verticalLabelPosition=bottom;verticalAlign=top;align=center;outlineConnect=0;shape=mxgraph.veeam2.calendar;" vertex="1" parent="wR9WBjA8jpxqmIxglBCx-15">
          <mxGeometry x="149.71" y="40.44" width="23.11" height="24.13" as="geometry" />
        </mxCell>
        <mxCell id="wR9WBjA8jpxqmIxglBCx-25" value="&lt;span style=&quot;color: rgba(0, 0, 0, 0); font-family: monospace; font-size: 0px; text-align: start;&quot;&gt;%3CmxGraphModel%3E%3Croot%3E%3CmxCell%20id%3D%220%22%2F%3E%3CmxCell%20id%3D%221%22%20parent%3D%220%22%2F%3E%3CmxCell%20id%3D%222%22%20value%3D%22%26lt%3Bfont%20style%3D%26quot%3Bfont-size%3A%2014px%3B%26quot%3B%20color%3D%26quot%3B%231e1207%26quot%3B%26gt%3BAPI%20Key%26lt%3B%2Ffont%26gt%3B%22%20style%3D%22rounded%3D1%3BwhiteSpace%3Dwrap%3Bhtml%3D1%3BstrokeColor%3Dnone%3B%22%20vertex%3D%221%22%20parent%3D%221%22%3E%3CmxGeometry%20x%3D%22271%22%20y%3D%22466%22%20width%3D%2298%22%20height%3D%2241%22%20as%3D%22geometry%22%2F%3E%3C%2FmxCell%3E%3C%2Froot%3E%3C%2FmxGraphModel%3E&lt;/span&gt;&lt;span style=&quot;color: rgba(0, 0, 0, 0); font-family: monospace; font-size: 0px; text-align: start;&quot;&gt;%3CmxGraphModel%3E%3Croot%3E%3CmxCell%20id%3D%220%22%2F%3E%3CmxCell%20id%3D%221%22%20parent%3D%220%22%2F%3E%3CmxCell%20id%3D%222%22%20value%3D%22%26lt%3Bfont%20style%3D%26quot%3Bfont-size%3A%2014px%3B%26quot%3B%20color%3D%26quot%3B%231e1207%26quot%3B%26gt%3BAPI%20Key%26lt%3B%2Ffont%26gt%3B%22%20style%3D%22rounded%3D1%3BwhiteSpace%3Dwrap%3Bhtml%3D1%3BstrokeColor%3Dnone%3B%22%20vertex%3D%221%22%20parent%3D%221%22%3E%3CmxGeometry%20x%3D%22271%22%20y%3D%22466%22%20width%3D%2298%22%20height%3D%2241%22%20as%3D%22geometry%22%2F%3E%3C%2FmxCell%3E%3C%2Froot%3E%3C%2FmxGraphModel%3E&lt;/span&gt;" style="sketch=0;pointerEvents=1;shadow=0;dashed=0;html=1;strokeColor=none;fillColor=#9be1c8;labelPosition=center;verticalLabelPosition=bottom;verticalAlign=top;align=center;outlineConnect=0;shape=mxgraph.veeam2.calendar;" vertex="1" parent="wR9WBjA8jpxqmIxglBCx-15">
          <mxGeometry x="149.71" y="77.43" width="23.11" height="24.13" as="geometry" />
        </mxCell>
        <UserObject label="&lt;b&gt;&lt;font style=&quot;font-size: 14px;&quot;&gt;Filtrar&lt;/font&gt;&lt;/b&gt;" id="wR9WBjA8jpxqmIxglBCx-26">
          <mxCell style="rounded=1;html=1;shadow=0;dashed=0;whiteSpace=wrap;fontSize=10;fillColor=#92d050;align=center;strokeColor=none;fontColor=#ffffff;glass=0;direction=east;gradientColor=none;collapsible=0;arcSize=50;absoluteArcSize=0;" vertex="1" parent="wR9WBjA8jpxqmIxglBCx-15">
            <mxGeometry x="26.57" y="156.75" width="122.29" height="35" as="geometry" />
          </mxCell>
        </UserObject>
      </root>
    </mxGraphModel>
  </diagram>
</mxfile>
